<svg width="1782" height="1797" viewBox="0 0 1782 1797" fill="none" xmlns="http://www.w3.org/2000/svg">
<g clip-path="url(#clip0_1_2)">
<rect x="518.481" width="1053.99" height="336.101" rx="168.05" transform="rotate(24.9273 518.481 0)" fill="#EA664D"/>
<path d="M644.846 225.12C638.298 222.511 636.857 217.385 639.253 211.37C641.63 205.405 646.203 202.674 652.75 205.284C658.231 207.467 659.797 211.014 659.144 215.756L670.929 220.452C673.561 209.192 665.931 201.543 655.843 197.523C644.784 193.117 632.773 193.782 627.613 206.732C622.433 219.73 630.695 228.474 641.754 232.881C651.842 236.901 662.642 236.595 668.475 226.612L656.689 221.915C653.902 225.807 650.326 227.304 644.846 225.12ZM696.544 223.128C691.597 221.156 687.449 222.539 685.89 223.491L690.431 212.093L679.858 207.88L666.33 241.831L676.903 246.044L682.566 231.833C683.725 228.923 685.953 227.281 689.542 228.712C693.179 230.161 693.454 232.856 692.314 235.718L686.652 249.928L697.225 254.141L703.854 237.506C706.482 230.909 703.674 225.969 696.544 223.128ZM725.986 234.859C717.595 231.516 711.516 231.679 708.083 237.617L717.734 241.463C718.711 239.998 719.874 239.337 723.609 240.825C728.119 242.622 727.937 244.348 726.952 246.822L726.816 247.161C709.597 239.176 704.754 242.304 702.434 248.124C700.405 253.217 703.484 257.479 710.808 260.397C715.221 262.156 719.234 261.675 721.463 260.596L720.361 263.361L730.935 267.574L737.525 251.035C740.984 242.353 734.328 238.184 725.986 234.859ZM723.299 255.989C721.235 257.077 718.317 257.207 715.601 256.125C713.225 255.178 712.04 253.919 712.813 251.979C714.05 248.875 718.143 250.169 724.478 253.03L723.299 255.989ZM764.24 257.802L766.617 251.837L759.051 248.822L761.718 242.129L751.144 237.915L748.477 244.609L743.676 242.695L741.299 248.661L746.1 250.574L742.293 260.129C739.22 267.841 740.33 271.824 750.079 275.708C752.068 276.501 754.405 277.264 756.296 277.736L759.157 270.558C753.793 268.927 751.417 267.98 752.866 264.342L756.673 254.787L764.24 257.802ZM797.695 263.434C789.305 260.09 783.226 260.254 779.792 266.191L789.444 270.037C790.421 268.572 791.584 267.911 795.318 269.4C799.829 271.197 799.647 272.923 798.661 275.396L798.526 275.736C781.307 267.75 776.463 270.879 774.144 276.699C772.115 281.791 775.194 286.053 782.517 288.971C786.931 290.73 790.944 290.25 793.172 289.171L792.071 291.935L802.644 296.148L809.234 279.61C812.694 270.928 806.037 266.758 797.695 263.434ZM795.008 284.563C792.945 285.652 790.027 285.782 787.311 284.699C784.934 283.752 783.75 282.493 784.523 280.553C785.76 277.449 789.853 278.743 796.187 281.605L795.008 284.563ZM836.742 278.993C831.747 277.003 827.648 278.404 826.088 279.356L827.402 276.058L816.829 271.845L806.528 297.696L817.101 301.909L822.764 287.698C823.923 284.788 826.103 283.128 829.74 284.577C833.378 286.027 833.653 288.721 832.513 291.583L826.85 305.794L837.423 310.007L844.052 293.371C846.68 286.775 843.872 281.834 836.742 278.993ZM876.744 286.334L872.28 297.538C871.083 294.195 868.501 291.648 865.009 290.257C857.006 287.068 848.962 289.483 845.464 298.261C841.966 307.04 846.145 314.325 854.147 317.514C857.639 318.906 861.265 318.833 864.453 317.181L863.216 320.285L873.789 324.498L887.318 290.547L876.744 286.334ZM859.656 311.729C855 309.873 854.161 305.773 855.552 302.281C856.944 298.789 860.373 296.39 865.029 298.245C870.024 300.236 870.786 303.968 869.278 307.751C867.771 311.534 864.652 313.719 859.656 311.729ZM920.191 312.246C916.699 310.854 913.074 310.927 909.905 312.531L914.37 301.327L903.797 297.114L890.268 331.064L900.841 335.278L902.078 332.173C903.256 335.565 905.838 338.112 909.33 339.503C917.333 342.692 925.425 340.296 928.923 331.518C932.421 322.739 928.194 315.434 920.191 312.246ZM909.358 331.534C904.363 329.543 903.553 325.792 905.061 322.009C906.568 318.226 909.735 316.06 914.731 318.05C919.387 319.906 920.178 323.986 918.786 327.478C917.395 330.971 914.014 333.389 909.358 331.534ZM957.294 327.03C951.668 324.788 947.627 326.606 945.981 327.917L947.565 323.94L936.992 319.727L926.691 345.578L937.264 349.791L941.651 338.782C943.256 334.756 946.073 332.057 951.505 334.222C953.833 335.149 955.328 336.475 956.425 337.531L957.298 337.879L960.854 328.955C960.097 328.316 958.943 327.687 957.294 327.03ZM979.412 335.843C971.409 332.655 961.036 332.736 957.054 342.727C953.073 352.719 960.548 359.912 968.551 363.101C976.505 366.271 986.878 366.189 990.86 356.198C994.841 346.207 987.366 339.013 979.412 335.843ZM971.295 356.214C966.348 354.243 965.8 350.259 967.191 346.767C968.583 343.274 971.721 340.759 976.668 342.731C981.566 344.683 982.114 348.667 980.723 352.159C979.331 355.651 976.194 358.166 971.295 356.214ZM1013.53 349.44C1005.14 346.097 999.065 346.26 995.631 352.198L1005.28 356.044C1006.26 354.579 1007.42 353.918 1011.16 355.406C1015.67 357.203 1015.49 358.929 1014.5 361.403L1014.36 361.742C997.146 353.757 992.302 356.885 989.983 362.705C987.954 367.798 991.033 372.06 998.356 374.978C1002.77 376.737 1006.78 376.256 1009.01 375.177L1007.91 377.942L1018.48 382.155L1025.07 365.616C1028.53 356.934 1021.88 352.765 1013.53 349.44ZM1010.85 370.57C1008.78 371.658 1005.87 371.788 1003.15 370.706C1000.77 369.759 999.589 368.5 1000.36 366.56C1001.6 363.456 1005.69 364.75 1012.03 367.611L1010.85 370.57ZM1057.82 358.487L1053.35 369.691C1052.16 366.348 1049.57 363.801 1046.08 362.41C1038.08 359.221 1030.04 361.636 1026.54 370.415C1023.04 379.193 1027.22 386.479 1035.22 389.668C1038.71 391.059 1042.34 390.986 1045.53 389.334L1044.29 392.438L1054.86 396.651L1068.39 362.701L1057.82 358.487ZM1040.73 383.882C1036.07 382.027 1035.23 377.927 1036.63 374.435C1038.02 370.943 1041.45 368.543 1046.1 370.399C1051.1 372.389 1051.86 376.121 1050.35 379.904C1048.84 383.687 1045.73 385.873 1040.73 383.882ZM1077.11 398.377C1072.21 396.425 1071.66 392.441 1073.05 388.949C1074.44 385.457 1077.58 382.942 1082.48 384.894C1086.26 386.401 1087.54 389.104 1087.24 391.848L1097.04 395.752C1098.99 387.034 1092.55 380.925 1085.22 378.006C1077.27 374.837 1066.89 374.918 1062.91 384.91C1058.93 394.901 1066.41 402.094 1074.36 405.264C1081.68 408.182 1090.57 408.18 1095.16 400.457L1085.36 396.553C1083.7 398.756 1080.89 399.884 1077.11 398.377ZM1118.73 391.358C1110.34 388.015 1104.26 388.178 1100.83 394.116L1110.48 397.962C1111.46 396.497 1112.62 395.836 1116.35 397.324C1120.86 399.121 1120.68 400.847 1119.7 403.321L1119.56 403.66C1102.34 395.675 1097.5 398.803 1095.18 404.623C1093.15 409.716 1096.23 413.978 1103.55 416.896C1107.97 418.655 1111.98 418.174 1114.21 417.095L1113.11 419.86L1123.68 424.073L1130.27 407.534C1133.73 398.852 1127.07 394.683 1118.73 391.358ZM1116.04 412.488C1113.98 413.576 1111.06 413.706 1108.35 412.624C1105.97 411.677 1104.78 410.418 1105.56 408.478C1106.79 405.374 1110.89 406.668 1117.22 409.529L1116.04 412.488ZM1150.87 415.798C1146.67 413.506 1143.99 412.326 1144.65 410.677C1145.17 409.368 1146.71 409.308 1150.2 410.699C1153.55 412.033 1154.76 413.64 1154.09 415.338L1164.61 419.532C1166.58 414.585 1163.74 409.295 1152.64 404.869C1142.89 400.984 1136.59 401.846 1134.33 407.521C1132.16 412.953 1135.68 415.818 1142.49 419.764C1148.42 423.198 1151.51 424.484 1150.72 426.472C1150.12 427.976 1148.21 427.833 1145.05 426.577C1141.47 425.147 1139.5 423.579 1140.51 421.057L1129.45 416.65C1127 422.81 1131.3 427.952 1142.21 432.301C1152.35 436.34 1159.4 436.563 1162.04 429.919C1164.73 423.177 1158.36 419.85 1150.87 415.798ZM1190.14 427.513L1192.52 421.547L1184.95 418.532L1187.62 411.839L1177.04 407.626L1174.38 414.319L1169.58 412.406L1167.2 418.371L1172 420.285L1168.19 429.839C1165.12 437.551 1166.23 441.534 1175.98 445.419C1177.97 446.211 1180.3 446.974 1182.2 447.447L1185.06 440.269C1179.69 438.637 1177.32 437.69 1178.77 434.053L1182.57 424.498L1190.14 427.513ZM1208.94 438.937C1204.73 436.645 1202.06 435.465 1202.71 433.816C1203.24 432.507 1204.78 432.446 1208.27 433.838C1211.62 435.172 1212.83 436.779 1212.15 438.477L1222.68 442.671C1224.65 437.724 1221.81 432.434 1210.71 428.008C1200.96 424.123 1194.66 424.985 1192.39 430.659C1190.23 436.092 1193.75 438.957 1200.55 442.903C1206.49 446.337 1209.58 447.623 1208.78 449.611C1208.19 451.115 1206.28 450.972 1203.12 449.716C1199.53 448.286 1197.57 446.717 1198.58 444.195L1187.52 439.789C1185.07 445.949 1189.37 451.091 1200.28 455.44C1210.42 459.479 1217.47 459.702 1220.11 453.058C1222.8 446.316 1216.43 442.989 1208.94 438.937Z" fill="black"/>
</g>
<rect x="518.877" y="1.08361" width="1052.35" height="334.469" rx="167.235" transform="rotate(24.9273 518.877 1.08361)" stroke="black" stroke-width="1.63156"/>
<g clip-path="url(#clip1_1_2)">
<rect x="613.465" y="966.601" width="1044.2" height="336.101" rx="168.05" transform="rotate(-36.1974 613.465 966.601)" fill="#6597B3"/>
<path d="M1035.7 866.518L1015.7 883.047L1038.98 911.219L1048.52 903.337L1041.27 894.564L1050.61 886.848C1058.37 880.429 1061.11 873.495 1055.26 866.411C1050.5 860.656 1043.47 860.099 1035.7 866.518ZM1044.16 881.339L1035.95 888.124L1030.63 881.685L1038.84 874.9C1041.65 872.572 1043.73 872.213 1045.56 874.426C1047.35 876.6 1047.14 878.878 1044.16 881.339ZM1066.78 851.202C1059.81 856.956 1057.04 862.366 1060.6 868.23L1068.61 861.611C1067.79 860.05 1067.77 858.713 1070.87 856.152C1074.61 853.059 1076.04 854.048 1077.73 856.101L1077.97 856.382C1062.69 867.65 1063.11 873.401 1067.1 878.23C1070.59 882.456 1075.81 881.803 1081.89 876.781C1085.55 873.754 1087.05 870.003 1087.18 867.531L1089.07 869.825L1097.85 862.574L1086.51 848.85C1080.55 841.646 1073.7 845.482 1066.78 851.202ZM1084.02 863.707C1083.98 866.04 1082.69 868.662 1080.44 870.524C1078.47 872.154 1076.8 872.588 1075.47 870.978C1073.34 868.403 1076.44 865.434 1081.99 861.252L1084.02 863.707ZM1100.58 824.218L1106.14 841.026L1090.4 832.632L1081.34 840.115L1109.1 852.804L1111.1 862.933L1120 855.583L1109.59 816.768L1100.58 824.218ZM1141.25 789.659C1137.27 792.952 1136.41 796.913 1136.31 799.091C1133.26 798.023 1129.98 798.972 1126.28 802.031C1122.29 805.324 1121.94 809.073 1122.14 810.798L1119.98 808.182L1111.21 815.433L1128.94 836.884L1137.71 829.634L1127.97 817.841C1125.97 815.427 1124.88 813.283 1127.81 810.855C1130.75 808.427 1132.56 810.046 1134.53 812.42L1144.27 824.213L1153.04 816.962L1143.3 805.17C1141.3 802.755 1140.25 800.578 1143.19 798.151C1146.13 795.723 1147.9 797.374 1149.86 799.749L1159.6 811.541L1168.38 804.291L1156.97 790.486C1152.45 785.013 1147.17 784.771 1141.25 789.659ZM1166.23 769.021C1159.59 774.508 1155.08 783.313 1161.93 791.604C1168.78 799.895 1178.24 797.16 1185.12 791.473C1190.95 786.65 1194.76 780.188 1191.27 773.182L1183.46 779.634C1183.64 781.319 1183.47 783.825 1180.7 786.12C1177.15 789.047 1174.16 788.54 1171.81 786.758L1190.36 771.426C1182.72 760.946 1172.3 763.999 1166.23 769.021ZM1168.28 782.158C1167.25 779.687 1167.59 776.901 1170.65 774.373C1173.35 772.145 1175.99 772.062 1178.46 773.744L1168.28 782.158ZM1198.14 742.646C1194 746.071 1193.26 750.34 1193.34 752.165L1191.08 749.429L1182.31 756.679L1200.04 778.13L1208.81 770.88L1199.06 759.088C1197.07 756.673 1196.66 753.964 1199.68 751.47C1202.7 748.975 1205.19 750.028 1207.15 752.403L1216.9 764.195L1225.67 756.945L1214.26 743.14C1209.74 737.667 1204.06 737.757 1198.14 742.646ZM1232.69 723.374L1228.6 718.423L1222.32 723.612L1217.73 718.058L1208.96 725.308L1213.55 730.862L1209.57 734.154L1213.66 739.105L1217.64 735.812L1224.19 743.741C1229.48 750.14 1233.51 751.079 1241.6 744.394C1243.25 743.03 1245.04 741.347 1246.36 739.915L1241.44 733.958C1237.43 737.879 1235.46 739.509 1232.97 736.49L1226.41 728.562L1232.69 723.374ZM1268.6 712.873C1264.53 716.232 1260.77 714.799 1258.38 711.901C1255.98 709.004 1255.29 705.043 1259.35 701.684C1262.49 699.09 1265.48 699.263 1267.74 700.85L1275.87 694.132C1269.16 688.228 1260.7 690.947 1254.63 695.969C1248.03 701.424 1243.12 710.562 1249.97 718.852C1256.82 727.143 1266.72 724.042 1273.32 718.588C1279.4 713.566 1283.66 705.775 1279.09 698.036L1270.96 704.754C1272.09 707.272 1271.73 710.279 1268.6 712.873ZM1283.4 672.194C1276.76 677.682 1271.85 686.82 1278.7 695.11C1285.55 703.401 1295.45 700.3 1302.09 694.813C1308.69 689.358 1313.6 680.22 1306.75 671.93C1299.9 663.639 1290 666.74 1283.4 672.194ZM1297.37 689.098C1293.26 692.49 1289.5 691.057 1287.11 688.16C1284.71 685.262 1284.02 681.302 1288.12 677.909C1292.19 674.55 1295.94 675.983 1298.34 678.881C1300.73 681.778 1301.43 685.739 1297.37 689.098ZM1293.48 650.928L1318.02 680.63L1326.8 673.379L1302.25 643.678L1293.48 650.928ZM1305.47 641.022L1330.01 670.724L1338.78 663.473L1314.24 633.772L1305.47 641.022ZM1336.64 628.194C1330 633.681 1325.5 642.487 1332.35 650.777C1339.2 659.068 1348.65 656.333 1355.54 650.646C1361.37 645.823 1365.18 639.361 1361.69 632.355L1353.88 638.807C1354.05 640.492 1353.89 642.998 1351.11 645.293C1347.57 648.22 1344.58 647.713 1342.23 645.931L1360.78 630.6C1353.14 620.12 1342.72 623.172 1336.64 628.194ZM1338.7 641.331C1337.67 638.86 1338.01 636.074 1341.07 633.546C1343.76 631.318 1346.4 631.235 1348.88 632.917L1338.7 641.331ZM1379.43 621.283C1375.37 624.642 1371.61 623.21 1369.21 620.312C1366.82 617.414 1366.12 613.454 1370.18 610.095C1373.32 607.501 1376.31 607.673 1378.57 609.26L1386.7 602.542C1379.99 596.639 1371.54 599.358 1365.46 604.38C1358.86 609.834 1353.95 618.972 1360.8 627.263C1367.65 635.554 1377.55 632.453 1384.15 626.998C1390.23 621.976 1394.49 614.186 1389.93 606.446L1381.8 613.164C1382.93 615.682 1382.57 618.689 1379.43 621.283ZM1403.39 582.319L1399.3 577.369L1393.02 582.557L1388.43 577.003L1379.65 584.253L1384.24 589.807L1380.26 593.1L1384.35 598.05L1388.33 594.758L1394.89 602.686C1400.17 609.085 1404.2 610.025 1412.29 603.34C1413.94 601.976 1415.73 600.292 1417.06 598.861L1412.13 592.904C1408.13 596.825 1406.15 598.455 1403.66 595.436L1397.11 587.508L1403.39 582.319ZM1405.19 569.791C1407.84 567.596 1408.5 564.544 1406.31 561.888C1404.11 559.232 1400.96 559.265 1398.3 561.46C1395.65 563.655 1395.02 566.748 1397.21 569.404C1399.41 572.06 1402.53 571.986 1405.19 569.791ZM1419.86 596.478L1428.63 589.227L1410.9 567.776L1402.13 575.026L1419.86 596.478ZM1426.89 553.615C1420.25 559.103 1415.34 568.241 1422.19 576.531C1429.04 584.822 1438.94 581.721 1445.58 576.234C1452.18 570.779 1457.1 561.641 1450.24 553.351C1443.39 545.06 1433.49 548.161 1426.89 553.615ZM1440.86 570.519C1436.76 573.911 1433 572.478 1430.6 569.58C1428.21 566.683 1427.51 562.722 1431.62 559.33C1435.68 555.971 1439.44 557.404 1441.83 560.301C1444.23 563.199 1444.93 567.159 1440.86 570.519ZM1459.63 526.566C1455.48 529.992 1454.74 534.26 1454.83 536.086L1452.57 533.349L1443.79 540.599L1461.52 562.05L1470.29 554.8L1460.55 543.008C1458.55 540.593 1458.14 537.884 1461.16 535.39C1464.18 532.895 1466.67 533.949 1468.64 536.323L1478.38 548.115L1487.16 540.865L1475.75 527.061C1471.22 521.587 1465.54 521.677 1459.63 526.566ZM1492.94 513.053C1488.92 515.637 1486.6 517.419 1485.46 516.051C1484.57 514.964 1485.25 513.583 1488.15 511.189C1490.93 508.894 1492.92 508.601 1494.09 510.01L1502.82 502.793C1499.43 498.688 1493.42 498.636 1484.21 506.252C1476.12 512.937 1473.85 518.877 1477.74 523.586C1481.46 528.094 1485.67 526.38 1492.4 522.31C1498.26 518.751 1500.87 516.663 1502.23 518.313C1503.27 519.56 1502.22 521.167 1499.61 523.329C1496.63 525.79 1494.31 526.756 1492.58 524.663L1483.41 532.246C1487.63 537.358 1494.21 536.054 1503.26 528.571C1511.67 521.62 1515.25 515.545 1510.7 510.032C1506.08 504.437 1500.1 508.43 1492.94 513.053Z" fill="black"/>
</g>
<rect x="614.605" y="966.777" width="1042.56" height="334.469" rx="167.235" transform="rotate(-36.1974 614.605 966.777)" stroke="black" stroke-width="1.63156"/>
<g clip-path="url(#clip2_1_2)">
<rect x="506.507" y="376.036" width="1044.2" height="336.101" rx="168.05" transform="rotate(74.0323 506.507 376.036)" fill="#95C4D4"/>
<path d="M429.226 1059.4L417.618 1038.73L442.154 1024.95L436.095 1014.16L404.23 1032.06L421.897 1063.51L429.226 1059.4ZM452.57 1057.03C454.257 1060.04 457.143 1061.23 460.148 1059.54C463.152 1057.86 463.68 1054.74 461.993 1051.74C460.305 1048.74 457.374 1047.57 454.369 1049.25C451.365 1050.94 450.882 1054.03 452.57 1057.03ZM423.699 1066.72L429.273 1076.64L453.536 1063.02L447.962 1053.09L423.699 1066.72ZM466.501 1086.1L448.667 1088.57L460.032 1074.58L454.305 1064.39L436.383 1089.3L441.625 1098.63L472.254 1096.34L466.501 1086.1ZM481.05 1110.51C476.831 1103 468.968 1097 459.591 1102.26C450.214 1107.53 451.223 1117.32 455.595 1125.11C459.302 1131.71 464.985 1136.6 472.5 1134.41L467.54 1125.58C465.851 1125.45 463.414 1124.85 461.649 1121.71C459.399 1117.7 460.431 1114.85 462.602 1112.85L474.389 1133.83C486.061 1128.17 484.911 1117.38 481.05 1110.51ZM467.757 1110.19C470.371 1109.62 473.053 1110.45 474.996 1113.91C476.709 1116.96 476.32 1119.57 474.226 1121.71L467.757 1110.19ZM508.532 1160.93L506.074 1162.31C507.017 1159.09 506.383 1155.61 504.542 1152.33C500.323 1144.82 493.414 1141.16 485.175 1145.79C476.936 1150.41 476.925 1157.97 481.144 1165.48C482.985 1168.75 485.486 1171.18 488.639 1172.1L486.5 1173.31C482.358 1175.63 480.144 1172.86 478.252 1169.5C476.769 1166.86 475.926 1164.4 476.99 1163.2L471.774 1153.91C466.986 1156.9 466.854 1163.38 472.198 1172.9C476.621 1180.77 482.469 1188.62 492.074 1183.23L514.106 1170.86L508.532 1160.93ZM488.61 1164.7C486.232 1160.46 487.216 1157.1 490.493 1155.25C493.771 1153.41 497.157 1154.33 499.535 1158.56C502.066 1163.07 501.279 1166.14 497.729 1168.14C494.178 1170.13 491.141 1169.2 488.61 1164.7ZM524.337 1187.58C519.914 1179.7 515.084 1176.01 508.681 1178.47L513.769 1187.53C515.45 1187 516.769 1187.22 518.738 1190.72C521.116 1194.96 519.889 1196.18 517.568 1197.49L517.249 1197.67C508.878 1180.63 503.145 1180.02 497.683 1183.09C492.903 1185.77 492.618 1191.02 496.479 1197.9C498.806 1202.04 502.228 1204.19 504.64 1204.75L502.045 1206.21L507.619 1216.13L523.142 1207.41C531.29 1202.84 528.735 1195.41 524.337 1187.58ZM508.964 1202.32C506.675 1201.87 504.324 1200.14 502.892 1197.59C501.64 1195.36 501.51 1193.63 503.331 1192.61C506.244 1190.97 508.614 1194.55 511.741 1200.76L508.964 1202.32ZM543.261 1200.91L509.666 1219.78L515.24 1229.7L548.835 1210.83L543.261 1200.91ZM550.876 1214.47L517.282 1233.33L522.856 1243.26L556.45 1224.39L550.876 1214.47ZM557.953 1247.43C553.735 1239.92 545.872 1233.91 536.494 1239.18C527.117 1244.45 528.126 1254.24 532.498 1262.02C536.206 1268.63 541.888 1273.52 549.403 1271.33L544.443 1262.5C542.754 1262.37 540.317 1261.77 538.553 1258.62C536.303 1254.62 537.334 1251.76 539.505 1249.77L551.292 1270.75C562.965 1265.09 561.814 1254.3 557.953 1247.43ZM544.66 1247.11C547.274 1246.54 549.956 1247.37 551.899 1250.83C553.612 1253.88 553.224 1256.49 551.129 1258.63L544.66 1247.11ZM578.434 1283.89C575.468 1278.61 571.183 1277.49 569.078 1277.47L572.811 1275.37L567.237 1265.45L542.974 1279.08L548.548 1289L558.881 1283.2C562.66 1281.07 566.548 1280.75 569.411 1285.85C570.639 1288.03 570.967 1290 571.157 1291.51L571.617 1292.33L579.993 1287.63C579.806 1286.65 579.303 1285.44 578.434 1283.89ZM592.493 1310.42L574.964 1312.9L586.024 1298.9L580.272 1288.66L562.848 1313.71L552.524 1313.88L558.174 1323.94L598.22 1320.61L592.493 1310.42Z" fill="black"/>
</g>
<rect x="505.947" y="377.045" width="1042.56" height="334.469" rx="167.235" transform="rotate(74.0323 505.947 377.045)" stroke="black" stroke-width="1.63156"/>
<g clip-path="url(#clip3_1_2)">
<rect x="613.465" y="1557.16" width="1044.2" height="336.101" rx="168.05" transform="rotate(-53.4184 613.465 1557.16)" fill="#F88296"/>
<path d="M998.31 1243.86L1006.99 1233.76L991.123 1231.55C992.727 1226.8 991.872 1222.35 987.675 1218.74C982.013 1213.88 974.882 1215.05 968.314 1222.69L951.366 1242.41L979.081 1266.23L987.147 1256.84L978.159 1249.12L984.489 1241.75L998.31 1243.86ZM965.846 1238.54L973.571 1229.55C975.715 1227.05 977.652 1226.72 979.473 1228.29C981.255 1229.82 981.932 1231.91 979.55 1234.69L971.824 1243.67L965.846 1238.54ZM997.552 1200.93C991.936 1207.46 988.984 1216.9 997.141 1223.91C1005.3 1230.92 1014.15 1226.63 1019.97 1219.86C1024.91 1214.11 1027.56 1207.1 1022.94 1200.79L1016.34 1208.47C1016.79 1210.1 1017.06 1212.6 1014.71 1215.33C1011.71 1218.81 1008.68 1218.82 1006.06 1217.46L1021.75 1199.21C1012.44 1190.18 1002.69 1194.95 997.552 1200.93ZM1001.8 1213.53C1000.37 1211.27 1000.23 1208.46 1002.82 1205.45C1005.1 1202.8 1007.69 1202.27 1010.41 1203.51L1001.8 1213.53ZM1036.55 1155.55C1033.18 1159.47 1033.01 1163.52 1033.28 1165.68C1030.1 1165.15 1027.02 1166.64 1023.89 1170.28C1020.52 1174.2 1020.81 1177.95 1021.3 1179.62L1018.73 1177.41L1011.31 1186.04L1032.41 1204.18L1039.83 1195.55L1028.23 1185.58C1025.86 1183.53 1024.42 1181.61 1026.9 1178.72C1029.38 1175.83 1031.44 1177.11 1033.78 1179.12L1045.38 1189.09L1052.8 1180.46L1041.2 1170.49C1038.82 1168.45 1037.42 1166.48 1039.9 1163.59C1042.38 1160.7 1044.41 1162.03 1046.75 1164.04L1058.35 1174.01L1065.77 1165.38L1052.19 1153.7C1046.8 1149.08 1041.56 1149.73 1036.55 1155.55ZM1049.5 1138.41C1051.74 1135.8 1051.88 1132.68 1049.26 1130.43C1046.65 1128.18 1043.55 1128.75 1041.3 1131.37C1039.05 1133.98 1038.96 1137.13 1041.57 1139.38C1044.19 1141.63 1047.25 1141.02 1049.5 1138.41ZM1068.47 1162.23L1075.89 1153.59L1054.79 1135.46L1047.37 1144.09L1068.47 1162.23ZM1070.74 1115.78C1067.23 1119.86 1067.22 1124.19 1067.62 1125.98L1064.93 1123.66L1057.51 1132.29L1078.61 1150.43L1086.03 1141.8L1074.43 1131.83C1072.05 1129.79 1071.19 1127.19 1073.74 1124.22C1076.3 1121.25 1078.93 1121.86 1081.27 1123.87L1092.87 1133.84L1100.29 1125.21L1086.71 1113.54C1081.32 1108.91 1075.74 1109.96 1070.74 1115.78ZM1090.67 1080.33L1099.82 1088.19C1096.27 1088.24 1093.02 1089.86 1090.57 1092.71C1084.95 1099.24 1084.63 1107.63 1091.79 1113.79C1098.96 1119.95 1107.21 1118.37 1112.82 1111.83C1115.27 1108.98 1116.38 1105.53 1115.85 1101.98L1118.39 1104.16L1125.81 1095.52L1098.09 1071.7L1090.67 1080.33ZM1109.14 1104.74C1105.87 1108.54 1101.72 1108.01 1098.87 1105.56C1096.02 1103.11 1094.86 1099.08 1098.13 1095.28C1101.64 1091.2 1105.41 1091.7 1108.5 1094.35C1111.59 1097.01 1112.64 1100.67 1109.14 1104.74ZM1117.73 1061.11C1112.11 1067.64 1109.16 1077.09 1117.32 1084.1C1125.47 1091.11 1134.33 1086.81 1140.15 1080.04C1145.08 1074.3 1147.74 1067.29 1143.11 1060.97L1136.51 1068.65C1136.97 1070.28 1137.23 1072.78 1134.88 1075.51C1131.89 1079 1128.85 1079 1126.23 1077.65L1141.92 1059.39C1132.61 1050.36 1122.87 1055.13 1117.73 1061.11ZM1121.97 1073.71C1120.54 1071.45 1120.41 1068.65 1122.99 1065.64C1125.27 1062.98 1127.86 1062.46 1130.58 1063.69L1121.97 1073.71ZM1144.99 1029.4C1141.04 1033.99 1141.45 1038.4 1142.15 1040.38L1138.91 1037.59L1131.49 1046.22L1152.59 1064.36L1160.01 1055.73L1151.02 1048.01C1147.74 1045.18 1146.1 1041.64 1149.91 1037.21C1151.54 1035.3 1153.28 1034.32 1154.64 1033.63L1155.25 1032.91L1147.97 1026.65C1147.12 1027.16 1146.15 1028.05 1144.99 1029.4Z" fill="black"/>
</g>
<rect x="614.607" y="1556.99" width="1042.56" height="334.469" rx="167.235" transform="rotate(-53.4184 614.607 1556.99)" stroke="black" stroke-width="1.63156"/>
<g clip-path="url(#clip4_1_2)">
<rect x="389.983" y="56.9006" width="1037.67" height="336.101" rx="168.05" transform="rotate(46.1347 389.983 56.9006)" fill="#62AA70"/>
<path d="M388.592 453.034C382.023 450.478 380.54 445.363 382.888 439.33C385.217 433.345 389.767 430.578 396.336 433.134C401.834 435.274 403.428 438.807 402.813 443.554L414.637 448.155C417.178 436.875 409.486 429.288 399.365 425.349C388.272 421.032 376.266 421.795 371.211 434.786C366.137 447.825 374.469 456.502 385.562 460.819C395.683 464.757 406.48 464.365 412.232 454.335L400.409 449.733C397.653 453.647 394.09 455.174 388.592 453.034ZM435.407 448.731C426.989 445.455 420.912 445.667 417.526 451.633L427.209 455.401C428.174 453.928 429.331 453.257 433.078 454.715C437.603 456.476 437.435 458.204 436.469 460.685L436.337 461.026C419.053 453.179 414.235 456.347 411.963 462.185C409.975 467.294 413.088 471.531 420.435 474.39C424.863 476.113 428.872 475.6 431.092 474.503L430.013 477.277L440.619 481.404L447.076 464.813C450.465 456.103 443.776 451.987 435.407 448.731ZM432.891 469.881C430.836 470.986 427.919 471.14 425.194 470.079C422.81 469.152 421.615 467.902 422.373 465.956C423.585 462.842 427.688 464.103 434.046 466.913L432.891 469.881ZM458.489 447.013L444.516 482.921L455.123 487.048L469.096 451.14L458.489 447.013ZM484.886 467.986C476.858 464.862 466.972 465.216 463.071 475.239C459.171 485.262 466.168 492.187 474.488 495.425C481.543 498.17 489.04 498.342 493.458 491.882L484.019 488.209C482.632 489.182 480.364 490.26 477.006 488.954C472.725 487.287 471.709 484.427 472.118 481.505L494.548 490.233C499.974 478.451 492.233 470.845 484.886 467.986ZM474.414 476.18C476.072 474.08 478.67 473.018 482.368 474.457C485.628 475.725 486.987 477.991 486.724 480.97L474.414 476.18ZM523.471 483.001C518.46 481.051 514.372 482.485 512.82 483.45L514.108 480.142L503.501 476.014L493.409 501.947L504.016 506.075L509.563 491.819C510.699 488.9 512.865 487.221 516.514 488.641C520.164 490.061 520.46 492.754 519.343 495.625L513.795 509.881L524.402 514.008L530.897 497.32C533.472 490.703 530.624 485.785 523.471 483.001ZM563.531 490.019L559.157 501.258C557.933 497.925 555.331 495.399 551.828 494.036C543.799 490.912 535.775 493.392 532.348 502.198C528.921 511.005 533.158 518.256 541.186 521.38C544.69 522.744 548.315 522.642 551.489 520.964L550.277 524.078L560.884 528.205L574.138 494.147L563.531 490.019ZM546.649 515.551C541.978 513.733 541.105 509.64 542.469 506.137C543.832 502.633 547.241 500.207 551.912 502.024C556.924 503.975 557.715 507.7 556.238 511.495C554.761 515.29 551.66 517.501 546.649 515.551ZM589.498 508.696C581.081 505.42 575.004 505.632 571.618 511.598L581.3 515.366C582.266 513.892 583.423 513.222 587.169 514.68C591.694 516.441 591.526 518.169 590.561 520.65L590.428 520.991C573.145 513.144 568.327 516.311 566.055 522.15C564.067 527.259 567.18 531.496 574.527 534.355C578.955 536.078 582.964 535.565 585.183 534.468L584.104 537.241L594.711 541.369L601.168 524.778C604.557 516.068 597.867 511.952 589.498 508.696ZM586.982 529.846C584.927 530.951 582.01 531.104 579.286 530.044C576.902 529.116 575.707 527.867 576.464 525.921C577.676 522.807 581.78 524.068 588.137 526.878L586.982 529.846ZM629.059 524.091C623.415 521.894 619.389 523.745 617.753 525.069L619.306 521.08L608.699 516.952L598.607 542.885L609.214 547.013L613.512 535.968C615.084 531.93 617.88 529.208 623.329 531.329C625.664 532.238 627.17 533.552 628.275 534.598L629.151 534.939L632.635 525.987C631.873 525.354 630.713 524.734 629.059 524.091ZM654.15 532.398C657.361 533.648 660.349 532.738 661.598 529.526C662.848 526.315 661.281 523.576 658.069 522.327C654.858 521.077 651.852 522.036 650.602 525.247C649.353 528.458 650.939 531.149 654.15 532.398ZM637.997 558.214L648.604 562.342L658.696 536.408L648.089 532.281L637.997 558.214ZM682.552 544.908C677.54 542.957 673.453 544.392 671.901 545.357L673.188 542.048L662.581 537.92L652.489 563.854L663.096 567.981L668.644 553.725C669.78 550.806 671.946 549.128 675.595 550.548C679.244 551.968 679.541 554.66 678.424 557.531L672.876 571.787L683.483 575.915L689.977 559.226C692.552 552.609 689.704 547.691 682.552 544.908ZM717.77 559.397L705.561 572.63L705.46 554.606L694.561 550.365L696.535 580.994L706.51 584.876L728.717 563.657L717.77 559.397ZM737.206 564.72C740.418 565.969 743.405 565.059 744.655 561.848C745.904 558.637 744.337 555.898 741.126 554.648C737.915 553.398 734.908 554.357 733.659 557.569C732.409 560.78 733.995 563.47 737.206 564.72ZM721.054 590.536L731.661 594.663L741.753 568.73L731.146 564.602L721.054 590.536ZM764.875 584.619L767.204 578.634L759.613 575.68L762.226 568.966L751.619 564.838L749.006 571.553L744.189 569.678L741.861 575.663L746.677 577.537L742.947 587.122C739.937 594.859 741.079 598.833 750.859 602.639C752.854 603.415 755.198 604.159 757.093 604.616L759.895 597.415C754.518 595.827 752.134 594.899 753.554 591.25L757.284 581.665L764.875 584.619ZM785.942 585.142C777.914 582.018 768.027 582.372 764.127 592.395C760.226 602.418 767.224 609.343 775.544 612.581C782.599 615.326 790.095 615.498 794.514 609.038L785.075 605.365C783.688 606.338 781.419 607.416 778.062 606.11C773.78 604.443 772.765 601.583 773.174 598.661L795.604 607.39C801.029 595.607 793.289 588.001 785.942 585.142ZM775.47 593.336C777.128 591.236 779.726 590.174 783.423 591.613C786.683 592.882 788.043 595.147 787.78 598.126L775.47 593.336ZM817.213 608.908C812.994 606.65 810.307 605.492 810.951 603.838C811.462 602.524 813.003 602.451 816.506 603.815C819.863 605.121 821.09 606.719 820.428 608.422L830.986 612.531C832.917 607.568 830.037 602.301 818.894 597.965C809.115 594.16 802.821 595.072 800.606 600.765C798.485 606.214 802.031 609.051 808.864 612.942C814.83 616.328 817.925 617.589 817.149 619.583C816.562 621.092 814.65 620.964 811.488 619.733C807.887 618.332 805.914 616.78 806.899 614.25L795.805 609.933C793.401 616.112 797.744 621.22 808.691 625.48C818.86 629.437 825.91 629.604 828.504 622.938C831.136 616.175 824.736 612.9 817.213 608.908Z" fill="black"/>
</g>
<rect x="389.961" y="58.054" width="1036.04" height="334.469" rx="167.235" transform="rotate(46.1347 389.961 58.054)" stroke="black" stroke-width="1.63156"/>
<g clip-path="url(#clip5_1_2)">
<rect x="1562.72" y="1522.54" width="1037.67" height="336.101" rx="168.05" transform="rotate(164.709 1562.72 1522.54)" fill="#62AA70"/>
<path d="M637.072 1683.21C630.861 1686.54 626.009 1684.35 622.948 1678.64C619.911 1672.98 620.764 1667.73 626.974 1664.39C632.173 1661.6 635.895 1662.69 639.104 1666.24L650.283 1660.24C643.358 1650.98 632.593 1651.9 623.024 1657.03C612.535 1662.66 605.315 1672.28 611.907 1684.57C618.524 1696.9 630.533 1696.2 641.022 1690.57C650.591 1685.44 657.307 1676.97 653.418 1666.08L642.239 1672.08C643.425 1676.72 642.27 1680.42 637.072 1683.21ZM669.804 1642.65L677.062 1656.18C678.519 1658.89 678.388 1661.63 674.938 1663.48C671.487 1665.33 669.272 1663.86 667.816 1661.14L660.557 1647.62L650.528 1653L659.021 1668.82C662.379 1675.08 667.968 1676.11 674.776 1672.46C679.469 1669.94 681.009 1665.85 681.309 1664.09L682.963 1667.17L693.038 1661.77L679.879 1637.25L669.804 1642.65ZM704.185 1635.64C699.727 1637.38 697.101 1638.67 696.262 1637.11C695.595 1635.86 696.541 1634.64 699.853 1632.87C703.028 1631.16 705.039 1631.27 705.904 1632.88L715.886 1627.52C713.368 1622.83 707.493 1621.6 696.958 1627.25C687.711 1632.21 684.316 1637.59 687.205 1642.97C689.97 1648.13 694.43 1647.27 701.828 1644.61C708.277 1642.27 711.246 1640.74 712.258 1642.62C713.024 1644.05 711.685 1645.42 708.695 1647.02C705.291 1648.85 702.829 1649.34 701.545 1646.95L691.056 1652.58C694.192 1658.42 700.896 1658.44 711.247 1652.88C720.862 1647.72 725.569 1642.47 722.186 1636.17C718.755 1629.77 712.106 1632.51 704.185 1635.64ZM738.424 1613.12L735.387 1607.46L728.21 1611.31L724.803 1604.96L714.774 1610.34L718.181 1616.69L713.627 1619.14L716.664 1624.79L721.218 1622.35L726.082 1631.41C730.007 1638.73 733.771 1640.44 743.018 1635.48C744.904 1634.47 746.992 1633.17 748.571 1632.02L744.917 1625.22C740.216 1628.27 737.962 1629.48 736.111 1626.03L731.247 1616.97L738.424 1613.12ZM752.968 1597.19C745.377 1601.27 738.764 1609.26 743.85 1618.74C748.936 1628.21 759.252 1627.12 766.842 1623.05C774.387 1619 781 1611.01 775.914 1601.53C770.828 1592.05 760.512 1593.14 752.968 1597.19ZM763.337 1616.51C758.644 1619.03 755.242 1616.89 753.465 1613.58C751.687 1610.26 751.781 1606.24 756.473 1603.73C761.12 1601.23 764.522 1603.38 766.3 1606.69C768.077 1610 767.983 1614.02 763.337 1616.51ZM806.622 1568.4C802.068 1570.84 800.446 1574.56 799.924 1576.67C797.143 1575.03 793.741 1575.31 789.509 1577.58C784.954 1580.03 783.867 1583.63 783.73 1585.36L782.126 1582.37L772.097 1587.76L785.256 1612.28L795.285 1606.89L788.051 1593.42C786.569 1590.66 785.919 1588.34 789.277 1586.54C792.635 1584.73 794.093 1586.68 795.549 1589.39L802.783 1602.87L812.812 1597.49L805.578 1584.01C804.097 1581.25 803.492 1578.91 806.85 1577.11C810.209 1575.3 811.62 1577.27 813.077 1579.99L820.311 1593.46L830.339 1588.08L821.871 1572.3C818.514 1566.05 813.384 1564.77 806.622 1568.4ZM850.801 1544.69C847.489 1546.47 845.211 1549.29 844.4 1552.75L842.82 1549.8L832.791 1555.18L850.073 1587.39L860.102 1582L854.399 1571.38C857.753 1572.66 861.364 1572.32 864.676 1570.54C872.266 1566.47 875.64 1558.73 871.171 1550.41C866.703 1542.08 858.392 1540.62 850.801 1544.69ZM858.594 1565.39C853.856 1567.94 850.463 1566.14 848.538 1562.55C846.612 1558.97 846.992 1555.15 851.731 1552.6C856.147 1550.23 859.779 1552.26 861.557 1555.57C863.334 1558.88 863.01 1563.02 858.594 1565.39ZM880.575 1528.71C872.616 1532.98 868.83 1537.74 871.165 1544.19L880.32 1539.28C879.827 1537.59 880.069 1536.27 883.612 1534.37C887.89 1532.07 889.094 1533.32 890.353 1535.67L890.526 1535.99C873.333 1544.03 872.611 1549.75 875.573 1555.27C878.166 1560.1 883.409 1560.49 890.356 1556.76C894.542 1554.52 896.757 1551.13 897.365 1548.73L898.772 1551.36L908.801 1545.97L900.382 1530.29C895.963 1522.05 888.488 1524.46 880.575 1528.71ZM895.019 1544.36C894.525 1546.64 892.746 1548.96 890.17 1550.34C887.916 1551.55 886.19 1551.65 885.203 1549.81C883.623 1546.87 887.247 1544.57 893.513 1541.56L895.019 1544.36ZM917.98 1508.64C912.643 1511.5 911.435 1515.76 911.379 1517.87L909.355 1514.1L899.326 1519.48L912.485 1544L922.514 1538.62L916.909 1528.17C914.86 1524.35 914.607 1520.46 919.76 1517.7C921.968 1516.51 923.945 1516.22 925.459 1516.06L926.287 1515.62L921.744 1507.15C920.768 1507.32 919.544 1507.8 917.98 1508.64ZM948.495 1500.38L945.459 1494.72L938.282 1498.57L934.875 1492.22L924.846 1497.6L928.253 1503.95L923.699 1506.4L926.735 1512.06L931.29 1509.61L936.153 1518.67C940.079 1525.99 943.842 1527.7 953.089 1522.74C954.975 1521.73 957.063 1520.43 958.642 1519.29L954.988 1512.48C950.288 1515.53 948.034 1516.74 946.182 1513.29L941.319 1504.23L948.495 1500.38ZM968.849 1482.17L970.992 1499.74L957.21 1488.41L946.859 1493.97L971.576 1511.87L971.547 1522.2L981.714 1516.74L979.153 1476.64L968.849 1482.17ZM1011.41 1458.5C1008.1 1460.27 1005.82 1463.1 1005.01 1466.55L1003.43 1463.61L993.4 1468.99L1010.68 1501.19L1020.71 1495.81L1015.01 1485.19C1018.36 1486.47 1021.97 1486.13 1025.28 1484.35C1032.88 1480.28 1036.25 1472.54 1031.78 1464.21C1027.31 1455.89 1019 1454.42 1011.41 1458.5ZM1019.2 1479.2C1014.46 1481.74 1011.07 1479.95 1009.15 1476.36C1007.22 1472.77 1007.6 1468.95 1012.34 1466.41C1016.76 1464.04 1020.39 1466.06 1022.17 1469.37C1023.94 1472.69 1023.62 1476.83 1019.2 1479.2ZM1041.18 1442.52C1033.23 1446.79 1029.44 1451.55 1031.77 1458L1040.93 1453.08C1040.44 1451.39 1040.68 1450.08 1044.22 1448.18C1048.5 1445.88 1049.7 1447.13 1050.96 1449.48L1051.13 1449.8C1033.94 1457.84 1033.22 1463.56 1036.18 1469.08C1038.77 1473.91 1044.02 1474.3 1050.96 1470.57C1055.15 1468.32 1057.37 1464.94 1057.97 1462.54L1059.38 1465.16L1069.41 1459.78L1060.99 1444.09C1056.57 1435.86 1049.1 1438.27 1041.18 1442.52ZM1055.63 1458.17C1055.13 1460.45 1053.36 1462.77 1050.78 1464.15C1048.52 1465.36 1046.8 1465.46 1045.81 1463.62C1044.23 1460.67 1047.86 1458.37 1054.12 1455.37L1055.63 1458.17ZM1080.73 1422.13L1082.06 1424.61C1078.86 1423.6 1075.37 1424.17 1072.06 1425.95C1064.47 1430.02 1060.67 1436.86 1065.14 1445.19C1069.61 1453.51 1077.16 1453.67 1084.75 1449.6C1088.06 1447.82 1090.53 1445.36 1091.52 1442.23L1092.68 1444.39C1094.92 1448.58 1092.11 1450.74 1088.71 1452.57C1086.04 1454 1083.56 1454.79 1082.39 1453.71L1073 1458.74C1075.9 1463.59 1082.38 1463.84 1091.99 1458.68C1099.95 1454.41 1107.92 1448.72 1102.71 1439.01L1090.76 1416.74L1080.73 1422.13ZM1084.11 1442.12C1079.83 1444.41 1076.48 1443.36 1074.71 1440.05C1072.93 1436.74 1073.91 1433.37 1078.18 1431.08C1082.74 1428.63 1085.8 1429.48 1087.72 1433.07C1089.65 1436.65 1088.66 1439.67 1084.11 1442.12ZM1108.77 1406.25C1101.18 1410.32 1095.02 1418.07 1100.11 1427.55C1105.19 1437.02 1115.01 1436.2 1122.87 1431.98C1129.54 1428.4 1134.54 1422.81 1132.5 1415.26L1123.58 1420.05C1123.42 1421.73 1122.76 1424.16 1119.59 1425.86C1115.54 1428.03 1112.71 1426.95 1110.75 1424.74L1131.96 1413.36C1126.52 1401.58 1115.71 1402.52 1108.77 1406.25ZM1108.19 1419.53C1107.67 1416.91 1108.55 1414.24 1112.05 1412.37C1115.13 1410.71 1117.74 1411.15 1119.83 1413.29L1108.19 1419.53ZM1147.15 1397.92C1142.69 1399.66 1140.07 1400.95 1139.23 1399.38C1138.56 1398.14 1139.51 1396.92 1142.82 1395.14C1145.99 1393.44 1148 1393.55 1148.87 1395.16L1158.85 1389.8C1156.33 1385.11 1150.46 1383.87 1139.92 1389.53C1130.68 1394.49 1127.28 1399.87 1130.17 1405.25C1132.94 1410.4 1137.4 1409.55 1144.79 1406.88C1151.24 1404.55 1154.21 1403.01 1155.22 1404.9C1155.99 1406.33 1154.65 1407.7 1151.66 1409.3C1148.26 1411.13 1145.79 1411.62 1144.51 1409.23L1134.02 1414.86C1137.16 1420.7 1143.86 1420.72 1154.21 1415.16C1163.83 1410 1168.53 1404.75 1165.15 1398.45C1161.72 1392.05 1155.07 1394.79 1147.15 1397.92Z" fill="black"/>
</g>
<rect x="1561.72" y="1521.97" width="1036.04" height="334.469" rx="167.235" transform="rotate(164.709 1561.72 1521.97)" stroke="black" stroke-width="1.63156"/>
<rect x="54.3573" y="530.338" width="1032.78" height="331.206" rx="165.603" transform="rotate(9.28185 54.3573 530.338)" fill="#E8A237"/>
<path d="M406.238 754.476L419.073 758.014L414.298 742.725C419.277 742.148 422.938 739.475 424.409 734.139C426.393 726.942 422.293 720.991 412.579 718.314L387.514 711.404L377.801 746.636L389.729 749.925L392.879 738.499L402.241 741.08L406.238 754.476ZM397.194 722.846L408.62 725.996C411.791 726.87 412.917 728.48 412.279 730.795C411.655 733.06 410.048 734.567 406.525 733.596L395.099 730.446L397.194 722.846ZM449.743 742.802C443.87 740.533 439.547 739.125 440.213 736.709C440.768 734.695 443.478 734.685 448.31 736.017C452.891 737.279 455.418 739.113 454.752 741.529L466.882 744.873C468.561 738.783 465.616 732.176 450.668 728.055C436.977 724.281 430.152 726.841 428.182 733.988C426.239 741.034 429.44 744.354 439.803 748.998C449.49 753.347 452.954 754.14 452.302 756.505C451.761 758.468 448.748 758.396 444.017 757.092C439.084 755.732 435.307 753.716 436.209 750.444L423.727 747.003C421.687 754.402 426.258 760.807 441.156 764.914C454.998 768.73 463.153 767.241 465.484 758.785C467.94 749.877 460.447 746.999 449.743 742.802ZM504.545 743.666L486.503 767.071L483.002 737.728L470.621 734.314L477.165 774.029L490.956 777.83L516.977 747.094L504.545 743.666ZM544.503 754.682L519.488 747.786L509.775 783.019L521.704 786.307L524.729 775.335L536.406 778.554C546.12 781.232 553.369 779.493 555.811 770.635C557.795 763.437 554.217 757.36 544.503 754.682ZM537.217 770.112L526.949 767.281L529.169 759.228L539.437 762.059C542.96 763.03 544.444 764.522 543.681 767.291C542.932 770.009 540.941 771.139 537.217 770.112ZM589.498 797.143C582.703 795.27 580.706 790.333 582.427 784.092C584.134 777.901 588.378 774.684 595.173 776.557C600.861 778.125 602.807 781.478 602.679 786.263L614.91 789.635C616.288 778.154 607.862 771.39 597.393 768.504C585.917 765.341 574.052 767.323 570.347 780.762C566.629 794.251 575.802 802.033 587.278 805.197C597.747 808.083 608.448 806.592 613.148 796.027L600.917 792.655C598.575 796.829 595.185 798.711 589.498 797.143ZM636.838 788.423C628.533 786.133 618.232 787.355 615.373 797.724C612.515 808.092 620.735 814.42 629.04 816.709C637.295 818.985 647.597 817.763 650.455 807.395C653.313 797.026 645.093 790.698 636.838 788.423ZM631.011 809.562C625.877 808.147 624.894 804.247 625.893 800.624C626.892 797 629.734 794.155 634.868 795.57C639.952 796.971 640.934 800.871 639.935 804.495C638.936 808.119 636.094 810.964 631.011 809.562ZM660.039 784.475L649.799 821.62L660.772 824.645L671.012 787.5L660.039 784.475ZM675.031 788.608L664.791 825.753L675.763 828.778L686.003 791.632L675.031 788.608ZM703.428 806.78C695.123 804.491 685.325 805.851 682.467 816.22C679.608 826.588 687.275 832.763 695.882 835.136C703.18 837.148 710.655 836.555 714.392 829.678L704.627 826.986C703.347 828.096 701.2 829.399 697.727 828.442C693.298 827.221 691.996 824.479 692.105 821.53L715.308 827.927C719.504 815.653 711.028 808.875 703.428 806.78ZM693.846 815.999C695.281 813.741 697.758 812.42 701.583 813.474C704.955 814.404 706.538 816.519 706.58 819.509L693.846 815.999ZM733.64 837.855C728.556 836.453 727.573 832.554 728.572 828.93C729.572 825.306 732.414 822.461 737.497 823.862C741.423 824.945 742.996 827.49 742.993 830.252L753.16 833.055C754.146 824.174 747.068 818.81 739.468 816.715C731.213 814.44 720.911 815.662 718.053 826.03C715.195 836.398 723.415 842.726 731.67 845.002C739.27 847.097 748.096 846.119 751.814 837.937L741.647 835.134C740.235 837.507 737.566 838.937 733.64 837.855ZM779.297 835.115L781.004 828.924L773.152 826.76L775.067 819.814L764.094 816.789L762.18 823.735L757.197 822.361L755.49 828.552L760.473 829.926L757.74 839.841C755.533 847.844 757.075 851.681 767.192 854.47C769.256 855.039 771.663 855.54 773.594 855.802L775.648 848.352C770.138 847.321 767.671 846.641 768.712 842.866L771.445 832.95L779.297 835.115ZM790.59 829.401C793.912 830.316 796.791 829.106 797.707 825.784C798.623 822.462 796.785 819.898 793.463 818.982C790.141 818.066 787.248 819.327 786.332 822.648C785.416 825.97 787.269 828.485 790.59 829.401ZM777.154 856.729L788.126 859.753L795.522 832.926L784.549 829.901L777.154 856.729ZM816.294 837.895C807.989 835.605 797.688 836.827 794.829 847.195C791.971 857.564 800.191 863.892 808.496 866.181C816.751 868.457 827.053 867.235 829.911 856.867C832.769 846.498 824.549 840.17 816.294 837.895ZM810.467 859.034C805.333 857.619 804.35 853.719 805.349 850.095C806.348 846.472 809.19 843.627 814.324 845.042C819.408 846.443 820.391 850.343 819.391 853.967C818.392 857.591 815.55 860.436 810.467 859.034ZM857.23 849.18C852.046 847.75 848.125 849.594 846.68 850.712L847.623 847.29L836.651 844.265L829.255 871.092L840.228 874.117L844.293 859.369C845.126 856.349 847.109 854.459 850.884 855.5C854.659 856.54 855.229 859.189 854.41 862.158L850.345 876.906L861.317 879.93L866.076 862.666C867.963 855.821 864.629 851.219 857.23 849.18ZM887.416 868.712C882.988 866.895 880.197 866.018 880.669 864.306C881.044 862.947 882.569 862.718 886.193 863.717C889.666 864.675 891.049 866.139 890.564 867.901L901.486 870.912C902.901 865.778 899.499 860.832 887.973 857.655C877.856 854.866 871.688 856.415 870.065 862.304C868.511 867.941 872.327 870.401 879.522 873.576C885.801 876.336 889.009 877.274 888.44 879.338C888.01 880.898 886.095 880.966 882.824 880.065C879.099 879.038 876.978 877.695 877.7 875.078L866.224 871.914C864.462 878.306 869.303 882.944 880.628 886.066C891.147 888.966 898.177 888.413 900.078 881.518C902.007 874.521 895.306 871.916 887.416 868.712Z" fill="black"/>
<rect x="54.3573" y="530.338" width="1032.78" height="331.206" rx="165.603" transform="rotate(9.28185 54.3573 530.338)" stroke="black" stroke-width="1.63156"/>
<g clip-path="url(#clip6_1_2)">
<rect x="1076.83" y="1580.01" width="1044.2" height="332.837" rx="166.419" transform="rotate(-67.6513 1076.83 1580.01)" fill="#BAA2F2"/>
<path d="M1291.01 1379.89L1310.42 1396.42L1285.32 1392.04L1280.69 1401.93L1300.12 1418.41L1275 1414.08L1269.55 1425.71L1307.7 1430.43L1313.56 1417.9L1296.2 1403.14L1318.63 1407.07L1324.5 1394.54L1296.47 1368.21L1291.01 1379.89ZM1309.79 1358.62C1305.96 1366.8 1305.76 1372.88 1311.49 1376.66L1315.89 1367.25C1314.49 1366.18 1313.9 1364.99 1315.6 1361.34C1317.66 1356.95 1319.37 1357.23 1321.79 1358.36L1322.12 1358.51C1313.13 1375.24 1315.97 1380.25 1321.65 1382.91C1326.61 1385.24 1331.05 1382.41 1334.39 1375.27C1336.4 1370.97 1336.16 1366.94 1335.21 1364.65L1337.91 1365.91L1342.74 1355.6L1326.61 1348.05C1318.15 1344.09 1313.6 1350.49 1309.79 1358.62ZM1330.72 1362.54C1331.69 1364.67 1331.65 1367.59 1330.41 1370.24C1329.32 1372.55 1327.99 1373.66 1326.1 1372.78C1323.08 1371.36 1324.61 1367.35 1327.84 1361.19L1330.72 1362.54ZM1319.83 1333.98C1321.29 1330.85 1320.58 1327.81 1317.46 1326.35C1314.34 1324.89 1311.5 1326.27 1310.04 1329.39C1308.58 1332.51 1309.34 1335.58 1312.46 1337.04C1315.58 1338.5 1318.37 1337.1 1319.83 1333.98ZM1344.51 1351.82L1349.34 1341.51L1324.13 1329.71L1319.31 1340.01L1344.51 1351.82ZM1341.53 1307.7L1335.72 1304.97L1332.26 1312.35L1325.74 1309.29L1320.91 1319.6L1327.43 1322.66L1325.24 1327.34L1331.06 1330.06L1333.25 1325.38L1342.57 1329.74C1350.08 1333.26 1354.12 1332.39 1358.58 1322.89C1359.48 1320.95 1360.38 1318.66 1360.96 1316.8L1353.97 1313.52C1352.02 1318.78 1350.94 1321.1 1347.39 1319.44L1338.08 1315.07L1341.53 1307.7ZM1337.8 1295.6C1339.26 1292.48 1338.55 1289.44 1335.43 1287.98C1332.31 1286.52 1329.47 1287.9 1328.01 1291.02C1326.55 1294.14 1327.3 1297.21 1330.43 1298.67C1333.55 1300.13 1336.34 1298.73 1337.8 1295.6ZM1362.48 1313.45L1367.3 1303.14L1342.1 1291.34L1337.28 1301.64L1362.48 1313.45ZM1352.18 1268.1C1349.9 1272.97 1351.05 1277.15 1351.91 1278.76L1348.7 1277.25L1343.87 1287.56L1369.07 1299.36L1373.9 1289.05L1360.04 1282.57C1357.21 1281.24 1355.68 1278.97 1357.34 1275.42C1359 1271.87 1361.71 1271.76 1364.5 1273.06L1378.35 1279.55L1383.18 1269.24L1366.96 1261.65C1360.53 1258.64 1355.43 1261.15 1352.18 1268.1ZM1369.75 1232.3L1372.3 1233.49C1369.13 1234.6 1366.67 1237.14 1365.08 1240.55C1361.43 1248.35 1362.47 1256.1 1371.02 1260.11C1379.58 1264.11 1385.73 1259.73 1389.38 1251.93C1390.98 1248.52 1391.5 1245.08 1390.41 1241.97L1392.63 1243.01C1396.94 1245.03 1395.97 1248.44 1394.33 1251.94C1393.05 1254.68 1391.54 1256.8 1389.95 1256.63L1385.43 1266.28C1390.65 1268.43 1396 1264.77 1400.62 1254.88C1404.45 1246.7 1407.44 1237.38 1397.46 1232.71L1374.58 1221.99L1369.75 1232.3ZM1384.4 1246.31C1382.34 1250.71 1379.03 1251.87 1375.63 1250.27C1372.23 1248.68 1371 1245.39 1373.06 1240.99C1375.25 1236.31 1378.21 1235.16 1381.9 1236.89C1385.58 1238.62 1386.6 1241.63 1384.4 1246.31ZM1390.58 1186.09C1388.01 1191.57 1389.59 1195.71 1390.8 1197.43L1386.93 1195.62L1382.1 1205.92L1407.3 1217.73L1412.13 1207.42L1401.39 1202.39C1397.47 1200.55 1394.94 1197.58 1397.42 1192.29C1398.48 1190.02 1399.9 1188.6 1401.01 1187.57L1401.41 1186.72L1392.71 1182.65C1392.03 1183.36 1391.33 1184.48 1390.58 1186.09ZM1400.68 1164.52C1397.03 1172.33 1396.5 1182.69 1406.24 1187.25C1415.98 1191.81 1423.6 1184.77 1427.25 1176.97C1430.88 1169.21 1431.41 1158.85 1421.67 1154.29C1411.93 1149.73 1404.31 1156.77 1400.68 1164.52ZM1420.54 1173.82C1418.28 1178.65 1414.27 1178.96 1410.87 1177.37C1407.46 1175.77 1405.13 1172.49 1407.39 1167.67C1409.63 1162.89 1413.64 1162.58 1417.04 1164.17C1420.45 1165.77 1422.77 1169.05 1420.54 1173.82ZM1417 1129.66C1413.35 1137.46 1412.82 1147.83 1422.56 1152.39C1432.3 1156.95 1439.92 1149.91 1443.58 1142.11C1447.21 1134.35 1447.74 1123.99 1438 1119.43C1428.26 1114.87 1420.64 1121.91 1417 1129.66ZM1436.86 1138.96C1434.6 1143.79 1430.59 1144.1 1427.19 1142.5C1423.79 1140.91 1421.46 1137.63 1423.72 1132.81C1425.95 1128.03 1429.96 1127.72 1433.37 1129.31C1436.77 1130.91 1439.1 1134.19 1436.86 1138.96ZM1442.83 1074.52C1440.64 1079.2 1441.55 1083.15 1442.4 1085.16C1439.19 1085.5 1436.63 1087.76 1434.59 1092.11C1432.4 1096.79 1433.68 1100.33 1434.61 1101.8L1431.53 1100.36L1426.71 1110.67L1451.91 1122.47L1456.73 1112.16L1442.88 1105.67C1440.04 1104.35 1438.14 1102.88 1439.75 1099.42C1441.37 1095.97 1443.7 1096.66 1446.49 1097.97L1460.34 1104.45L1465.17 1094.15L1451.32 1087.66C1448.48 1086.33 1446.6 1084.81 1448.21 1081.36C1449.83 1077.91 1452.14 1078.65 1454.93 1079.95L1468.78 1086.44L1473.61 1076.13L1457.39 1068.54C1450.96 1065.53 1446.08 1067.57 1442.83 1074.52ZM1466.93 1048.53C1464.4 1052.59 1463.06 1055.19 1461.45 1054.44C1460.18 1053.84 1460.21 1052.3 1461.8 1048.9C1463.33 1045.63 1465.01 1044.52 1466.66 1045.29L1471.47 1035.03C1466.64 1032.77 1461.2 1035.29 1456.13 1046.12C1451.67 1055.63 1452.16 1061.97 1457.7 1064.56C1462.99 1067.04 1466.06 1063.69 1470.4 1057.13C1474.18 1051.4 1475.64 1048.4 1477.58 1049.31C1479.04 1049.99 1478.79 1051.89 1477.35 1054.97C1475.71 1058.46 1474.03 1060.33 1471.57 1059.18L1466.52 1069.96C1472.53 1072.77 1477.92 1068.78 1482.9 1058.14C1487.52 1048.26 1488.16 1041.23 1481.68 1038.2C1475.11 1035.12 1471.42 1041.29 1466.93 1048.53ZM1477.6 1000.26C1473.77 1008.44 1473.57 1014.52 1479.3 1018.3L1483.71 1008.89C1482.3 1007.83 1481.71 1006.63 1483.42 1002.99C1485.47 998.59 1487.19 998.873 1489.6 1000L1489.93 1000.16C1480.95 1016.88 1483.78 1021.9 1489.46 1024.55C1494.42 1026.88 1498.86 1024.06 1502.2 1016.92C1504.22 1012.61 1503.97 1008.58 1503.03 1006.29L1505.72 1007.55L1510.55 997.245L1494.42 989.695C1485.96 985.731 1481.41 992.131 1477.6 1000.26ZM1498.53 1004.19C1499.5 1006.31 1499.46 1009.23 1498.22 1011.88C1497.13 1014.2 1495.81 1015.3 1493.92 1014.42C1490.89 1013 1492.42 1008.99 1495.65 1002.84L1498.53 1004.19ZM1495.42 962.198C1493.14 967.068 1494.3 971.242 1495.16 972.855L1491.95 971.35L1487.12 981.657L1512.32 993.459L1517.15 983.151L1503.29 976.664C1500.46 975.335 1498.93 973.062 1500.59 969.516C1502.25 965.97 1504.96 965.854 1507.74 967.16L1521.6 973.647L1526.43 963.34L1510.21 955.745C1503.78 952.734 1498.68 955.247 1495.42 962.198ZM1505.1 922.696L1516.02 927.811C1512.62 928.809 1509.92 931.238 1508.33 934.642C1504.68 942.444 1506.61 950.615 1515.17 954.623C1523.73 958.63 1531.25 954.887 1534.9 947.085C1536.5 943.681 1536.64 940.057 1535.17 936.778L1538.2 938.195L1543.03 927.888L1509.93 912.389L1505.1 922.696ZM1529.45 941.246C1527.32 945.785 1523.18 946.382 1519.78 944.788C1516.37 943.194 1514.18 939.63 1516.31 935.091C1518.59 930.221 1522.36 929.68 1526.04 931.407C1529.73 933.134 1531.73 936.376 1529.45 941.246ZM1386.88 1314.24C1383.05 1322.42 1382.86 1328.5 1388.58 1332.28L1392.99 1322.87C1391.59 1321.81 1390.99 1320.61 1392.7 1316.97C1394.76 1312.57 1396.47 1312.85 1398.88 1313.98L1399.21 1314.14C1390.23 1330.86 1393.07 1335.88 1398.74 1338.53C1403.71 1340.86 1408.14 1338.04 1411.48 1330.9C1413.5 1326.59 1413.26 1322.56 1412.31 1320.27L1415 1321.53L1419.83 1311.22L1403.71 1303.67C1395.24 1299.71 1390.69 1306.11 1386.88 1314.24ZM1407.82 1318.17C1408.78 1320.29 1408.74 1323.21 1407.5 1325.86C1406.42 1328.18 1405.09 1329.28 1403.2 1328.4C1400.17 1326.98 1401.71 1322.97 1404.93 1316.82L1407.82 1318.17ZM1404.58 1276.46C1402.98 1279.87 1402.84 1283.49 1404.26 1286.75L1401.23 1285.33L1396.4 1295.64L1429.5 1311.14L1434.33 1300.83L1423.41 1295.71C1426.86 1294.74 1429.55 1292.31 1431.15 1288.9C1434.8 1281.1 1432.89 1272.88 1424.33 1268.88C1415.77 1264.87 1408.23 1268.66 1404.58 1276.46ZM1423.19 1288.41C1420.91 1293.28 1417.12 1293.87 1413.43 1292.14C1409.75 1290.41 1407.77 1287.12 1410.05 1282.25C1412.18 1277.71 1416.3 1277.16 1419.7 1278.76C1423.1 1280.35 1425.32 1283.87 1423.19 1288.41ZM1421.2 1240.95C1419.61 1244.36 1419.47 1247.98 1420.88 1251.24L1417.86 1249.82L1413.03 1260.13L1446.13 1275.63L1450.96 1265.32L1440.03 1260.21C1443.49 1259.23 1446.18 1256.8 1447.78 1253.4C1451.43 1245.6 1449.51 1237.38 1440.96 1233.37C1432.4 1229.36 1424.86 1233.15 1421.2 1240.95ZM1439.82 1252.9C1437.54 1257.77 1433.75 1258.36 1430.06 1256.63C1426.37 1254.9 1424.4 1251.62 1426.68 1246.75C1428.8 1242.21 1432.92 1241.66 1436.33 1243.25C1439.73 1244.85 1441.95 1248.36 1439.82 1252.9ZM1438.14 1204.78C1435.57 1210.27 1437.15 1214.41 1438.36 1216.13L1434.49 1214.31L1429.66 1224.62L1454.86 1236.42L1459.69 1226.12L1448.95 1221.09C1445.03 1219.25 1442.5 1216.28 1444.98 1210.98C1446.04 1208.71 1447.46 1207.3 1448.57 1206.27L1448.97 1205.42L1440.27 1201.34C1439.59 1202.06 1438.89 1203.18 1438.14 1204.78ZM1448.24 1183.22C1444.59 1191.02 1444.06 1201.38 1453.8 1205.94C1463.54 1210.51 1471.16 1203.47 1474.81 1195.66C1478.44 1187.91 1478.97 1177.55 1469.23 1172.99C1459.49 1168.43 1451.87 1175.47 1448.24 1183.22ZM1468.1 1192.52C1465.84 1197.34 1461.83 1197.66 1458.43 1196.06C1455.02 1194.47 1452.69 1191.19 1454.95 1186.37C1457.19 1181.59 1461.2 1181.28 1464.6 1182.87C1468.01 1184.46 1470.33 1187.75 1468.1 1192.52ZM1466.73 1145.46L1479.12 1158.52L1461.13 1157.42L1456.17 1168.01L1486.86 1168.09L1491.4 1158.39L1471.71 1134.82L1466.73 1145.46ZM1477.81 1120.08C1473.98 1128.26 1473.78 1134.34 1479.51 1138.12L1483.91 1128.71C1482.51 1127.65 1481.92 1126.45 1483.62 1122.8C1485.68 1118.41 1487.39 1118.69 1489.8 1119.82L1490.14 1119.97C1481.15 1136.7 1483.99 1141.71 1489.66 1144.37C1494.63 1146.7 1499.06 1143.87 1502.41 1136.73C1504.42 1132.43 1504.18 1128.4 1503.23 1126.11L1505.93 1127.37L1510.75 1117.06L1494.63 1109.51C1486.17 1105.55 1481.61 1111.95 1477.81 1120.08ZM1498.74 1124C1499.71 1126.13 1499.66 1129.05 1498.42 1131.7C1497.34 1134.01 1496.01 1135.12 1494.12 1134.24C1491.1 1132.82 1492.63 1128.81 1495.86 1122.65L1498.74 1124ZM1477.63 1096.94L1512.53 1113.28L1517.35 1102.97L1482.46 1086.63L1477.63 1096.94ZM1510.69 1075.35C1508.15 1079.41 1506.82 1082.02 1505.21 1081.26C1503.93 1080.66 1503.96 1079.12 1505.56 1075.72C1507.08 1072.46 1508.76 1071.34 1510.42 1072.11L1515.22 1061.85C1510.4 1059.59 1504.95 1062.12 1499.88 1072.94C1495.43 1082.45 1495.92 1088.79 1501.45 1091.38C1506.75 1093.86 1509.81 1090.51 1514.15 1083.95C1517.93 1078.23 1519.39 1075.22 1521.33 1076.13C1522.8 1076.82 1522.54 1078.71 1521.1 1081.79C1519.47 1085.29 1517.79 1087.15 1515.33 1086L1510.28 1096.78C1516.28 1099.59 1521.67 1095.6 1526.65 1084.96C1531.28 1075.08 1531.92 1068.06 1525.44 1065.02C1518.87 1061.95 1515.17 1068.11 1510.69 1075.35Z" fill="black"/>
</g>
<rect x="1077.89" y="1579.56" width="1042.56" height="331.206" rx="165.603" transform="rotate(-67.6513 1077.89 1579.56)" stroke="black" stroke-width="1.63156"/>
<defs>
<clipPath id="clip0_1_2">
<rect x="518.481" width="1053.99" height="336.101" rx="168.05" transform="rotate(24.9273 518.481 0)" fill="white"/>
</clipPath>
<clipPath id="clip1_1_2">
<rect x="613.465" y="966.601" width="1044.2" height="336.101" rx="168.05" transform="rotate(-36.1974 613.465 966.601)" fill="white"/>
</clipPath>
<clipPath id="clip2_1_2">
<rect x="506.507" y="376.036" width="1044.2" height="336.101" rx="168.05" transform="rotate(74.0323 506.507 376.036)" fill="white"/>
</clipPath>
<clipPath id="clip3_1_2">
<rect x="613.465" y="1557.16" width="1044.2" height="336.101" rx="168.05" transform="rotate(-53.4184 613.465 1557.16)" fill="white"/>
</clipPath>
<clipPath id="clip4_1_2">
<rect x="389.983" y="56.9006" width="1037.67" height="336.101" rx="168.05" transform="rotate(46.1347 389.983 56.9006)" fill="white"/>
</clipPath>
<clipPath id="clip5_1_2">
<rect x="1562.72" y="1522.54" width="1037.67" height="336.101" rx="168.05" transform="rotate(164.709 1562.72 1522.54)" fill="white"/>
</clipPath>
<clipPath id="clip6_1_2">
<rect x="1076.83" y="1580.01" width="1044.2" height="332.837" rx="166.419" transform="rotate(-67.6513 1076.83 1580.01)" fill="white"/>
</clipPath>
</defs>
</svg>
