<svg width="225" height="110" viewBox="0 0 225 110" fill="none" xmlns="http://www.w3.org/2000/svg">
<path d="M3.56249 42.4621L161.151 36.5794C161.151 36.5794 174.907 35.428 187.887 48.0489L221.352 79.4652C221.352 79.4652 216.874 90.0955 204.131 75.206L183.505 52.3267C183.505 52.3267 175.922 41.9991 160.378 42.1406L4.44824 49.7895L3.56249 42.4621Z" fill="#FF3C1C"/>
<path d="M216.833 84.6504C212.829 85.1344 208.16 82.2947 202.958 76.2209L182.363 53.3733C182.196 53.1554 174.913 43.5675 160.409 43.7068L3.07687 51.4193L1.81391 40.9715L161.095 35.0253C161.619 34.9797 175.646 33.963 188.977 46.9383L223.217 79.0811L222.801 80.0839C222.733 80.2508 221.038 84.1597 216.835 84.6678L216.833 84.6504ZM5.81959 48.1599L160.313 40.5789C176.525 40.4271 184.439 50.944 184.767 51.3982L205.291 74.1575C210.902 80.7108 214.451 81.7899 216.458 81.5474C217.882 81.3752 218.846 80.4562 219.384 79.7384L186.826 49.1827C174.483 37.1726 161.416 38.1173 161.285 38.1243L5.31105 43.9529L5.81959 48.1599Z" fill="#000002"/>
<path d="M215.257 16.8716L60.8055 48.7088C60.8055 48.7088 47.1715 50.8684 37.5726 66.2186L12.5492 104.705C12.5492 104.705 19.4307 113.962 28.259 96.4651L42.8389 69.3301C42.8389 69.3301 47.7432 57.493 62.8724 53.9268L216.142 24.199L215.257 16.8716Z" fill="#FF3C1C"/>
<path d="M18.1908 108.662C13.9877 109.171 11.4101 105.778 11.3043 105.632L10.6524 104.759L36.2621 65.3634C46.1033 49.6135 59.9682 47.2496 60.5566 47.1608L216.599 14.999L217.862 25.4469L63.1713 55.4522C49.0444 58.7826 44.3245 69.8126 44.284 69.9145L29.6417 97.1893C26.0516 104.299 22.2008 108.16 18.1887 108.645L18.1908 108.662ZM14.5432 104.509C15.2375 105.077 16.3752 105.742 17.8168 105.568C19.8142 105.327 23.0116 103.423 26.8784 95.7595L41.4802 68.5866C41.6292 68.2158 46.809 56.1072 62.5301 52.4077L214.44 22.9414L213.931 18.7345L61.1304 50.2311C60.9307 50.2552 47.9721 52.536 38.9061 67.0457L14.5432 104.509Z" fill="#000002"/>
<path d="M101.693 52.3924C104.137 72.6102 87.5175 91.252 64.5826 94.0244C45.5903 96.3203 28.2192 87.0259 21.4147 72.2827C21.4136 72.274 21.4126 72.2653 21.4115 72.2566C17.7111 66.0632 14.4312 53.1428 14.4312 53.1428C12.6886 48.2031 4.45692 49.7891 4.45692 49.7891L3.57117 42.4617C12.0657 41.0821 16.1321 37.839 16.1321 37.839C27.2879 29.9026 37.8925 25.5693 45.3251 23.2774C46.1986 22.9954 47.0241 22.7545 47.8084 22.5362C48.0647 22.47 48.32 22.395 48.5676 22.3298C48.8152 22.2646 49.0716 22.1983 49.3029 22.1439C49.5408 22.0711 49.7808 22.0156 50.0034 21.9622C50.2434 21.9068 50.4574 21.8544 50.6713 21.8021C50.8853 21.7498 51.1003 21.7062 51.2969 21.6559C51.3392 21.642 51.3827 21.6368 51.425 21.6228C51.6998 21.5631 51.9658 21.5045 52.2145 21.448C52.284 21.4396 52.3621 21.4302 52.4295 21.4044C52.6011 21.366 52.7737 21.3363 52.9279 21.3C53.0995 21.2616 53.2548 21.2341 53.4187 21.2054C53.5643 21.1702 53.6935 21.1458 53.8314 21.1203C53.9356 21.1077 54.0398 21.0951 54.1332 21.0662C54.2982 21.0462 54.4524 21.0099 54.5903 20.9844C55.3503 20.8573 55.7585 20.8079 55.7585 20.8079C66.4227 19.5188 76.5689 21.8905 84.6274 26.8164C84.6274 26.8164 84.7031 26.8601 84.845 26.94C87.1698 28.3875 89.3181 30.0504 91.2432 31.9078C93.0148 33.5897 94.6036 35.4349 95.9629 37.4225C97.2209 39.2282 98.2973 41.1353 99.1844 43.1535C100.45 46.0431 101.319 49.1482 101.711 52.3903L101.693 52.3924Z" fill="#FF3C1C"/>
<path d="M64.7707 95.5797C45.6742 97.8881 27.3123 88.6341 20.063 73.054L19.9057 72.7732C16.2072 66.3766 13.0529 54.0584 12.9182 53.5279C11.9042 50.6785 6.89871 51.0366 5.38766 51.2193C5.00556 51.2655 4.76345 51.3036 4.73845 51.3154L3.10211 51.6278L1.83706 41.1626L3.3147 40.9222C11.2295 39.6304 15.1147 36.6384 15.1561 36.6158C26.7743 28.3501 37.711 23.9943 44.846 21.7913C45.7282 21.5083 46.5711 21.2653 47.3727 21.0449L48.1482 20.8277C48.5153 20.7304 48.738 20.6771 48.9432 20.6258C49.1301 20.5679 49.3864 20.5017 49.6351 20.4451L54.2644 19.4534C55.1276 19.305 55.5434 19.2459 55.5357 19.2556C66.1391 17.9739 76.7417 20.1846 85.4008 25.4876L85.5708 25.5817C88.0775 27.1483 90.3231 28.8876 92.2882 30.7843C94.1388 32.5361 95.7922 34.4792 97.2141 36.5474C98.5239 38.4175 99.6585 40.441 100.581 42.5342L100.678 42.7518C101.977 45.7697 102.838 48.9552 103.232 52.2147C105.775 73.2582 88.5219 92.7086 64.762 95.5807L64.7707 95.5797ZM22.93 71.8432C29.6549 86.1462 46.6636 94.6289 64.3966 92.4853C86.4458 89.82 102.485 71.9185 100.149 52.5874C99.782 49.5538 98.9745 46.5912 97.7454 43.7854L97.6486 43.5678C96.828 41.7356 95.8303 39.9689 94.6693 38.3102C93.3651 36.413 91.8465 34.6387 90.1538 33.0266C88.3379 31.2706 86.2675 29.6689 83.999 28.2499L83.8095 28.1405C75.7316 23.1993 65.8347 21.1415 55.9261 22.3392C55.9087 22.3413 55.5266 22.3875 54.8274 22.5073L54.5777 22.5551C54.3192 22.604 54.1563 22.6413 54 22.6602L50.3621 23.4704C50.1481 23.5227 49.9352 23.5837 49.7213 23.6361L48.2104 24.0392C47.4512 24.2456 46.6441 24.4931 45.7859 24.7556C38.8551 26.8986 28.2466 31.1265 17.0331 39.0964C16.9286 39.1796 13.0975 42.1826 5.29245 43.7257L5.81465 48.0457C8.79935 47.8084 14.2897 48.0354 15.9023 52.6293C15.9783 52.8935 19.1999 65.4769 22.7288 71.4177L22.9387 71.8421L22.93 71.8432Z" fill="#000002"/>
<path d="M95.7545 53.1184C95.9961 55.1176 96.0047 57.0832 95.8006 59.0393C94.7069 70.0366 86.8376 79.8687 75.5566 84.8746C71.9622 86.4821 68.042 87.5821 63.8563 88.0881C61.7113 88.3474 59.6071 88.4342 57.5296 88.3766C55.5757 88.3218 53.6647 88.1118 51.8086 87.7718C50.1789 87.4837 48.6093 87.109 47.0879 86.6227C35.0525 82.9096 25.9743 73.5564 24.5453 61.7351C22.5027 44.8377 36.8173 29.1379 56.4435 26.7655C68.2627 25.3368 79.3736 29.0558 86.7972 35.9457C87.8814 36.9699 88.9143 38.0798 89.8298 39.239C90.9084 40.5814 91.8825 42.007 92.674 43.5252C94.2791 46.4532 95.3405 49.6938 95.7545 53.1184Z" fill="#000002"/>
<path d="M95.7544 53.1191C95.9961 55.1183 96.0046 57.0839 95.8005 59.0399L75.5566 84.8753C71.9621 86.4827 68.042 87.5828 63.8562 88.0888C61.7112 88.348 59.6071 88.4348 57.5295 88.3773L92.6653 43.527C94.2704 46.4549 95.3318 49.6955 95.7457 53.1202L95.7544 53.1191Z" fill="#158ADA"/>
<path d="M87.0771 36.2208C80.9121 33.4737 73.6744 32.2761 66.1279 33.1883C46.5017 35.5608 32.1861 51.2519 34.2328 68.184C35.0261 74.7466 38.1779 80.5566 42.881 85.059C32.9696 80.6217 25.7933 72.1322 24.5366 61.7365C22.4941 44.8391 36.8086 29.1393 56.4348 26.7668C68.4103 25.3192 79.652 29.1723 87.0782 36.2295L87.0771 36.2208Z" fill="white"/>
<path d="M56.6284 28.2955C75.4036 26.026 92.2583 37.2436 94.1989 53.2979C96.1396 69.3521 82.4434 84.2629 63.6682 86.5324C44.893 88.802 28.0296 77.5854 26.089 61.5311C24.1483 45.4769 37.8445 30.5662 56.6284 28.2955ZM56.2544 25.2012C35.7684 27.6775 20.8508 44.1469 22.9974 61.9048C25.144 79.6628 43.5563 92.1032 64.0422 89.6268C84.5282 87.1504 99.4371 70.6821 97.2905 52.9242C95.1439 35.1663 76.7316 22.7258 56.2544 25.2012Z" fill="#000002"/>
<path d="M20.042 44.8176C20.2354 46.4169 19.0903 47.8782 17.4924 48.0713C15.8946 48.2645 14.443 47.1171 14.2497 45.5177C14.0563 43.9184 15.1937 42.4669 16.7916 42.2737C18.3895 42.0806 19.8487 43.2182 20.042 44.8176Z" fill="#000002"/>
<path d="M132.643 21.1613C130.746 23.1103 129.038 25.2393 127.609 27.4845C127.484 27.6849 127.365 27.8669 127.258 28.0738C127.04 28.3911 126.853 28.7313 126.647 29.0736C126.473 29.3856 126.288 29.7432 126.117 30.0814C125.569 31.0912 125.087 32.1284 124.651 33.1865C124.533 33.4477 124.424 33.7166 124.332 33.9747C123.533 36.0379 122.951 38.1455 122.571 40.3257C122.482 34.1983 117.767 32.9515 117.767 32.9515C113.664 32.6097 110.726 33.009 109.818 33.154C108.927 33.2176 105.97 33.5398 102.075 34.8484C102.075 34.8484 97.8018 37.1817 99.1671 43.1548C98.2702 41.129 97.1851 39.2229 95.9434 37.4063C95.7924 37.1777 95.6143 36.9434 95.446 36.7169C94.7704 35.7931 94.0535 34.8921 93.2821 34.0505C93.0359 33.7628 92.7702 33.4598 92.5097 33.2002C92.2461 32.9146 91.9835 32.6377 91.696 32.3726C91.5523 32.2047 91.3847 32.0574 91.214 31.8841C89.2736 30.0461 87.133 28.3735 84.8016 26.9444C86.0337 27.5892 92.0427 30.5757 99.129 28.3345C102.944 27.0179 106.073 26.4456 107.949 26.2189C108.339 26.1716 108.687 26.1296 108.958 26.1145C109.225 26.0645 109.573 26.0226 109.963 25.9753C111.857 25.7465 115.04 25.5469 119.059 25.9253C126.458 26.4155 131.609 22.0888 132.625 21.1634L132.643 21.1613Z" fill="#000002"/>
<path d="M122.327 49.8972C124.771 70.115 145.354 84.2596 168.289 81.4872C187.281 79.1914 201.937 66.0255 205.033 50.0856C205.032 50.0769 205.04 50.0672 205.038 50.0585C207.156 43.1617 207.263 29.832 207.263 29.832C207.779 24.6193 216.151 24.1981 216.151 24.1981L215.265 16.8707C206.687 17.5549 201.965 15.3742 201.965 15.3742C189.248 10.3236 177.907 8.64302 170.143 8.18821C169.227 8.12249 168.368 8.08525 167.554 8.06014C167.29 8.05686 167.024 8.04489 166.768 8.04056C166.512 8.03623 166.247 8.03296 166.01 8.03523C165.761 8.02116 165.515 8.02447 165.286 8.0257C165.04 8.02901 164.819 8.02918 164.599 8.02935C164.379 8.02952 164.16 8.03838 163.957 8.03644C163.912 8.033 163.869 8.03825 163.824 8.0348C163.543 8.04232 163.271 8.04879 163.016 8.05316C162.946 8.06156 162.868 8.071 162.797 8.06201C162.621 8.06562 162.446 8.07792 162.288 8.07944C162.112 8.08304 161.955 8.09326 161.789 8.10451C161.639 8.10497 161.508 8.11201 161.368 8.12012C161.263 8.13272 161.159 8.14532 161.062 8.13949C160.897 8.15943 160.738 8.16095 160.598 8.16905C159.83 8.22666 159.422 8.27599 159.422 8.27599C148.757 9.56509 139.468 14.2861 132.816 20.9903C132.816 20.9903 132.753 21.0508 132.634 21.1622C130.721 23.122 129.031 25.2488 127.604 27.5115C126.284 29.5671 125.181 31.7377 124.334 33.9919C123.543 36.0454 122.952 38.1541 122.571 40.3255C122.03 43.4334 121.926 46.6561 122.318 49.8983L122.327 49.8972Z" fill="#FF3C1C"/>
<path d="M168.477 83.0436C144.726 85.9147 123.326 71.1368 120.782 50.0933C120.388 46.8337 120.465 43.5349 121.008 40.2945L121.05 40.0601C121.439 37.817 122.068 35.5804 122.901 33.4337C123.782 31.1047 124.934 28.8225 126.313 26.6715C127.762 24.3709 129.529 22.1553 131.542 20.0776L131.747 19.8765C138.878 12.6824 148.648 8.00895 159.252 6.7272C159.261 6.72615 159.66 6.67787 160.498 6.61186L162.776 6.50406C162.871 6.49251 162.968 6.48966 163.057 6.49655L165.292 6.4733C165.53 6.47103 165.794 6.4743 166.069 6.48522C166.2 6.47817 166.43 6.48564 166.668 6.48337L167.605 6.51118C168.445 6.53314 169.322 6.57697 170.255 6.64059C177.711 7.08868 189.37 8.71302 202.549 13.9371C202.66 13.9854 207.155 15.9643 215.15 15.333L216.642 15.2143L217.907 25.6796L216.244 25.7661C216.244 25.7661 215.981 25.7802 215.59 25.8274C214.079 26.0101 209.131 26.8463 208.816 29.9975C208.821 30.4026 208.692 43.1089 206.624 50.2025L206.633 50.272L206.538 50.5127C203.209 67.3627 187.574 80.7352 168.477 83.0436ZM124.142 40.4183L124.109 40.5898C123.584 43.6076 123.506 46.6773 123.873 49.7108C126.21 69.042 146.053 82.6059 168.102 79.9405C185.826 77.798 200.325 65.5154 203.458 50.0296L203.44 49.8818L203.56 49.5674C205.572 42.9569 205.701 29.9595 205.703 29.827C206.186 24.8564 211.454 23.3201 214.418 22.8383L213.896 18.5183C205.947 18.8707 201.512 16.8758 201.316 16.7848C188.6 11.7429 177.291 10.1732 170.057 9.74236C169.152 9.68429 168.31 9.64494 167.514 9.61773L166.048 9.59207C165.739 9.58535 165.526 9.57578 165.315 9.58359L161.545 9.66017C161.406 9.67697 161.249 9.68717 161.099 9.68763L160.689 9.71958C160.025 9.77329 159.642 9.81079 159.625 9.81289C149.716 11.0107 140.595 15.3675 133.943 22.0804L133.713 22.2933C131.903 24.1526 130.274 26.2015 128.936 28.3298C127.669 30.3086 126.617 32.3936 125.801 34.5382C125.055 36.454 124.5 38.426 124.142 40.4183Z" fill="#000002"/>
<path d="M199.461 40.5824C199.655 42.1904 199.7 43.7989 199.6 45.3807C198.918 57.2279 190.398 67.8706 178.074 72.8527C174.823 74.1629 171.296 75.0919 167.588 75.5402C165.174 75.832 162.821 75.9047 160.481 75.7907C158.565 75.6872 156.678 75.4567 154.828 75.0895C153.222 74.7809 151.665 74.3607 150.158 73.8548C138.442 70.0149 129.671 60.7922 128.266 49.1709C126.223 32.2735 140.538 16.5737 160.164 14.2012C171.749 12.8009 182.636 16.3441 190.029 22.982C191.153 23.9749 192.181 25.0412 193.113 26.1897C194.232 27.5008 195.219 28.8895 196.042 30.3774C197.817 33.4701 199.008 36.9067 199.449 40.5573L199.461 40.5824Z" fill="#000002"/>
<path d="M199.461 40.5825C199.655 42.1906 199.7 43.799 199.6 45.3809L178.074 72.8528C174.823 74.1631 171.296 75.0921 167.588 75.5403C165.174 75.8322 162.821 75.9049 160.481 75.7909L196.052 30.3852C197.827 33.4779 199.018 36.9145 199.459 40.5651L199.461 40.5825Z" fill="#158ADA"/>
<path d="M190.764 23.6691C184.599 20.922 177.363 19.7418 169.834 20.6519C150.208 23.0244 135.892 38.7155 137.939 55.6476C138.73 62.1928 141.88 67.9854 146.565 72.4813C136.683 68.0669 129.523 59.5665 128.268 49.1882C126.225 32.2908 140.54 16.591 160.166 14.2185C172.142 12.7709 183.363 16.6001 190.764 23.6691Z" fill="white"/>
<path d="M160.344 15.7585C179.119 13.4889 195.973 24.7066 197.914 40.7608C199.855 56.8151 186.159 71.7258 167.383 73.9954C148.608 76.265 131.753 65.0473 129.813 48.993C127.872 32.9388 141.568 18.0281 160.344 15.7585ZM159.97 12.6641C139.484 15.1405 124.575 31.6088 126.721 49.3668C128.868 67.1247 147.28 79.5651 167.757 77.0898C188.235 74.6144 203.161 58.144 201.014 40.3861C198.868 22.6282 180.455 10.1877 159.97 12.6641Z" fill="#000002"/>
<path d="M199.822 23.0856C200.015 24.685 201.475 25.8313 203.073 25.6381C204.671 25.445 205.808 23.9848 205.614 22.3854C205.421 20.7861 203.97 19.6474 202.372 19.8405C200.775 20.0337 199.629 21.4863 199.822 23.0856Z" fill="#000002"/>
</svg>
