<svg width="58" height="58" viewBox="0 0 58 58" fill="none" xmlns="http://www.w3.org/2000/svg">
<g clip-path="url(#clip0_1687_4584)">
<path d="M48.0068 33.5063C46.632 38.9143 43.7668 43.3554 39.6555 46.0349C35.5519 48.7095 30.1508 49.6659 23.6217 48.0061C17.0926 46.3463 12.804 42.9265 10.4759 38.6169C8.14348 34.2992 7.74711 29.029 9.12193 23.621C10.4967 18.213 13.3619 13.7719 17.4732 11.0924C21.5768 8.41784 26.9779 7.46141 33.507 9.12123C40.0361 10.7811 44.3247 14.2008 46.6528 18.5104C48.9853 22.8281 49.3816 28.0983 48.0068 33.5063Z" fill="#F8312F" stroke="black"/>
<path d="M26.4766 28.7922C25.6453 32.0623 22.3204 34.0394 19.0503 33.208C15.7802 32.3767 13.8032 29.0518 14.6345 25.7817C15.4659 22.5116 18.7907 20.5346 22.0608 21.366C25.3309 22.1973 27.3079 25.5221 26.4766 28.7922ZM42.1348 32.7729C41.3035 36.043 37.9786 38.02 34.7085 37.1887C31.4384 36.3573 29.4614 33.0325 30.2927 29.7624C31.124 26.4923 34.4489 24.5153 37.719 25.3466C40.9891 26.1779 42.9661 29.5028 42.1348 32.7729Z" fill="white" stroke="black"/>
<path d="M27.3974 22.9656C27.9782 23.1467 28.3023 23.7643 28.1212 24.3451C27.9402 24.9259 27.3226 25.25 26.7418 25.0689C25.3135 24.6236 24.0208 23.9171 23.0507 22.7965C22.0722 21.6663 21.4974 20.2019 21.3628 18.3806C21.3179 17.7738 21.7734 17.2456 22.3801 17.2008C22.9868 17.1559 23.515 17.6114 23.5599 18.2181C23.6658 19.651 24.099 20.6415 24.7163 21.3545C25.3421 22.0773 26.2331 22.6026 27.3974 22.9656Z" fill="black"/>
<path d="M32.2659 24.2033C31.6692 24.085 31.0895 24.4729 30.9712 25.0696C30.8529 25.6664 31.2408 26.2461 31.8376 26.3643C33.305 26.6553 34.7783 26.6519 36.1657 26.1307C37.5652 25.6049 38.7695 24.5928 39.7577 23.0569C40.0868 22.5453 39.9389 21.8637 39.4273 21.5345C38.9156 21.2053 38.234 21.3532 37.9049 21.8649C37.1275 23.0732 36.2739 23.7366 35.391 24.0682C34.496 24.4045 33.4622 24.4404 32.2659 24.2033Z" fill="black"/>
<path d="M25.6705 39.9529C22.817 39.2274 21.0944 40.4629 20.7261 40.8891C20.1958 41.5029 19.2683 41.5705 18.6545 41.0402C18.0407 40.5098 17.9731 39.5823 18.5034 38.9686C19.5666 37.738 22.4151 36.0943 26.3943 37.1059C30.3734 38.1175 32.0911 40.922 32.4376 42.5109C32.6104 43.3034 32.108 44.086 31.3155 44.2589C30.5229 44.4317 29.7403 43.9293 29.5675 43.1368C29.4475 42.5864 28.524 40.6783 25.6705 39.9529Z" fill="black"/>
<path d="M25.3568 29.2648C24.957 30.8372 23.3584 31.7877 21.7861 31.388C20.2137 30.9883 19.2631 29.3897 19.6629 27.8173C20.0626 26.245 21.6612 25.2944 23.2336 25.6941C24.8059 26.0939 25.7565 27.6925 25.3568 29.2648Z" fill="black"/>
<path d="M36.7445 32.1598C36.3448 33.7322 34.7462 34.6827 33.1738 34.283C31.6015 33.8833 30.6509 32.2847 31.0506 30.7123C31.4504 29.14 33.049 28.1894 34.6213 28.5891C36.1937 28.9889 37.1442 30.5875 36.7445 32.1598Z" fill="black"/>
</g>
<defs>
<clipPath id="clip0_1687_4584">
<rect width="47" height="47" fill="white" transform="translate(11.58) rotate(14.2636)"/>
</clipPath>
</defs>
</svg>
