<svg width="317" height="98" viewBox="0 0 317 98" fill="none" xmlns="http://www.w3.org/2000/svg">
<path d="M32.1308 8.99935C28.7708 8.66335 26.3348 8.55135 26.3348 7.20735C26.3348 6.08735 27.7348 5.69535 30.4228 5.69535C32.9708 5.69535 34.5387 6.28335 34.5387 7.62735H41.2868C41.2868 4.23935 38.8228 1.24335 30.5068 1.24335C22.8908 1.24335 19.7268 3.53935 19.7268 7.51535C19.7268 11.4354 21.8548 12.6954 27.8748 13.6194C33.5027 14.4874 35.4068 14.4034 35.4068 15.7194C35.4068 16.8114 33.8388 17.2034 31.2068 17.2034C28.4628 17.2034 26.2228 16.6994 26.2228 14.8794H19.2788C19.2788 18.9954 22.5548 21.6554 30.8428 21.6554C38.5428 21.6554 42.5468 19.7234 42.5468 15.0194C42.5468 10.0634 38.2628 9.64335 32.1308 8.99935ZM65.4534 5.91935C62.6814 5.91935 60.9734 7.26335 60.1894 8.13135C59.2934 6.64735 57.6134 5.91935 55.0374 5.91935C52.2654 5.91935 50.8374 7.34735 50.3334 8.13135V6.31135H44.2294V21.2354H50.3334V13.0314C50.3334 11.3514 50.6134 10.0914 52.6574 10.0914C54.7014 10.0914 54.8974 11.3794 54.8974 13.0314V21.2354H61.0014V13.0314C61.0014 11.3514 61.3094 10.0914 63.3534 10.0914C65.3974 10.0914 65.5654 11.3794 65.5654 13.0314V21.2354H71.6694V11.6314C71.6694 7.82335 69.5694 5.91935 65.4534 5.91935ZM82.8293 5.91935C78.2093 5.91935 73.3373 8.01935 73.3373 13.7874C73.3373 19.5554 78.1813 21.6554 82.9693 21.6554C87.0293 21.6554 90.8093 20.2834 91.7613 16.1954H86.3293C85.8253 16.9514 84.9013 17.9314 82.9693 17.9314C80.5053 17.9314 79.4413 16.6994 79.0773 15.1594H91.9853C92.4053 8.21535 87.0573 5.91935 82.8293 5.91935ZM79.1893 12.0514C79.6093 10.6794 80.7013 9.64335 82.8293 9.64335C84.7053 9.64335 85.8253 10.5114 86.2733 12.0514H79.1893ZM105.061 13.6754L111.109 6.31135H104.193L101.505 10.3434L98.7891 6.31135H91.8731L97.9211 13.6754L91.4531 21.2354H98.3691L101.505 17.0354L104.641 21.2354H111.529L105.061 13.6754ZM124.907 6.31135L121.463 15.1594L117.823 6.31135H111.523L118.663 21.0394L116.031 25.9114H122.219L131.179 6.31135H124.907ZM151.022 5.91935C149.006 5.91935 147.214 6.67535 145.954 8.10335V6.31135H139.85V25.9114H145.954V19.4434C147.214 20.8994 149.006 21.6554 151.022 21.6554C155.642 21.6554 159.198 18.8554 159.198 13.7874C159.198 8.71935 155.642 5.91935 151.022 5.91935ZM149.454 17.6794C146.57 17.6794 145.422 15.9714 145.422 13.7874C145.422 11.6034 146.57 9.89535 149.454 9.89535C152.142 9.89535 153.346 11.7714 153.346 13.7874C153.346 15.8034 152.142 17.6794 149.454 17.6794ZM169.81 5.91935C165.19 5.91935 160.318 8.01935 160.318 13.7874C160.318 19.5554 165.162 21.6554 169.95 21.6554C174.01 21.6554 177.79 20.2834 178.742 16.1954H173.31C172.806 16.9514 171.882 17.9314 169.95 17.9314C167.486 17.9314 166.422 16.6994 166.058 15.1594H178.966C179.386 8.21535 174.038 5.91935 169.81 5.91935ZM166.17 12.0514C166.59 10.6794 167.682 9.64335 169.81 9.64335C171.686 9.64335 172.806 10.5114 173.254 12.0514H166.17ZM189.887 5.91935C185.267 5.91935 180.115 8.01935 180.115 13.7874C180.115 19.5554 185.267 21.6554 189.887 21.6554C194.479 21.6554 199.631 19.5554 199.631 13.7874C199.631 8.01935 194.479 5.91935 189.887 5.91935ZM189.887 17.6794C187.031 17.6794 185.967 15.8034 185.967 13.7874C185.967 11.7714 187.031 9.89535 189.887 9.89535C192.715 9.89535 193.779 11.7714 193.779 13.7874C193.779 15.8034 192.715 17.6794 189.887 17.6794ZM212.491 5.91935C210.475 5.91935 208.683 6.67535 207.423 8.10335V6.31135H201.319V25.9114H207.423V19.4434C208.683 20.8994 210.475 21.6554 212.491 21.6554C217.111 21.6554 220.667 18.8554 220.667 13.7874C220.667 8.71935 217.111 5.91935 212.491 5.91935ZM210.923 17.6794C208.039 17.6794 206.891 15.9714 206.891 13.7874C206.891 11.6034 208.039 9.89535 210.923 9.89535C213.611 9.89535 214.815 11.7714 214.815 13.7874C214.815 15.8034 213.611 17.6794 210.923 17.6794ZM222.347 0.571351V21.2354H228.451V0.571351H222.347ZM239.618 5.91935C234.998 5.91935 230.126 8.01935 230.126 13.7874C230.126 19.5554 234.97 21.6554 239.758 21.6554C243.818 21.6554 247.598 20.2834 248.55 16.1954H243.118C242.614 16.9514 241.69 17.9314 239.758 17.9314C237.294 17.9314 236.23 16.6994 235.866 15.1594H248.774C249.194 8.21535 243.846 5.91935 239.618 5.91935ZM235.978 12.0514C236.398 10.6794 237.49 9.64335 239.618 9.64335C241.494 9.64335 242.614 10.5114 243.062 12.0514H235.978ZM270.413 1.63535V8.10335C269.153 6.67535 267.361 5.91935 265.345 5.91935C260.725 5.91935 257.197 8.71935 257.197 13.7874C257.197 18.8554 260.725 21.6554 265.345 21.6554C267.361 21.6554 269.153 20.8994 270.413 19.4434V21.2354H276.517V1.63535H270.413ZM266.941 17.6794C264.253 17.6794 263.021 15.8034 263.021 13.7874C263.021 11.7714 264.253 9.89535 266.941 9.89535C269.825 9.89535 270.945 11.6034 270.945 13.7874C270.945 15.9714 269.825 17.6794 266.941 17.6794ZM287.969 5.91935C283.349 5.91935 278.197 8.01935 278.197 13.7874C278.197 19.5554 283.349 21.6554 287.969 21.6554C292.561 21.6554 297.713 19.5554 297.713 13.7874C297.713 8.01935 292.561 5.91935 287.969 5.91935ZM287.969 17.6794C285.113 17.6794 284.049 15.8034 284.049 13.7874C284.049 11.7714 285.113 9.89535 287.969 9.89535C290.797 9.89535 291.861 11.7714 291.861 13.7874C291.861 15.8034 290.797 17.6794 287.969 17.6794ZM13.7649 45.7554V42.3114H9.39694V38.4474H3.29294V42.3114H0.520938V45.7554H3.29294V51.2714C3.29294 55.7234 4.63694 57.4874 10.2649 57.4874C11.4129 57.4874 12.7289 57.4034 13.7649 57.2634V53.1194C10.7689 53.3714 9.39694 53.3714 9.39694 51.2714V45.7554H13.7649ZM27.0772 41.9194C24.2212 41.9194 22.4292 43.4314 21.8412 44.2154V37.6354H15.7372V57.2354H21.8412V49.0314C21.8412 47.3514 22.6252 46.0914 24.6972 46.0914C26.7972 46.0914 27.4692 47.3794 27.4692 49.0314V57.2354H33.5732V47.6314C33.5732 43.8234 31.1932 41.9194 27.0772 41.9194ZM44.7395 41.9194C40.1195 41.9194 35.2475 44.0194 35.2475 49.7874C35.2475 55.5554 40.0915 57.6554 44.8795 57.6554C48.9395 57.6554 52.7195 56.2834 53.6715 52.1954H48.2395C47.7355 52.9514 46.8115 53.9314 44.8795 53.9314C42.4155 53.9314 41.3515 52.6994 40.9875 51.1594H53.8955C54.3155 44.2154 48.9675 41.9194 44.7395 41.9194ZM41.0995 48.0514C41.5195 46.6794 42.6115 45.6434 44.7395 45.6434C46.6155 45.6434 47.7355 46.5114 48.1835 48.0514H41.0995ZM58.6564 41.1914C60.5044 41.1914 61.8204 40.1554 61.8204 38.3073C61.8204 36.4594 60.5044 35.3954 58.6564 35.3954C56.8084 35.3954 55.4924 36.4594 55.4924 38.3073C55.4924 40.1554 56.8084 41.1914 58.6564 41.1914ZM55.6044 57.2354H61.7084V42.3114H55.6044V57.2354ZM75.5082 41.9194C72.2602 41.9194 70.6082 43.6274 70.0482 44.6074V42.3114H63.9442V57.2354H70.0482V50.8794C70.0482 48.5554 70.9162 46.6514 74.0522 46.6514C75.3962 46.6514 76.4042 47.0154 77.1602 47.3234H77.6642V42.1714C77.1602 42.0034 76.4602 41.9194 75.5082 41.9194ZM99.7343 77.9194C95.1143 77.9194 89.9623 80.0194 89.9623 85.7874C89.9623 91.5554 95.1143 93.6554 99.7343 93.6554C104.326 93.6554 109.478 91.5554 109.478 85.7874C109.478 80.0194 104.326 77.9194 99.7343 77.9194ZM99.7343 89.6794C96.8783 89.6794 95.8143 87.8034 95.8143 85.7874C95.8143 83.7714 96.8783 81.8954 99.7343 81.8954C102.562 81.8954 103.626 83.7714 103.626 85.7874C103.626 87.8034 102.562 89.6794 99.7343 89.6794ZM122.507 77.9194C119.623 77.9194 117.859 79.4314 117.271 80.2154V78.3114H111.167V93.2354H117.271V85.0314C117.271 83.3514 118.027 82.0914 120.127 82.0914C122.227 82.0914 122.899 83.3794 122.899 85.0314V93.2354H129.003V83.6314C129.003 79.8234 126.623 77.9194 122.507 77.9194ZM158.139 78.1714V73.6354H138.791V93.2354H145.455V85.9834H157.355V81.4474H145.455V78.1714H158.139ZM171.676 77.9194C168.428 77.9194 166.776 79.6274 166.216 80.6074V78.3114H160.112V93.2354H166.216V86.8794C166.216 84.5554 167.084 82.6514 170.22 82.6514C171.564 82.6514 172.572 83.0154 173.328 83.3234H173.832V78.1714C173.328 78.0034 172.628 77.9194 171.676 77.9194ZM183.199 77.9194C178.355 77.9194 175.359 79.2074 174.827 82.8474H180.399C180.595 81.9234 181.043 81.3634 183.199 81.3634C185.803 81.3634 186.055 82.2594 186.055 83.6874V83.8834C175.891 83.3234 174.099 85.8434 174.099 89.2034C174.099 92.1434 176.479 93.6554 180.707 93.6554C183.255 93.6554 185.159 92.6194 186.055 91.6394V93.2354H192.159V83.6874C192.159 78.6754 188.015 77.9194 183.199 77.9194ZM186.055 88.9794C185.243 89.9314 183.815 90.5754 182.247 90.5754C180.875 90.5754 180.035 90.1834 180.035 89.0634C180.035 87.2714 182.331 87.1034 186.055 87.2714V88.9794ZM206.812 81.7554V78.3114H202.444V74.4474H196.34V78.3114H193.568V81.7554H196.34V87.2714C196.34 91.7234 197.684 93.4874 203.312 93.4874C204.46 93.4874 205.776 93.4034 206.812 93.2634V89.1194C203.816 89.3714 202.444 89.3714 202.444 87.2714V81.7554H206.812ZM221.048 78.3114L217.604 87.1594L213.964 78.3114H207.664L214.804 93.0394L212.172 97.9114H218.36L227.32 78.3114H221.048Z" fill="black"/>
<path d="M103.356 37.6354V44.8034H93.5562V37.6354H86.8922V57.2354H93.5562V49.5634H103.356V57.2354H109.992V37.6354H103.356ZM121.719 41.9194C117.099 41.9194 111.947 44.0194 111.947 49.7874C111.947 55.5554 117.099 57.6554 121.719 57.6554C126.311 57.6554 131.463 55.5554 131.463 49.7874C131.463 44.0194 126.311 41.9194 121.719 41.9194ZM121.719 53.6794C118.863 53.6794 117.799 51.8034 117.799 49.7874C117.799 47.7714 118.863 45.8954 121.719 45.8954C124.547 45.8954 125.611 47.7714 125.611 49.7874C125.611 51.8034 124.547 53.6794 121.719 53.6794ZM144.883 42.3114V50.5434C144.883 52.1954 144.127 53.4554 142.027 53.4554C139.927 53.4554 139.255 52.1954 139.255 50.5434V42.3114H133.151V51.9434C133.151 55.7514 135.531 57.6554 139.675 57.6554C142.531 57.6554 144.295 56.1154 144.883 55.3594V57.2354H151.015V42.3114H144.883ZM162.909 47.7154C160.361 47.4074 158.793 47.3514 158.793 46.3994C158.793 45.6434 159.549 45.3074 161.565 45.3074C163.497 45.3074 164.421 45.8674 164.421 46.8474H170.497C170.497 43.9914 168.033 41.9194 161.621 41.9194C155.993 41.9194 153.025 43.5994 153.025 46.8754C153.025 50.0114 155.349 50.7394 159.521 51.3554C163.161 51.8874 164.953 51.9154 164.953 53.0634C164.953 53.9314 163.973 54.2394 162.153 54.2394C160.081 54.2394 158.793 53.8474 158.793 52.3914H152.409C152.409 55.9474 155.573 57.6554 161.873 57.6554C167.725 57.6554 171.281 56.3674 171.281 52.5314C171.281 48.6394 167.445 48.2474 162.909 47.7154ZM181.896 41.9194C177.276 41.9194 172.404 44.0194 172.404 49.7874C172.404 55.5554 177.248 57.6554 182.036 57.6554C186.096 57.6554 189.876 56.2834 190.828 52.1954H185.396C184.892 52.9514 183.968 53.9314 182.036 53.9314C179.572 53.9314 178.508 52.6994 178.144 51.1594H191.052C191.472 44.2154 186.124 41.9194 181.896 41.9194ZM178.256 48.0514C178.676 46.6794 179.768 45.6434 181.896 45.6434C183.772 45.6434 184.892 46.5114 185.34 48.0514H178.256ZM211.206 41.9194C209.19 41.9194 207.398 42.6754 206.138 44.1034V42.3114H200.034V61.9114H206.138V55.4434C207.398 56.8994 209.19 57.6554 211.206 57.6554C215.826 57.6554 219.382 54.8554 219.382 49.7874C219.382 44.7194 215.826 41.9194 211.206 41.9194ZM209.638 53.6794C206.754 53.6794 205.606 51.9714 205.606 49.7874C205.606 47.6034 206.754 45.8954 209.638 45.8954C212.326 45.8954 213.53 47.7714 213.53 49.7874C213.53 51.8034 212.326 53.6794 209.638 53.6794ZM229.328 41.9194C224.484 41.9194 221.488 43.2074 220.956 46.8474H226.528C226.724 45.9234 227.172 45.3634 229.328 45.3634C231.932 45.3634 232.184 46.2594 232.184 47.6874V47.8834C222.02 47.3234 220.228 49.8434 220.228 53.2034C220.228 56.1434 222.608 57.6554 226.836 57.6554C229.384 57.6554 231.288 56.6194 232.184 55.6394V57.2354H238.288V47.6874C238.288 42.6754 234.144 41.9194 229.328 41.9194ZM232.184 52.9794C231.372 53.9314 229.944 54.5754 228.376 54.5754C227.004 54.5754 226.164 54.1834 226.164 53.0634C226.164 51.2714 228.46 51.1034 232.184 51.2714V52.9794ZM252.094 41.9194C248.846 41.9194 247.194 43.6274 246.634 44.6074V42.3114H240.53V57.2354H246.634V50.8794C246.634 48.5554 247.502 46.6514 250.638 46.6514C251.982 46.6514 252.99 47.0154 253.746 47.3234H254.25V42.1714C253.746 42.0034 253.046 41.9194 252.094 41.9194ZM268.609 45.7554V42.3114H264.241V38.4474H258.137V42.3114H255.365V45.7554H258.137V51.2714C258.137 55.7234 259.481 57.4874 265.109 57.4874C266.257 57.4874 267.573 57.4034 268.609 57.2634V53.1194C265.613 53.3714 264.241 53.3714 264.241 51.2714V45.7554H268.609ZM273.633 41.1914C275.481 41.1914 276.797 40.1554 276.797 38.3073C276.797 36.4594 275.481 35.3954 273.633 35.3954C271.785 35.3954 270.469 36.4594 270.469 38.3073C270.469 40.1554 271.785 41.1914 273.633 41.1914ZM270.581 57.2354H276.685V42.3114H270.581V57.2354ZM287.853 41.9194C283.233 41.9194 278.361 44.0194 278.361 49.7874C278.361 55.5554 283.205 57.6554 287.993 57.6554C292.053 57.6554 295.833 56.2834 296.785 52.1954H291.353C290.849 52.9514 289.925 53.9314 287.993 53.9314C285.529 53.9314 284.465 52.6994 284.101 51.1594H297.009C297.429 44.2154 292.081 41.9194 287.853 41.9194ZM284.213 48.0514C284.633 46.6794 285.725 45.6434 287.853 45.6434C289.729 45.6434 290.849 46.5114 291.297 48.0514H284.213ZM308.104 47.7154C305.556 47.4074 303.988 47.3514 303.988 46.3994C303.988 45.6434 304.744 45.3074 306.76 45.3074C308.692 45.3074 309.616 45.8674 309.616 46.8474H315.692C315.692 43.9914 313.228 41.9194 306.816 41.9194C301.188 41.9194 298.22 43.5994 298.22 46.8754C298.22 50.0114 300.544 50.7394 304.716 51.3554C308.356 51.8874 310.148 51.9154 310.148 53.0634C310.148 53.9314 309.168 54.2394 307.348 54.2394C305.276 54.2394 303.988 53.8474 303.988 52.3914H297.604C297.604 55.9474 300.768 57.6554 307.068 57.6554C312.92 57.6554 316.476 56.3674 316.476 52.5314C316.476 48.6394 312.64 48.2474 308.104 47.7154Z" fill="#EA664D"/>
</svg>
