<svg width="58" height="58" viewBox="0 0 58 58" fill="none" xmlns="http://www.w3.org/2000/svg">
<g clip-path="url(#clip0_1687_4588)">
<path d="M47.6255 23.0557C49.2224 28.2943 49.0763 33.4786 46.9889 37.818C44.9056 42.149 40.8595 45.6988 34.535 47.6268C28.2105 49.5547 22.8722 48.8656 18.7271 46.4332C14.5741 43.9961 11.5609 39.7749 9.96395 34.5363C8.36705 29.2977 8.51314 24.1134 10.6005 19.774C12.6838 15.443 16.7299 11.8932 23.0544 9.96525C29.379 8.03731 34.7172 8.72645 38.8623 11.1588C43.0153 13.5959 46.0286 17.8172 47.6255 23.0557Z" fill="#FFB02E" stroke="black"/>
<path d="M32.5809 41.2108C20.167 44.995 16.3828 32.5811 16.3828 32.5811L41.2106 25.0126C41.2106 25.0126 44.9948 37.4266 32.5809 41.2108Z" fill="#BB1D80" stroke="black"/>
<path d="M17.9723 32.8503L17.7621 32.1606L39.8313 25.4332L40.0415 26.1228C40.2737 26.8846 39.8444 27.6904 39.0827 27.9226L19.7721 33.8092C19.0103 34.0414 18.2045 33.6121 17.9723 32.8503Z" fill="white" stroke="black"/>
<path d="M8.48742 25.5668C12.2464 27.9284 16.3743 28.2061 18.436 28.1707C19.2805 28.1562 20.0276 27.6848 20.4298 26.9421C21.5811 24.8166 23.7632 20.0795 23.1757 15.6094C22.3552 9.36731 14.3549 9.82697 12.8457 15.638C4.8189 14.4803 3.10891 22.1877 8.48742 25.5668Z" fill="#F70A8D"/>
<path d="M43.8488 14.7898C42.0473 18.8447 38.778 21.3768 37.0478 22.4972C36.3388 22.9562 35.4558 22.9817 34.7076 22.5897C32.5672 21.4682 28.1159 18.755 26.1109 14.7193C23.3109 9.08327 30.2045 5.00355 34.6967 8.98295C40.7104 3.54673 46.4267 8.98737 43.8488 14.7898Z" fill="#F70A8D"/>
<path d="M8.48742 25.5668C12.2464 27.9284 16.3743 28.2061 18.436 28.1707C19.2805 28.1562 20.0276 27.6848 20.4298 26.9421C21.5811 24.8166 23.7632 20.0795 23.1757 15.6094C22.3552 9.36731 14.3549 9.82697 12.8457 15.638C4.8189 14.4803 3.10891 22.1877 8.48742 25.5668Z" stroke="black"/>
<path d="M43.8488 14.7898C42.0473 18.8447 38.778 21.3768 37.0478 22.4972C36.3388 22.9562 35.4558 22.9817 34.7076 22.5897C32.5672 21.4682 28.1159 18.755 26.1109 14.7193C23.3109 9.08327 30.2045 5.00355 34.6967 8.98295C40.7104 3.54673 46.4267 8.98737 43.8488 14.7898Z" stroke="black"/>
</g>
<defs>
<clipPath id="clip0_1687_4588">
<rect width="46.1437" height="46.1437" fill="white" transform="translate(0 13.4551) rotate(-16.9531)"/>
</clipPath>
</defs>
</svg>
