<svg width="260" height="60" viewBox="0 0 260 60" fill="none" xmlns="http://www.w3.org/2000/svg">
<path d="M28.6725 2.8L25.3185 15.046L21.9905 2.8H16.5565L13.2285 15.046L9.87452 2.8H3.47852L9.40652 21H16.2965L19.2865 10.054L22.2505 21H29.1405L35.0945 2.8H28.6725ZM42.5957 6.778C38.3057 6.778 33.7817 8.728 33.7817 14.084C33.7817 19.44 38.2797 21.39 42.7257 21.39C46.4957 21.39 50.0057 20.116 50.8897 16.32H45.8457C45.3777 17.022 44.5197 17.932 42.7257 17.932C40.4377 17.932 39.4497 16.788 39.1117 15.358H51.0977C51.4877 8.91 46.5217 6.778 42.5957 6.778ZM39.2157 12.472C39.6057 11.198 40.6197 10.236 42.5957 10.236C44.3377 10.236 45.3777 11.042 45.7937 12.472H39.2157ZM59.4384 1.812V21H65.1064V1.812H59.4384ZM75.7366 6.778C71.4466 6.778 66.6626 8.728 66.6626 14.084C66.6626 19.44 71.4466 21.39 75.7366 21.39C80.0006 21.39 84.7846 19.44 84.7846 14.084C84.7846 8.728 80.0006 6.778 75.7366 6.778ZM75.7366 17.698C73.0846 17.698 72.0966 15.956 72.0966 14.084C72.0966 12.212 73.0846 10.47 75.7366 10.47C78.3626 10.47 79.3506 12.212 79.3506 14.084C79.3506 15.956 78.3626 17.698 75.7366 17.698ZM96.6735 7.142L93.3975 15.488L90.0955 7.142H84.2715L90.7195 21H96.0495L102.523 7.142H96.6735ZM110.82 6.778C106.53 6.778 102.006 8.728 102.006 14.084C102.006 19.44 106.504 21.39 110.95 21.39C114.72 21.39 118.23 20.116 119.114 16.32H114.07C113.602 17.022 112.744 17.932 110.95 17.932C108.662 17.932 107.674 16.788 107.336 15.358H119.322C119.712 8.91 114.746 6.778 110.82 6.778ZM107.44 12.472C107.83 11.198 108.844 10.236 110.82 10.236C112.562 10.236 113.602 11.042 114.018 12.472H107.44ZM138.037 6.778C136.165 6.778 134.501 7.48 133.331 8.806V7.142H127.663V25.342H133.331V19.336C134.501 20.688 136.165 21.39 138.037 21.39C142.327 21.39 145.629 18.79 145.629 14.084C145.629 9.378 142.327 6.778 138.037 6.778ZM136.581 17.698C133.903 17.698 132.837 16.112 132.837 14.084C132.837 12.056 133.903 10.47 136.581 10.47C139.077 10.47 140.195 12.212 140.195 14.084C140.195 15.956 139.077 17.698 136.581 17.698ZM154.865 6.778C150.367 6.778 147.585 7.974 147.091 11.354H152.265C152.447 10.496 152.863 9.976 154.865 9.976C157.283 9.976 157.517 10.808 157.517 12.134V12.316C148.079 11.796 146.415 14.136 146.415 17.256C146.415 19.986 148.625 21.39 152.551 21.39C154.917 21.39 156.685 20.428 157.517 19.518V21H163.185V12.134C163.185 7.48 159.337 6.778 154.865 6.778ZM157.517 17.048C156.763 17.932 155.437 18.53 153.981 18.53C152.707 18.53 151.927 18.166 151.927 17.126C151.927 15.462 154.059 15.306 157.517 15.462V17.048ZM176.005 6.778C172.989 6.778 171.455 8.364 170.935 9.274V7.142H165.267V21H170.935V15.098C170.935 12.94 171.741 11.172 174.653 11.172C175.901 11.172 176.837 11.51 177.539 11.796H178.007V7.012C177.539 6.856 176.889 6.778 176.005 6.778ZM191.339 10.34V7.142H187.283V3.554H181.615V7.142H179.041V10.34H181.615V15.462C181.615 19.596 182.863 21.234 188.089 21.234C189.155 21.234 190.377 21.156 191.339 21.026V17.178C188.557 17.412 187.283 17.412 187.283 15.462V10.34H191.339ZM204.559 7.142L201.361 15.358L197.981 7.142H192.131L198.761 20.818L196.317 25.342H202.063L210.383 7.142H204.559ZM214.515 6.102C216.231 6.102 217.453 5.14 217.453 3.424C217.453 1.708 216.231 0.719999 214.515 0.719999C212.799 0.719999 211.577 1.708 211.577 3.424C211.577 5.14 212.799 6.102 214.515 6.102ZM211.681 21H217.349V7.142H211.681V21ZM229.955 6.778C227.277 6.778 225.639 8.182 225.093 8.91V7.142H219.425V21H225.093V13.382C225.093 11.822 225.795 10.652 227.745 10.652C229.695 10.652 230.319 11.848 230.319 13.382V21H235.987V12.082C235.987 8.546 233.777 6.778 229.955 6.778ZM249.813 7.142V8.546C248.643 7.35 246.979 6.778 245.107 6.778C240.817 6.778 237.541 8.884 237.541 13.59C237.541 18.296 240.817 20.142 245.107 20.142C246.979 20.142 248.643 19.648 249.813 18.504V19.726C249.813 22.092 248.071 22.378 246.147 22.378C244.639 22.378 243.365 22.144 243.105 21.39H237.801C237.931 24.198 240.713 25.836 246.147 25.836C250.645 25.836 255.481 25.212 255.481 19.726V7.142H249.813ZM246.589 16.71C244.171 16.71 242.949 15.462 242.949 13.59C242.949 11.718 244.171 10.47 246.589 10.47C249.163 10.47 250.307 11.562 250.307 13.59C250.307 15.618 249.163 16.71 246.589 16.71ZM10.538 40.778C8.66602 40.778 7.00202 41.48 5.83202 42.806V36.8H0.164024V55H5.83202V53.336C7.00202 54.688 8.66602 55.39 10.538 55.39C14.828 55.39 18.13 52.79 18.13 48.084C18.13 43.378 14.828 40.778 10.538 40.778ZM9.08202 51.698C6.40402 51.698 5.33802 50.112 5.33802 48.084C5.33802 46.056 6.40402 44.47 9.08202 44.47C11.578 44.47 12.696 46.212 12.696 48.084C12.696 49.956 11.578 51.698 9.08202 51.698ZM30.5834 41.142V48.786C30.5834 50.32 29.8814 51.49 27.9314 51.49C25.9814 51.49 25.3574 50.32 25.3574 48.786V41.142H19.6894V50.086C19.6894 53.622 21.8994 55.39 25.7474 55.39C28.3994 55.39 30.0374 53.96 30.5834 53.258V55H36.2774V41.142H30.5834ZM49.8756 44.34V41.142H45.8196V37.554H40.1516V41.142H37.5776V44.34H40.1516V49.462C40.1516 53.596 41.3996 55.234 46.6256 55.234C47.6916 55.234 48.9136 55.156 49.8756 55.026V51.178C47.0936 51.412 45.8196 51.412 45.8196 49.462V44.34H49.8756ZM68.9909 40.778C66.3389 40.778 64.6749 42.182 64.1289 42.91V36.8H58.4609V55H64.1289V47.382C64.1289 45.822 64.8569 44.652 66.7809 44.652C68.7309 44.652 69.3549 45.848 69.3549 47.382V55H75.0229V46.082C75.0229 42.546 72.8129 40.778 68.9909 40.778ZM84.7737 40.778C80.2757 40.778 77.4937 41.974 76.9997 45.354H82.1737C82.3557 44.496 82.7717 43.976 84.7737 43.976C87.1917 43.976 87.4257 44.808 87.4257 46.134V46.316C77.9877 45.796 76.3237 48.136 76.3237 51.256C76.3237 53.986 78.5337 55.39 82.4597 55.39C84.8257 55.39 86.5937 54.428 87.4257 53.518V55H93.0937V46.134C93.0937 41.48 89.2457 40.778 84.7737 40.778ZM87.4257 51.048C86.6717 51.932 85.3457 52.53 83.8897 52.53C82.6157 52.53 81.8357 52.166 81.8357 51.126C81.8357 49.462 83.9677 49.306 87.4257 49.462V51.048ZM106.7 44.34V41.142H102.644V37.554H96.9758V41.142H94.4018V44.34H96.9758V49.462C96.9758 53.596 98.2238 55.234 103.45 55.234C104.516 55.234 105.738 55.156 106.7 55.026V51.178C103.918 51.412 102.644 51.412 102.644 49.462V44.34H106.7ZM116.571 40.778C112.281 40.778 107.757 42.728 107.757 48.084C107.757 53.44 112.255 55.39 116.701 55.39C120.471 55.39 123.981 54.116 124.865 50.32H119.821C119.353 51.022 118.495 51.932 116.701 51.932C114.413 51.932 113.425 50.788 113.087 49.358H125.073C125.463 42.91 120.497 40.778 116.571 40.778ZM113.191 46.472C113.581 45.198 114.595 44.236 116.571 44.236C118.313 44.236 119.353 45.042 119.769 46.472H113.191ZM143.788 40.778C141.916 40.778 140.252 41.48 139.082 42.806V41.142H133.414V59.342H139.082V53.336C140.252 54.688 141.916 55.39 143.788 55.39C148.078 55.39 151.38 52.79 151.38 48.084C151.38 43.378 148.078 40.778 143.788 40.778ZM142.332 51.698C139.654 51.698 138.588 50.112 138.588 48.084C138.588 46.056 139.654 44.47 142.332 44.47C144.828 44.47 145.946 46.212 145.946 48.084C145.946 49.956 144.828 51.698 142.332 51.698ZM152.939 35.812V55H158.607V35.812H152.939ZM168.36 40.778C163.862 40.778 161.08 41.974 160.586 45.354H165.76C165.942 44.496 166.358 43.976 168.36 43.976C170.778 43.976 171.012 44.808 171.012 46.134V46.316C161.574 45.796 159.91 48.136 159.91 51.256C159.91 53.986 162.12 55.39 166.046 55.39C168.412 55.39 170.18 54.428 171.012 53.518V55H176.68V46.134C176.68 41.48 172.832 40.778 168.36 40.778ZM171.012 51.048C170.258 51.932 168.932 52.53 167.476 52.53C166.202 52.53 165.422 52.166 165.422 51.126C165.422 49.462 167.554 49.306 171.012 49.462V51.048ZM189.292 40.778C186.614 40.778 184.976 42.182 184.43 42.91V41.142H178.762V55H184.43V47.382C184.43 45.822 185.132 44.652 187.082 44.652C189.032 44.652 189.656 45.848 189.656 47.382V55H195.324V46.082C195.324 42.546 193.114 40.778 189.292 40.778ZM207.928 40.778C205.25 40.778 203.612 42.182 203.066 42.91V41.142H197.398V55H203.066V47.382C203.066 45.822 203.768 44.652 205.718 44.652C207.668 44.652 208.292 45.848 208.292 47.382V55H213.96V46.082C213.96 42.546 211.75 40.778 207.928 40.778ZM218.869 40.102C220.585 40.102 221.807 39.14 221.807 37.424C221.807 35.708 220.585 34.72 218.869 34.72C217.153 34.72 215.931 35.708 215.931 37.424C215.931 39.14 217.153 40.102 218.869 40.102ZM216.035 55H221.703V41.142H216.035V55ZM234.309 40.778C231.631 40.778 229.993 42.182 229.447 42.91V41.142H223.779V55H229.447V47.382C229.447 45.822 230.149 44.652 232.099 44.652C234.049 44.652 234.673 45.848 234.673 47.382V55H240.341V46.082C240.341 42.546 238.131 40.778 234.309 40.778ZM254.168 41.142V42.546C252.998 41.35 251.334 40.778 249.462 40.778C245.172 40.778 241.896 42.884 241.896 47.59C241.896 52.296 245.172 54.142 249.462 54.142C251.334 54.142 252.998 53.648 254.168 52.504V53.726C254.168 56.092 252.426 56.378 250.502 56.378C248.994 56.378 247.72 56.144 247.46 55.39H242.156C242.286 58.198 245.068 59.836 250.502 59.836C255 59.836 259.836 59.212 259.836 53.726V41.142H254.168ZM250.944 50.71C248.526 50.71 247.304 49.462 247.304 47.59C247.304 45.718 248.526 44.47 250.944 44.47C253.518 44.47 254.662 45.562 254.662 47.59C254.662 49.618 253.518 50.71 250.944 50.71Z" fill="black"/>
</svg>
