<svg width="291" height="56" viewBox="0 0 291 56" fill="none" xmlns="http://www.w3.org/2000/svg">
<path d="M31.133 1.6L27.005 16.672L22.909 1.6H16.221L12.125 16.672L7.997 1.6H0.125L7.421 24H15.901L19.581 10.528L23.229 24H31.709L39.037 1.6H31.133ZM48.2693 6.496C42.9893 6.496 37.4213 8.896 37.4213 15.488C37.4213 22.08 42.9573 24.48 48.4293 24.48C53.0693 24.48 57.3893 22.912 58.4773 18.24H52.2693C51.6933 19.104 50.6373 20.224 48.4293 20.224C45.6133 20.224 44.3973 18.816 43.9813 17.056H58.7333C59.2133 9.12 53.1013 6.496 48.2693 6.496ZM44.1093 13.504C44.5893 11.936 45.8373 10.752 48.2693 10.752C50.4133 10.752 51.6933 11.744 52.2053 13.504H44.1093ZM60.6863 0.383999V24H67.6623V0.383999H60.6863ZM80.7135 19.936C77.4815 19.936 76.2655 17.792 76.2655 15.488C76.2655 13.184 77.4815 11.04 80.7135 11.04C83.2095 11.04 84.5535 12.288 85.0015 13.92H91.4655C90.6015 8.512 85.5455 6.496 80.7135 6.496C75.4655 6.496 69.5775 8.896 69.5775 15.488C69.5775 22.08 75.4655 24.48 80.7135 24.48C85.5455 24.48 90.6015 22.464 91.4655 17.024H85.0015C84.5535 18.656 83.2095 19.936 80.7135 19.936ZM103.589 6.496C98.3093 6.496 92.4213 8.896 92.4213 15.488C92.4213 22.08 98.3093 24.48 103.589 24.48C108.837 24.48 114.725 22.08 114.725 15.488C114.725 8.896 108.837 6.496 103.589 6.496ZM103.589 19.936C100.325 19.936 99.1093 17.792 99.1093 15.488C99.1093 13.184 100.325 11.04 103.589 11.04C106.821 11.04 108.037 13.184 108.037 15.488C108.037 17.792 106.821 19.936 103.589 19.936ZM140.911 6.496C137.743 6.496 135.791 8.032 134.895 9.024C133.871 7.328 131.951 6.496 129.007 6.496C125.839 6.496 124.207 8.128 123.631 9.024V6.944H116.655V24H123.631V14.624C123.631 12.704 123.951 11.264 126.287 11.264C128.623 11.264 128.847 12.736 128.847 14.624V24H135.823V14.624C135.823 12.704 136.175 11.264 138.511 11.264C140.847 11.264 141.039 12.736 141.039 14.624V24H148.015V13.024C148.015 8.672 145.615 6.496 140.911 6.496ZM160.769 6.496C155.489 6.496 149.921 8.896 149.921 15.488C149.921 22.08 155.457 24.48 160.929 24.48C165.569 24.48 169.889 22.912 170.977 18.24H164.769C164.193 19.104 163.137 20.224 160.929 20.224C158.113 20.224 156.897 18.816 156.481 17.056H171.233C171.713 9.12 165.601 6.496 160.769 6.496ZM156.609 13.504C157.089 11.936 158.337 10.752 160.769 10.752C162.913 10.752 164.193 11.744 164.705 13.504H156.609ZM195.995 10.88V6.944H191.003V2.528H184.027V6.944H180.859V10.88H184.027V17.184C184.027 22.272 185.563 24.288 191.995 24.288C193.307 24.288 194.811 24.192 195.995 24.032V19.296C192.571 19.584 191.003 19.584 191.003 17.184V10.88H195.995ZM208.464 6.496C203.184 6.496 197.296 8.896 197.296 15.488C197.296 22.08 203.184 24.48 208.464 24.48C213.712 24.48 219.6 22.08 219.6 15.488C219.6 8.896 213.712 6.496 208.464 6.496ZM208.464 19.936C205.2 19.936 203.984 17.792 203.984 15.488C203.984 13.184 205.2 11.04 208.464 11.04C211.696 11.04 212.912 13.184 212.912 15.488C212.912 17.792 211.696 19.936 208.464 19.936ZM244.339 10.88V6.944H239.347V2.528H232.371V6.944H229.203V10.88H232.371V17.184C232.371 22.272 233.907 24.288 240.339 24.288C241.651 24.288 243.155 24.192 244.339 24.032V19.296C240.915 19.584 239.347 19.584 239.347 17.184V10.88H244.339ZM259.553 6.496C256.289 6.496 254.241 8.224 253.569 9.12V1.6H246.593V24H253.569V14.624C253.569 12.704 254.465 11.264 256.833 11.264C259.233 11.264 260.001 12.736 260.001 14.624V24H266.977V13.024C266.977 8.672 264.257 6.496 259.553 6.496ZM279.738 6.496C274.458 6.496 268.89 8.896 268.89 15.488C268.89 22.08 274.426 24.48 279.898 24.48C284.538 24.48 288.858 22.912 289.946 18.24H283.738C283.162 19.104 282.106 20.224 279.898 20.224C277.082 20.224 275.866 18.816 275.45 17.056H290.202C290.682 9.12 284.57 6.496 279.738 6.496ZM275.578 13.504C276.058 11.936 277.306 10.752 279.738 10.752C281.882 10.752 283.162 11.744 283.674 13.504H275.578ZM42.4261 35.96V31.608C41.1781 31.512 39.6101 31.384 38.2981 31.384C32.0901 31.384 30.7141 34.136 30.7141 37.944H27.8981V41.88H30.7141V55H37.6901V41.88H42.1061V37.944H37.6901C37.6901 35.608 39.5141 35.64 42.4261 35.96ZM57.4224 37.944V47.352C57.4224 49.24 56.5584 50.68 54.1584 50.68C51.7584 50.68 50.9904 49.24 50.9904 47.352V37.944H44.0144V48.952C44.0144 53.304 46.7344 55.48 51.4704 55.48C54.7344 55.48 56.7504 53.72 57.4224 52.856V55H64.4304V37.944H57.4224ZM81.1666 41.88V37.944H76.1746V33.528H69.1986V37.944H66.0306V41.88H69.1986V48.184C69.1986 53.272 70.7346 55.288 77.1666 55.288C78.4786 55.288 79.9826 55.192 81.1666 55.032V50.296C77.7426 50.584 76.1746 50.584 76.1746 48.184V41.88H81.1666ZM96.8286 37.944V47.352C96.8286 49.24 95.9646 50.68 93.5646 50.68C91.1646 50.68 90.3966 49.24 90.3966 47.352V37.944H83.4206V48.952C83.4206 53.304 86.1406 55.48 90.8766 55.48C94.1406 55.48 96.1566 53.72 96.8286 52.856V55H103.837V37.944H96.8286ZM119.605 37.496C115.893 37.496 114.005 39.448 113.365 40.568V37.944H106.389V55H113.365V47.736C113.365 45.08 114.357 42.904 117.941 42.904C119.477 42.904 120.629 43.32 121.493 43.672H122.069V37.784C121.493 37.592 120.693 37.496 119.605 37.496ZM133.879 37.496C128.599 37.496 123.031 39.896 123.031 46.488C123.031 53.08 128.567 55.48 134.039 55.48C138.679 55.48 142.999 53.912 144.087 49.24H137.879C137.303 50.104 136.247 51.224 134.039 51.224C131.223 51.224 130.007 49.816 129.591 48.056H144.343C144.823 40.12 138.711 37.496 133.879 37.496ZM129.719 44.504C130.199 42.936 131.447 41.752 133.879 41.752C136.023 41.752 137.303 42.744 137.815 44.504H129.719ZM165.136 37.496C159.856 37.496 153.968 39.896 153.968 46.488C153.968 53.08 159.856 55.48 165.136 55.48C170.384 55.48 176.272 53.08 176.272 46.488C176.272 39.896 170.384 37.496 165.136 37.496ZM165.136 50.936C161.872 50.936 160.656 48.792 160.656 46.488C160.656 44.184 161.872 42.04 165.136 42.04C168.368 42.04 169.584 44.184 169.584 46.488C169.584 48.792 168.368 50.936 165.136 50.936ZM191.145 35.96V31.608C189.897 31.512 188.329 31.384 187.017 31.384C180.809 31.384 179.433 34.136 179.433 37.944H176.617V41.88H179.433V55H186.409V41.88H190.825V37.944H186.409C186.409 35.608 188.233 35.64 191.145 35.96ZM201.366 32.6V55H208.982V32.6H201.366ZM230.258 55H238.418L233.106 46.744C235.954 45.592 237.682 43.416 237.682 40.024C237.682 35.448 234.29 32.6 228.114 32.6H212.178V55H219.762V47.736H225.714L230.258 55ZM219.762 37.784H227.026C229.042 37.784 229.97 38.552 229.97 40.024C229.97 41.464 229.266 42.616 227.026 42.616H219.762V37.784ZM262.446 49.848H247.918V32.6H240.334V55H262.446V49.848Z" fill="black"/>
</svg>
