<svg width="19" height="18" viewBox="0 0 19 18" fill="none" xmlns="http://www.w3.org/2000/svg">
<path d="M9.37683 12.375V13.95" stroke="#F5EBE9" stroke-width="1.125" stroke-linecap="round" stroke-linejoin="round"/>
<path d="M5.62683 16.5H13.1268V15.75C13.1268 14.925 12.4518 14.25 11.6268 14.25H7.12683C6.30183 14.25 5.62683 14.925 5.62683 15.75V16.5V16.5Z" stroke="#F5EBE9" stroke-width="1.125" stroke-miterlimit="10"/>
<path d="M4.87683 16.5H13.8768" stroke="#F5EBE9" stroke-width="1.125" stroke-linecap="round" stroke-linejoin="round"/>
<path d="M9.26404 12C6.36154 12 4.01404 9.6525 4.01404 6.75V4.5C4.01404 2.8425 5.35654 1.5 7.01404 1.5H11.514C13.1715 1.5 14.514 2.8425 14.514 4.5V6.75C14.514 9.6525 12.1665 12 9.26404 12Z" stroke="#F5EBE9" stroke-width="1.125" stroke-linecap="round" stroke-linejoin="round"/>
<path d="M4.36657 8.73721C3.80407 8.55721 3.30907 8.22721 2.91907 7.83721C2.24407 7.08721 1.79407 6.18721 1.79407 5.13721C1.79407 4.08721 2.61907 3.26221 3.66907 3.26221H4.15657C4.00657 3.60721 3.93157 3.98971 3.93157 4.38721V6.63721C3.93157 7.38721 4.08907 8.09221 4.36657 8.73721Z" stroke="#F5EBE9" stroke-width="1.125" stroke-linecap="round" stroke-linejoin="round"/>
<path d="M14.1617 8.73721C14.7242 8.55721 15.2192 8.22721 15.6092 7.83721C16.2842 7.08721 16.7342 6.18721 16.7342 5.13721C16.7342 4.08721 15.9092 3.26221 14.8592 3.26221H14.3717C14.5217 3.60721 14.5967 3.98971 14.5967 4.38721V6.63721C14.5967 7.38721 14.4392 8.09221 14.1617 8.73721Z" stroke="#F5EBE9" stroke-width="1.125" stroke-linecap="round" stroke-linejoin="round"/>
</svg>