<svg width="25" height="24" viewBox="0 0 25 24" fill="none" xmlns="http://www.w3.org/2000/svg">
<path d="M19.764 12.5C19.764 11.12 20.884 10 22.264 10V9C22.264 5 21.264 4 17.264 4H7.26404C3.26404 4 2.26404 5 2.26404 9V9.5C3.64404 9.5 4.76404 10.62 4.76404 12C4.76404 13.38 3.64404 14.5 2.26404 14.5V15C2.26404 19 3.26404 20 7.26404 20H17.264C21.264 20 22.264 19 22.264 15C20.884 15 19.764 13.88 19.764 12.5Z" stroke="black" stroke-width="1.5" stroke-linecap="round" stroke-linejoin="round"/>
<path d="M10.264 4L10.264 20" stroke="black" stroke-width="1.5" stroke-linecap="round" stroke-linejoin="round" stroke-dasharray="5 5"/>
</svg>
