<svg width="390" height="1115" viewBox="0 0 390 1115" fill="none" xmlns="http://www.w3.org/2000/svg">
<g clip-path="url(#clip0_579_1886)">
<path d="M392.07 1082.04V1114.07H360.035C342.343 1114.07 328 1099.73 328 1082.04C328 1064.34 342.343 1050 360.035 1050C377.728 1050 392.07 1064.34 392.07 1082.04Z" stroke="black" stroke-opacity="0.1" stroke-width="2"/>
<mask id="path-3-inside-1_579_1886" fill="white">
<path d="Mnan nanL-19 876.035C-0.755259 876.035 14.035 890.825 14.035 909.07Lnan nanL14.035 909.07Lnan nanL14.035 909.07C-4.20972 909.07 -19 894.28 -19 876.035Lnan nanL-19 876.035Lnan nanZ"/>
</mask>
<path d="M14.035 907.07C-3.10515 907.07 -17 893.175 -17 876.035L-21 876.035C-21 895.384 -5.31429 911.07 14.035 911.07L14.035 907.07ZM16.035 909.07C16.035 889.721 0.349311 874.035 -19 874.035L-19 878.035C-1.85983 878.035 12.035 891.93 12.035 909.07L16.035 909.07Z" fill="black" fill-opacity="0.1" mask="url(#path-3-inside-1_579_1886)"/>
<mask id="path-5-inside-2_579_1886" fill="white">
<path d="Mnan nanL-19 876.035C-0.755259 876.035 14.035 861.245 14.035 843Lnan nanL14.035 843Lnan nanL14.035 843C-4.20971 843 -19 857.79 -19 876.035Lnan nanL-19 876.035Lnan nanZ"/>
</mask>
<path d="M14.035 845C-3.10514 845 -17 858.895 -17 876.035L-21 876.035C-21 856.686 -5.31428 841 14.035 841L14.035 845ZM16.035 843C16.035 862.349 0.349311 878.035 -19 878.035L-19 874.035C-1.85983 874.035 12.035 860.14 12.035 843L16.035 843Z" fill="black" fill-opacity="0.1" mask="url(#path-5-inside-2_579_1886)"/>
<mask id="path-7-inside-3_579_1886" fill="white">
<path d="Mnan nanL47.0701 876.035C28.8253 876.035 14.035 890.825 14.035 909.07Lnan nanL14.035 909.07Lnan nanL14.035 909.07C32.2798 909.07 47.0701 894.28 47.0701 876.035Lnan nanL47.0701 876.035Lnan nanZ"/>
</mask>
<path d="M14.035 907.07C31.1752 907.07 45.0701 893.175 45.0701 876.035L49.0701 876.035C49.0701 895.384 33.3844 911.07 14.035 911.07L14.035 907.07ZM12.035 909.07C12.035 889.721 27.7208 874.035 47.0701 874.035L47.0701 878.035C29.9299 878.035 16.035 891.93 16.035 909.07L12.035 909.07Z" fill="black" fill-opacity="0.1" mask="url(#path-7-inside-3_579_1886)"/>
<mask id="path-9-inside-4_579_1886" fill="white">
<path d="Mnan nanL47.0701 876.035C28.8253 876.035 14.035 861.245 14.035 843Lnan nanL14.035 843Lnan nanL14.035 843C32.2798 843 47.0701 857.79 47.0701 876.035Lnan nanL47.0701 876.035Lnan nanZ"/>
</mask>
<path d="M14.035 845C31.1752 845 45.0701 858.895 45.0701 876.035L49.0701 876.035C49.0701 856.686 33.3844 841 14.035 841L14.035 845ZM12.035 843C12.035 862.349 27.7208 878.035 47.0701 878.035L47.0701 874.035C29.9299 874.035 16.035 860.14 16.035 843L12.035 843Z" fill="black" fill-opacity="0.1" mask="url(#path-9-inside-4_579_1886)"/>
<path d="M-12.8601 441.897L35.2638 463.333L43.2578 445.386C45.8169 439.641 43.234 432.909 37.4887 430.349L-0.232333 413.548C-5.97766 410.989 -12.7097 413.571 -15.2688 419.317L-18.6292 426.861C-21.1883 432.606 -18.6054 439.338 -12.8601 441.897Z" stroke="black" stroke-opacity="0.1" stroke-width="2"/>
<path d="M50.9301 400.173L2.80629 378.737L-5.18777 396.684C-7.74687 402.43 -5.16394 409.162 0.581385 411.721L38.3024 428.523C44.0477 431.082 50.7798 428.499 53.3389 422.753L56.6993 415.209C59.2584 409.464 56.6755 402.732 50.9301 400.173Z" stroke="black" stroke-opacity="0.1" stroke-width="2"/>
<path d="M365.035 650.07H397.07V618.035C397.07 600.343 382.728 586 365.035 586H333V618.035C333 635.727 347.343 650.07 365.035 650.07Z" stroke="black" stroke-opacity="0.1" stroke-width="2"/>
<mask id="path-14-inside-5_579_1886" fill="white">
<path d="Mnan nanL381.923 415.923C362.017 438.5 327.577 440.665 305 420.758Lnan nanL305 420.758Lnan nanL305 420.758C324.907 398.181 359.346 396.016 381.923 415.923Lnan nanL381.923 415.923Lnan nanZ"/>
</mask>
<path d="M306.5 422.081C325.676 400.333 358.852 398.247 380.6 417.423L383.246 414.423C359.84 393.786 324.137 396.03 303.5 419.436L306.5 422.081ZM303.677 422.258C327.083 442.895 362.786 440.651 383.423 417.246L380.423 414.6C361.247 436.349 328.071 438.434 306.323 419.258L303.677 422.258Z" fill="black" fill-opacity="0.1" mask="url(#path-14-inside-5_579_1886)"/>
<mask id="path-16-inside-6_579_1886" fill="white">
<path d="Mnan nanL381.923 415.923C401.829 393.346 399.664 358.906 377.087 339Lnan nanL377.087 339Lnan nanL377.087 339C357.181 361.577 359.346 396.016 381.923 415.923Lnan nanL381.923 415.923Lnan nanZ"/>
</mask>
<path d="M378.588 340.323C359.412 362.071 361.497 395.247 383.246 414.423L380.6 417.423C357.195 396.786 354.95 361.083 375.587 337.677L378.588 340.323ZM378.41 337.5C401.816 358.137 404.06 393.84 383.423 417.246L380.423 414.6C399.599 392.852 397.513 359.676 375.765 340.5L378.41 337.5Z" fill="black" fill-opacity="0.1" mask="url(#path-16-inside-6_579_1886)"/>
<mask id="path-18-inside-7_579_1886" fill="white">
<path d="Mnan nanL381.923 415.923C362.017 438.5 364.181 472.939 386.758 492.846Lnan nanL386.758 492.846Lnan nanL386.758 492.846C406.665 470.269 404.5 435.829 381.923 415.923Lnan nanL381.923 415.923Lnan nanZ"/>
</mask>
<path d="M385.258 491.523C404.434 469.775 402.349 436.599 380.6 417.423L383.246 414.423C406.651 435.06 408.895 470.763 388.259 494.168L385.258 491.523ZM385.436 494.346C362.03 473.709 359.786 438.006 380.423 414.6L383.423 417.246C364.247 438.994 366.333 472.17 388.081 491.346L385.436 494.346Z" fill="black" fill-opacity="0.1" mask="url(#path-18-inside-7_579_1886)"/>
<mask id="path-20-inside-8_579_1886" fill="white">
<path d="Mnan nanL381.923 415.923C401.829 393.346 436.269 391.181 458.846 411.087Lnan nanL458.846 411.087Lnan nanL458.846 411.087C438.939 433.664 404.5 435.829 381.923 415.923Lnan nanL381.923 415.923Lnan nanZ"/>
</mask>
<path d="M457.346 409.765C438.17 431.513 404.994 433.599 383.246 414.423L380.6 417.423C404.006 438.06 439.709 435.816 460.346 412.41L457.346 409.765ZM460.168 409.587C436.763 388.95 401.06 391.195 380.423 414.6L383.423 417.246C402.599 395.497 435.775 393.412 457.523 412.588L460.168 409.587Z" fill="black" fill-opacity="0.1" mask="url(#path-20-inside-8_579_1886)"/>
<mask id="path-22-inside-9_579_1886" fill="white">
<path d="Mnan nanL390.07 -13C390.07 23.4895 360.489 53.0701 324 53.0701Lnan nanL324 53.0701Lnan nanL324 53.0701C324 16.5806 353.581 -13 390.07 -13Lnan nanL390.07 -13Lnan nanZ"/>
</mask>
<path d="M326 53.0701C326 17.6851 354.685 -11 390.07 -11V-15C352.476 -15 322 15.476 322 53.0701H326ZM324 55.0701C361.594 55.0701 392.07 24.5941 392.07 -13H388.07C388.07 22.3849 359.385 51.0701 324 51.0701V55.0701Z" fill="black" fill-opacity="0.1" mask="url(#path-22-inside-9_579_1886)"/>
</g>
<defs>
<clipPath id="clip0_579_1886">
<path d="M0 40C0 17.9086 17.9086 0 40 0H350C372.091 0 390 17.9086 390 40V1075C390 1097.09 372.091 1115 350 1115H40C17.9086 1115 0 1097.09 0 1075V40Z" fill="white"/>
</clipPath>
</defs>
</svg>
