<svg width="175" height="64" viewBox="0 0 175 64" fill="none" xmlns="http://www.w3.org/2000/svg">
<g clip-path="url(#clip0_329_1917)">
<rect x="7.0017" y="-47.3389" width="70.6593" height="63" transform="rotate(49.3766 7.0017 -47.3389)" stroke="black"/>
<path d="M126 41.7007L125.754 41.2656L126 41.7007ZM49.9841 58.2016C49.7081 58.2104 49.4915 58.4412 49.5003 58.7172L49.643 63.215C49.6518 63.491 49.8826 63.7076 50.1587 63.6989C50.4347 63.6901 50.6513 63.4592 50.6425 63.1832L50.5156 59.1853L54.5136 59.0583C54.7896 59.0496 55.0062 58.8187 54.9975 58.5427C54.9887 58.2667 54.7579 58.0501 54.4819 58.0588L49.9841 58.2016ZM199.072 58.2063C194.085 57.4764 189.641 54.6426 185.089 51.0807C180.572 47.5454 175.92 43.265 170.647 39.8441C165.348 36.4061 159.355 33.7837 152.049 33.5216C144.746 33.2596 136.186 35.358 125.754 41.2656L126.246 42.1358C136.564 36.2935 144.941 34.2672 152.013 34.5209C159.083 34.7746 164.902 37.3085 170.103 40.683C175.33 44.0746 179.866 48.2629 184.473 51.8682C189.046 55.447 193.665 58.4256 198.928 59.1957L199.072 58.2063ZM125.754 41.2656C120.936 43.9939 115.79 48.3498 110.327 52.8181C104.845 57.3026 99.0229 61.9199 92.7951 65.2501C86.5723 68.5775 79.9771 70.6019 72.9495 69.9341C65.9267 69.2668 58.4062 65.9046 50.3422 58.3368L49.6578 59.066C57.8438 66.7482 65.5627 70.2367 72.8549 70.9296C80.1422 71.6221 86.9374 69.5163 93.2666 66.1319C99.5907 62.7503 105.482 58.0741 110.961 53.5922C116.459 49.0942 121.522 44.8108 126.246 42.1358L125.754 41.2656Z" fill="black"/>
</g>
<defs>
<clipPath id="clip0_329_1917">
<rect width="175" height="64" rx="16" fill="white"/>
</clipPath>
</defs>
</svg>
