<svg width="144" height="135" viewBox="0 0 144 135" fill="none" xmlns="http://www.w3.org/2000/svg">
<g clip-path="url(#clip0_1754_8333)">
<path d="M92.1623 126.737C92.1623 131.299 71.5485 135 46.1227 135C20.697 135 0.0831299 131.299 0.0831299 126.737C0.0831299 122.175 20.697 118.479 46.1227 118.479C71.5485 118.479 92.1623 122.18 92.1623 126.737Z" fill="#000002"/>
<path d="M116.043 78.3516C116.043 106.569 93.1722 129.441 64.9603 129.441C36.7484 129.441 13.8771 106.569 13.8771 78.3516C13.8771 50.1338 36.7484 27.2744 64.9603 27.2744C93.1722 27.2744 116.043 50.1398 116.043 78.3516Z" fill="white"/>
<path fill-rule="evenodd" clip-rule="evenodd" d="M62.091 130.107C61.0989 129.876 60.1068 129.644 58.9781 129.383C59.1148 128.682 59.3167 127.987 59.388 127.28C59.7207 123.959 58.7762 122.575 55.6098 121.618C55.1821 121.488 54.5524 121.505 54.3504 121.226C53.8455 120.501 53.5365 119.646 53.1445 118.85C53.9821 118.565 55.0276 117.81 55.6217 118.072C57.5286 118.909 59.4356 119.931 61.0158 121.274C61.7583 121.903 62.0969 123.442 62.0197 124.529C61.8296 127.161 62.4356 128.925 65.3821 129.252C65.8217 129.299 66.2078 129.822 66.6237 130.125H62.091V130.107Z" fill="#000002"/>
<path fill-rule="evenodd" clip-rule="evenodd" d="M14.5069 83.8848C15.4515 84.2471 16.4019 84.6155 17.8396 85.1679C16.7287 86.1719 16.0871 86.7541 15.2732 87.4907C14.9762 86.8075 14.7445 86.2491 14.5069 85.6966V83.8848Z" fill="#000002"/>
<path fill-rule="evenodd" clip-rule="evenodd" d="M90.7781 76.7498C91.9306 73.138 92.6078 72.7934 95.9168 73.6132C98.691 74.2964 101.525 74.7419 104.305 75.3894C105.386 75.6449 106.378 76.3221 107.459 76.5241C108.309 76.6786 109.348 76.6073 110.085 76.2211C110.531 75.9835 110.941 74.6706 110.697 74.3439C110.24 73.732 109.331 73.2568 108.546 73.1201C103.901 72.3182 99.2316 71.635 94.2296 70.8627C94.9128 69.4667 95.3583 68.5459 95.6078 68.0469C99.8554 68.6825 103.853 69.2172 107.816 69.9182C109.117 70.1498 110.335 70.833 111.612 71.2667C112.978 71.73 114.368 72.1459 116.139 72.7043C116.18 72.9835 116.299 73.7558 116.447 74.7538C114.119 74.5756 113.329 75.9716 112.23 77.5756C110.519 80.0706 108.772 82.4885 108.012 85.4172C107.774 86.3142 108.137 87.5142 108.594 88.3815C108.79 88.7498 110.418 88.8984 110.537 88.6786C110.994 87.8409 111.368 86.7894 111.273 85.8627C111.119 84.3716 110.881 82.9459 112.337 82.031C112.717 81.7934 113.887 81.9894 113.929 82.1617C114.22 83.3914 114.422 84.6687 114.44 85.9281C114.469 87.9241 114.481 89.938 114.22 91.9043C113.887 94.3696 113.263 96.7934 112.735 99.3894C110.026 98.9261 107.739 99.0805 106.158 96.7221C105.624 95.9261 103.99 95.8013 102.826 95.5162C101.566 95.2073 100.224 95.2073 98.994 94.8211C96.3623 93.9894 93.8316 92.7241 91.1524 92.1776C89.9465 91.934 88.1583 92.6528 87.19 93.538C83.9762 96.4726 80.9762 99.6508 77.988 102.823C77.596 103.239 77.7742 104.189 77.6851 104.896C78.5702 104.884 79.8177 105.247 80.2752 104.801C82.9009 102.211 85.3187 99.4251 87.8435 96.734C88.5504 95.9795 89.2811 95.1241 90.1781 94.7201C90.7366 94.4706 91.6336 94.9875 92.3821 95.1597C92.2039 95.8904 92.2692 96.8706 91.8177 97.3043C89.0435 99.93 86.1207 102.401 83.3346 105.015C82.8593 105.461 82.8415 106.387 82.6158 107.088C83.4474 107.088 84.6118 107.451 85.0573 107.035C88.2059 104.148 91.2177 101.094 94.2534 98.0825C94.6217 97.7201 94.8593 96.93 95.2098 96.8944C96.1781 96.7994 97.2177 96.8766 98.1207 97.1974C98.3168 97.2687 98.3762 98.9617 97.9722 99.3182C94.0098 102.865 89.988 106.358 85.8653 109.714C84.2732 111.009 82.7999 110.397 80.9999 109.269C78.7425 107.855 75.8851 107.397 73.3247 106.441C72.5346 106.144 71.8514 105.568 71.1148 105.116C71.7088 104.498 72.2375 103.785 72.9207 103.275C73.9722 102.49 75.3088 102.021 76.1999 101.1C79.2831 97.8984 82.2177 94.5538 85.2118 91.2687C87.392 88.8865 89.1742 88.5241 92.3227 89.5578C95.6138 90.639 98.9286 91.637 102.267 92.5696C103.853 93.0152 105.35 92.6528 106.093 91.0192C106.354 90.4489 106.36 89.4449 106.01 89.0112C105.707 88.637 104.744 88.7261 104.079 88.7439C102.339 88.7914 100.533 89.2429 98.8752 88.9221C96.1544 88.3934 93.4989 87.4607 90.8673 86.5399C88.8475 85.839 87.1069 86.2726 85.592 87.5558C84.2257 88.7261 82.889 89.9855 81.796 91.3994C78.2197 96.0508 73.9069 99.8409 68.893 102.865C66.992 104.005 66.9326 104.492 68.6078 105.972C69.4336 106.708 70.4138 107.522 69.3623 108.574C68.2633 109.673 67.1999 108.954 66.2494 108.015C65.2217 106.999 64.2237 105.704 62.9524 105.259C62.0791 104.956 60.79 106.037 59.6435 106.209C58.8118 106.334 57.9029 105.978 57.0296 105.841C57.2732 105.164 57.3504 104.32 57.8019 103.839C59.2811 102.247 59.2633 101.778 57.3148 100.637C55.5861 99.6271 53.8455 98.6409 51.8672 97.5063C54.9623 96.0152 59.2039 97.4231 60.7484 100.09C62.6732 103.423 63.0356 103.494 66.2732 101.332C66.897 100.916 67.7168 100.696 68.1861 100.156C68.697 99.5617 68.8989 98.7063 69.2375 97.9696C68.3524 97.8152 67.4613 97.5419 66.5762 97.5657C66.1544 97.5835 65.7326 98.1479 65.3405 98.5043C64.2534 99.5023 62.8811 99.6924 62.3702 98.3142C62.0554 97.4647 62.7504 95.9795 63.4276 95.1241C63.7544 94.7142 65.097 95.1657 65.9702 95.1122C66.7009 95.0647 67.5861 95.0588 68.1207 94.6607C69.3207 93.7518 70.3484 92.6112 71.4415 91.5597C71.7326 91.7736 72.0177 91.9875 72.3088 92.2013C71.8989 93.0508 71.3583 93.8647 71.1207 94.7617C70.9187 95.534 71.0554 96.3894 71.0435 97.2152C71.8692 96.9479 72.9682 96.93 73.4851 96.3776C76.5148 93.1459 79.3603 89.7479 82.3603 86.4924C85.0455 83.5696 88.2177 82.4409 92.1504 83.9498C94.5385 84.8588 97.0276 85.53 99.4989 86.1835C103.758 87.3063 107.162 84.6271 106.937 80.2667C106.907 79.7142 106.022 78.9003 105.392 78.734C101.394 77.6706 97.3722 76.6726 93.3207 75.8528C92.5425 75.6924 91.5861 76.3875 90.7187 76.6904L90.79 76.7558L90.7781 76.7498ZM112.925 94.3043C111.6 92.938 110.673 91.9815 109.746 91.031C109.016 91.8568 107.519 93.0805 107.697 93.4251C108.285 94.5479 109.42 95.4508 110.519 96.1815C110.727 96.3182 111.725 95.2607 112.925 94.3043Z" fill="#000002"/>
<path fill-rule="evenodd" clip-rule="evenodd" d="M103.99 112.209C101.537 115.221 99.9327 115.566 96.1069 113.172C93.8733 111.776 92.4238 112.31 90.3802 113.356C86.7921 115.203 83.8515 117.484 81.8554 121.09C79.7584 124.869 76.3485 127.399 72.5287 129.282C71.9406 129.568 70.8654 129.098 70.1109 128.766C69.101 128.32 68.2456 127.441 67.2119 127.15C65.1149 126.556 64.7465 124.922 64.3842 123.193C64.0277 121.476 64.4555 120.128 66.0119 119.112C67.0099 118.459 67.9663 117.645 68.6733 116.7C69.0416 116.213 68.8277 115.286 68.8753 114.562C68.0673 114.615 67.0693 114.383 66.499 114.781C65.6673 115.352 65.1624 116.385 64.4911 117.199C63.3089 118.637 61.8357 119.118 60.3564 117.853C56.6792 114.692 53.4475 114.271 49.9366 118.334C47.9168 120.669 45.1248 122.344 42.4515 124.5C42.1129 124.328 41.3941 123.966 40.1644 123.342C42.006 121.512 43.6337 119.819 45.3505 118.227C47.002 116.688 48.6713 115.144 50.4951 113.825C51.3267 113.219 52.5624 113.201 53.5663 112.809C54.3564 112.5 55.0812 112.013 55.8357 111.609C55.1584 111.015 54.4337 109.88 53.8099 109.934C52.2594 110.071 50.4119 110.338 49.2891 111.282C45.3802 114.574 41.7327 118.174 37.8059 121.827C37.2594 121.477 36.5406 121.013 35.602 120.413C36.8792 119.059 37.9545 117.799 39.1366 116.671C41.8634 114.063 44.6614 111.532 47.4 108.936C49.9663 106.506 53.1149 106.078 56.002 108.063C57.4456 109.049 58.7584 109.459 60.404 108.704C62.0555 107.944 63.4634 108.443 64.7109 109.69C65.4 110.379 66.1307 111.069 66.9564 111.562C68.5663 112.524 69.9624 112.381 70.8713 110.492C71.1267 109.958 71.4475 109.179 71.8812 109.067C72.6535 108.871 73.6515 108.877 74.305 109.245C74.6079 109.417 74.5129 110.724 74.2515 111.372C73.5208 113.136 72.7248 114.9 71.7327 116.528C70.7703 118.114 69.6 119.587 68.3941 121.001C66.9921 122.635 66.998 123.36 68.7327 124.655C71.4535 126.686 73.1347 126.894 75.4812 124.37C77.8634 121.815 79.5743 118.637 81.7307 115.851C82.5921 114.734 83.7267 113.677 84.9624 113.023C88.4792 111.181 91.9782 109.595 94.6574 106.31C96.6535 103.863 99.404 102.039 101.085 99.1755C101.465 98.528 103.04 98.3379 104.038 98.3914C104.507 98.4211 105.404 99.7458 105.244 100.132C104.893 100.981 104.05 101.671 103.295 102.294C102.921 102.603 102.19 102.484 101.834 102.799C101.323 103.251 100.669 103.934 100.699 104.48C100.723 104.92 101.626 105.467 102.238 105.68C103.978 106.292 105.766 106.756 107.578 107.296C106.794 109.477 105.832 110.439 103.782 109.334C102.469 108.627 101.085 107.95 99.6475 107.599C98.6792 107.362 97.497 107.516 96.5525 107.878C96.0891 108.051 95.697 109.108 95.7564 109.714C95.798 110.094 96.7129 110.516 97.301 110.671C99.3861 111.217 101.507 111.651 103.99 112.221V112.209ZM60.7782 111.532C60.7188 111.407 60.6594 111.282 60.6 111.164C59.703 111.615 58.8059 112.067 57.9089 112.518C58.7465 113.249 59.5663 114.009 60.4456 114.698C60.7188 114.906 61.2357 115.096 61.497 114.977C62.3941 114.562 63.7604 114.164 63.9683 113.463C64.3782 112.084 63.1307 111.621 61.901 111.532C61.5327 111.508 61.1584 111.532 60.7842 111.532H60.7782Z" fill="#000002"/>
<path fill-rule="evenodd" clip-rule="evenodd" d="M29.0792 114.833C28.699 114.429 28.1881 113.889 27.4099 113.069C29.6554 111.085 31.8238 109.166 33.9921 107.241C34.503 106.79 35.1921 106.41 35.4475 105.845C35.7505 105.15 35.6792 104.295 35.7743 103.505C34.9247 103.606 33.7901 103.398 33.2673 103.867C30.7069 106.142 28.301 108.596 25.7346 111.097C25.0099 110.164 24.4634 109.469 23.6614 108.435C24.8139 107.509 25.8713 106.618 26.9703 105.786C28.1703 104.877 29.6079 104.194 30.5703 103.095C31.1287 102.459 30.9505 101.188 31.1049 100.196C30.2139 100.463 29.2218 100.582 28.4614 101.057C27.8733 101.425 27.6891 102.435 27.1069 102.81C26.4535 103.225 25.5445 103.243 24.7485 103.439C24.6356 102.643 24.2792 101.782 24.4871 101.081C24.701 100.356 25.4198 99.7442 26.002 99.168C27.4574 97.7244 28.895 96.2512 30.4812 94.9561C31.0099 94.5225 32.0911 94.3086 32.6673 94.5641C33.0832 94.7482 33.3327 95.9245 33.2079 96.572C32.9703 97.7779 31.8713 99.1561 33.5881 99.8928C35.4416 100.689 37.1643 102.827 39.5406 100.944C40.0634 100.534 40.6871 99.9997 41.2752 99.9878C41.9109 99.97 42.695 100.362 43.1465 100.831C43.3723 101.063 43.2059 102.18 42.897 102.37C37.5089 105.637 34.901 111.917 29.097 114.833H29.0792Z" fill="#000002"/>
<path fill-rule="evenodd" clip-rule="evenodd" d="M115.372 69.3471C114.944 69.3174 114.44 69.4243 114.095 69.2402C111.279 67.7194 108.291 66.8402 105.083 66.7332C103.687 66.6916 102.273 66.7273 100.895 66.5491C100.087 66.4421 99.3207 65.9907 98.5366 65.6877C98.8395 64.9154 98.9346 63.7867 99.4989 63.4659C100.384 62.9669 101.62 62.7412 102.636 62.8897C104.026 63.0976 105.321 63.9233 106.711 64.1491C107.406 64.2619 108.226 63.6204 108.992 63.3233C108.558 62.5511 108.279 61.5946 107.649 61.0778C107.15 60.6679 106.194 60.8758 105.481 60.6679C104.418 60.359 103.123 60.1867 102.422 59.4738C101.881 58.9214 102.095 57.6263 101.976 56.658C102.79 56.5867 103.687 56.2481 104.394 56.4857C106.443 57.1867 108.392 58.1847 110.424 58.9451C111.986 59.5332 112.224 60.5015 111.772 61.9689C110.881 64.8441 111.214 65.0758 113.875 65.9431C114.79 66.2402 115.313 67.7669 116.008 68.7293C115.8 68.9313 115.592 69.1332 115.384 69.3412L115.372 69.3471Z" fill="#000002"/>
<path fill-rule="evenodd" clip-rule="evenodd" d="M33.2614 118.607C32.5663 117.983 32.0792 117.537 30.7426 116.325C31.6455 115.874 32.5544 115.654 33.1188 115.096C37.1287 111.133 41.0792 107.118 45.0119 103.078C46.0099 102.05 47.0198 101.676 48.1485 102.674C49.1762 103.583 48.8732 104.551 47.9643 105.383C44.0435 108.989 40.1228 112.595 36.1841 116.183C35.299 116.985 34.3426 117.716 33.2614 118.601V118.607Z" fill="#000002"/>
<path fill-rule="evenodd" clip-rule="evenodd" d="M98.6495 117.55C97.4138 119.112 96.1901 119.593 94.2534 118.88C93.3148 118.53 91.6812 119.059 90.802 119.748C89.1564 121.031 87.6237 122.575 86.4119 124.274C84.695 126.686 82.2 127.162 79.5148 127.892C82.1168 124.797 84.4455 121.75 87.0594 118.975C91.1228 114.669 93.7128 114.425 98.6554 117.55H98.6495Z" fill="#000002"/>
<path fill-rule="evenodd" clip-rule="evenodd" d="M77.7326 110.42C79.9128 110.396 81.0415 111.941 80.2395 113.23C78.4277 116.147 76.5683 119.04 74.6673 121.903C74.2752 122.491 73.6574 123.115 73.0217 123.311C72.4514 123.49 71.5425 123.27 71.1089 122.872C70.8534 122.64 70.996 121.434 71.3465 121.143C74.3108 118.707 75.291 115.226 76.5683 111.87C76.8178 111.216 77.4831 110.723 77.7386 110.42H77.7326Z" fill="#000002"/>
<path fill-rule="evenodd" clip-rule="evenodd" d="M90.7069 76.6846C90.2851 78.2232 91.1702 78.6806 92.4594 78.9004C95.8455 79.4707 99.2257 80.0529 102.594 80.7242C103.04 80.8133 103.758 81.5974 103.681 81.8469C103.455 82.5479 102.992 83.5162 102.422 83.6885C101.566 83.938 100.503 83.7361 99.5881 83.4806C95.6376 82.3875 91.7168 81.2054 87.2316 79.9044C88.5386 78.7341 89.6554 77.742 90.7722 76.744L90.7069 76.6846Z" fill="#000002"/>
<path fill-rule="evenodd" clip-rule="evenodd" d="M48.3921 100.774C46.6753 99.8767 45.3089 99.253 44.0317 98.4807C42.1069 97.3223 40.2951 96.5797 38.2455 98.3381C37.8238 98.7005 36.4455 98.6292 36.1129 98.2371C35.6376 97.6847 35.602 96.6451 35.6614 95.8312C35.6733 95.653 36.903 95.3857 37.5386 95.4629C41.198 95.9084 44.8634 96.3659 48.4871 97.0193C49.1525 97.1441 50.097 98.2134 50.0911 98.8371C50.0792 99.4668 49.0455 100.079 48.398 100.768L48.3921 100.774Z" fill="#000002"/>
<path fill-rule="evenodd" clip-rule="evenodd" d="M26.0376 92.2481C26.5723 92.6224 27.3624 93.1689 28.1465 93.7095C27.4752 94.3808 26.8099 95.058 26.1327 95.7174C24.998 96.8283 23.8218 97.8976 22.7347 99.0501C22.1881 99.6323 21.9267 100.553 21.303 100.963C20.8812 101.242 19.9723 101.064 19.4257 100.791C19.099 100.63 18.7723 99.6857 18.9386 99.4481C20.5663 97.1551 22.2653 94.9095 24.0356 92.7234C24.2911 92.4085 25.0218 92.4679 26.0376 92.2422V92.2481Z" fill="#000002"/>
<path fill-rule="evenodd" clip-rule="evenodd" d="M23.4653 89.7835C19.6336 90.3894 19.2713 93.7399 17.6138 95.9736C15.796 93.3063 15.7604 91.0548 17.4713 89.332C19.5742 87.2112 19.8356 87.2172 23.4653 89.7835Z" fill="#000002"/>
<path fill-rule="evenodd" clip-rule="evenodd" d="M45.701 125.753C46.9366 124.309 47.9941 122.812 49.3307 121.63C49.8772 121.149 51.0297 121.363 51.9089 121.256C51.7901 122.076 51.8257 122.967 51.499 123.692C51.2079 124.339 50.4178 124.749 50.0139 125.367C48.8376 127.167 47.4832 127.208 45.7069 125.747L45.701 125.753Z" fill="#000002"/>
<path fill-rule="evenodd" clip-rule="evenodd" d="M106.598 48.6504C108.564 51.0385 108.689 51.9831 106.865 53.8781C106.372 54.389 105.208 54.2464 104.346 54.4068C104.275 53.5573 103.889 52.5593 104.21 51.894C104.774 50.7118 105.766 49.7316 106.598 48.6504Z" fill="#000002"/>
<path fill-rule="evenodd" clip-rule="evenodd" d="M51.6713 128.058C52.301 126.905 52.7406 125.854 53.4059 124.987C53.798 124.476 54.7188 123.858 55.1287 124.012C55.7525 124.244 56.4237 125.046 56.5782 125.717C56.994 127.571 55.3366 128.985 53.4416 128.551C52.9307 128.432 52.4317 128.272 51.6713 128.058Z" fill="#000002"/>
<path fill-rule="evenodd" clip-rule="evenodd" d="M100.04 54.6862C100.218 52.3753 100.331 49.7911 100.711 47.2486C100.77 46.8268 102.16 46.1852 102.683 46.3693C103.218 46.5476 103.919 47.8664 103.717 48.2763C102.6 50.5337 101.234 52.6664 100.04 54.6862Z" fill="#000002"/>
<path fill-rule="evenodd" clip-rule="evenodd" d="M53.0614 105.65C51.9861 104.39 51.0297 103.642 50.6673 102.667C50.5248 102.275 52.0753 100.766 52.2 100.844C53.305 101.521 54.2673 102.442 55.2654 103.285C54.6891 103.903 54.1188 104.515 53.0614 105.65Z" fill="#000002"/>
<path fill-rule="evenodd" clip-rule="evenodd" d="M111.214 101.829C109.948 103.421 109.954 105.958 107.394 104.788C106.77 104.503 106.01 103.071 106.23 102.613C107.293 100.421 109.099 101.592 111.214 101.829Z" fill="#000002"/>
<path fill-rule="evenodd" clip-rule="evenodd" d="M115.871 81.3827C115.354 80.5867 114.523 79.8263 114.428 78.9886C114.368 78.4183 115.343 77.7352 115.853 77.1055C116.02 77.1886 116.186 77.2777 116.352 77.3669V81.1213C116.192 81.2104 116.026 81.2995 115.865 81.3827H115.871Z" fill="#000002"/>
<path fill-rule="evenodd" clip-rule="evenodd" d="M109.669 53.1885C110.507 54.7093 111.018 55.636 111.529 56.5687C111.35 56.7469 111.178 56.9251 111 57.1093C110.317 56.6103 109.449 56.236 109.022 55.5707C108.796 55.2202 109.319 54.3825 109.669 53.1885Z" fill="#000002"/>
<path fill-rule="evenodd" clip-rule="evenodd" d="M20.3464 103.12C22.9544 103.239 23.5009 104.035 22.2949 106.233C21.6118 105.14 21.0058 104.178 20.3464 103.12Z" fill="#000002"/>
<path d="M64.9604 130.854C36.0119 130.854 12.4634 107.3 12.4634 78.3515C12.4634 49.403 36.0119 25.8545 64.9604 25.8545C93.9089 25.8545 117.457 49.403 117.457 78.3515C117.457 107.3 93.903 130.854 64.9604 130.854ZM64.9604 28.6882C37.5743 28.6882 15.2911 50.9654 15.2911 78.3515C15.2911 105.738 37.5743 128.021 64.9604 128.021C92.3465 128.021 114.63 105.738 114.63 78.3515C114.63 50.9654 92.3465 28.6882 64.9604 28.6882Z" fill="#000002"/>
<path d="M79.2178 81.1367C79.2178 95.9704 67.194 107.994 52.3604 107.994C37.5267 107.994 25.5029 95.9704 25.5029 81.1367C25.5029 66.3031 37.5267 54.2793 52.3604 54.2793C67.194 54.2793 79.2178 66.3031 79.2178 81.1367Z" fill="#158ADA"/>
<path d="M52.3604 109.409C36.7723 109.409 24.0891 96.7256 24.0891 81.1375C24.0891 65.5494 36.7723 52.8662 52.3604 52.8662C67.9485 52.8662 80.6376 65.5494 80.6376 81.1375C80.6376 96.7256 67.9544 109.409 52.3604 109.409ZM52.3604 55.6939C38.3347 55.6939 26.9168 67.1058 26.9168 81.1375C26.9168 95.1692 38.3287 106.575 52.3604 106.575C66.3921 106.575 77.804 95.1632 77.804 81.1375C77.804 67.1118 66.3921 55.6939 52.3604 55.6939Z" fill="#000002"/>
<path d="M57.3565 81.1386C57.3565 86.8951 52.6871 91.5703 46.9248 91.5703C41.1624 91.5703 36.499 86.8951 36.499 81.1386C36.499 75.3822 41.1683 70.7129 46.9248 70.7129C52.6812 70.7129 57.3565 75.3822 57.3565 81.1386Z" fill="#000002"/>
<path d="M46.9247 92.9831C40.396 92.9831 35.0792 87.6663 35.0792 81.1375C35.0792 74.6088 40.396 69.292 46.9247 69.292C53.4534 69.292 58.7703 74.6088 58.7703 81.1375C58.7703 87.6663 53.4534 92.9831 46.9247 92.9831ZM46.9247 72.1257C41.9584 72.1257 37.9128 76.1653 37.9128 81.1375C37.9128 86.1098 41.9584 90.1494 46.9247 90.1494C51.891 90.1494 55.9366 86.1039 55.9366 81.1375C55.9366 76.1712 51.891 72.1257 46.9247 72.1257Z" fill="#000002"/>
<path d="M63.5525 74.9363C63.5525 78.3581 60.7782 81.1383 57.3564 81.1383C53.9347 81.1383 51.1604 78.3581 51.1604 74.9363C51.1604 71.5145 53.9347 68.7402 57.3564 68.7402C60.7782 68.7402 63.5525 71.5145 63.5525 74.9363Z" fill="white"/>
<path d="M39.4099 26.8526L33.9861 30.4883L27.4752 24.2982L30.7485 24.9457L30.9505 23.817L27.2911 23.0982L30.398 21.013L29.7683 20.0685L26.6614 22.1536L27.3802 18.4942L26.2574 18.2507L25.5505 21.9338L23.4653 18.8269L22.497 19.4744L24.3742 22.2724L24.5228 22.5457L20.9049 21.8328L20.703 22.9615L24.3624 23.6804L21.2554 25.7655L21.8851 26.7101L24.9921 24.6249L24.2733 28.2843L25.396 28.5279L25.9901 25.5101L29.8277 33.2685L25.3129 36.2209L17.3584 18.6308L22.6574 12.2744L39.4099 26.8467V26.8526Z" fill="#000002"/>
<path d="M32.2871 6.99245L37.9663 4.6875C37.9663 4.6875 43.0396 18.3093 43.5564 25.6103L40.0039 27.0538L32.2871 6.99245Z" fill="#000002"/>
<path d="M40.7405 3.72554L46.6514 2.08594C46.6514 2.08594 50.1148 16.2008 49.7881 23.5137L46.093 24.5354L40.7405 3.72554Z" fill="#000002"/>
<path d="M62.5782 8.35895C62.5782 8.35895 62.2574 14.953 63.1782 15.1253C64.1346 15.3213 64.2653 10.3847 64.2653 10.3847L68.9881 10.4619C70.0812 19.3669 67.7109 22.4382 63.7663 21.2441C59.7921 20.05 58.9723 14.6976 58.9901 10.1352C59.0376 5.56687 59.697 2.6738 61.6574 0.861917C63.0475 -0.385607 66.0475 -0.468776 67.9247 1.86588C69.802 4.19459 69.1604 8.09756 69.1604 8.09756L62.5723 8.35895H62.5782ZM63.0356 6.29756L64.0931 5.24013L64.0277 6.89756L64.9485 6.94509L64.7346 4.98469L65.8871 6.25598L66.6119 5.75103L65.3049 4.57479L66.897 4.51538L66.8851 3.80845L65.5069 3.83221L66.5881 2.62033L65.9049 2.10944L64.7643 3.65994L64.8535 1.60449L63.9327 1.61637L64.0218 3.48766L62.9584 2.31142L62.3584 2.93518L63.6 3.98667L61.9723 3.89162L61.9841 4.74707L63.6059 4.7233L62.394 5.69162L63.0178 6.29756H63.0356Z" fill="#000002"/>
<path d="M77.1327 0.905094C77.1327 0.905094 75.0832 9.81004 75.9565 9.98826C76.8001 10.1605 78.909 1.26747 78.909 1.26747L86.3585 2.80014L82.0278 23.7229L77.5842 22.8081L80.21 10.0477C78.2793 16.1011 73.1941 15.4001 72.2317 12.3229C71.2991 9.25163 74.0793 0.275391 74.0793 0.275391L77.1446 0.905094H77.1327Z" fill="#000002"/>
<path d="M90.9801 13.2837C90.9801 13.2837 87.9683 19.1648 88.7405 19.6936C89.5306 20.2698 91.6811 15.8203 91.6811 15.8203L95.9524 17.8341C93.2851 26.4005 89.8574 28.2243 86.7564 25.5153C83.6257 22.7945 85.0811 17.5787 86.9762 13.4203C88.9009 9.27375 90.6891 6.9094 93.2257 6.07177C95.0079 5.50742 97.7762 6.67177 98.5247 9.56484C99.2732 12.4639 97.0871 15.7549 97.0871 15.7549L90.9742 13.2777L90.9801 13.2837ZM92.2455 11.5906L93.6415 11.0619L92.899 12.547L93.7188 12.9688L94.3306 11.0975L94.8593 12.7312L95.7267 12.5708L95.0197 10.9609L96.493 11.5668L96.7722 10.9193L95.5069 10.3728L96.992 9.71336L96.5821 8.96484L94.9069 9.9094L95.8336 8.07375L94.99 7.71138L94.3069 9.45197L93.8257 7.94306L93.0178 8.26385L93.7188 9.73712L92.2752 8.98266L91.9366 9.77276L93.4277 10.4143L91.9247 10.8005L92.2455 11.6084V11.5906Z" fill="#000002"/>
<path d="M105.065 18.0491C103.943 19.8075 107.168 21.0253 108.255 22.5758C109.343 24.1263 108.754 28.3204 105.451 30.9461C102.149 33.5719 98.0555 33.0551 95.7683 30.0669C93.4753 27.0372 95.4654 22.8135 95.4654 22.8135L98.4475 21.1263C99.1188 23.2115 102.974 25.3501 103.913 23.7996C104.851 22.2491 102.606 20.859 101.21 19.4333C99.8139 18.0075 99.8673 16.6531 101.958 14.4135C104.079 12.1917 106.337 11.6452 109.349 13.76C112.337 15.857 112.8 17.758 112.8 17.758L109.378 20.3362C109.164 18.9877 106.182 16.2966 105.059 18.0551L105.065 18.0491Z" fill="#000002"/>
<path d="M124.343 45.121C119.471 48.4833 113.786 48.721 111.683 45.6675C109.556 42.5903 111.796 37.3566 116.661 33.9942C121.533 30.6318 127.218 30.3942 129.339 33.4714C131.448 36.5249 129.214 41.7586 124.343 45.121ZM120.731 41.0219L123.113 44.6338L124.349 43.7784L122.168 40.6239L125.923 41.313L126.214 39.8457L121.972 39.3111L126.095 36.6497L125.097 35.4734L121.372 38.117L122.257 34.113L120.784 33.8635L120.172 37.9388L117.921 34.4635L116.685 35.319L119.038 38.7229L115.087 37.8021L114.796 39.2695L119.05 39.8695L115.17 42.4002L115.871 43.6299L119.768 40.7487L118.747 44.9903L120.22 45.2398L120.731 41.016V41.0219Z" fill="#000002"/>
<path d="M137.935 48.8438L130.331 51.9032C130.331 51.9032 138.636 50.8042 140.424 56.1864C140.887 57.5527 140.875 59.2398 139.283 60.8438C136.343 63.8141 121.937 68.5012 121.937 68.5012L119.673 61.824C119.673 61.824 136.717 59.8695 136.45 56.8874C136.182 53.9052 118.218 57.5289 118.218 57.5289L116.519 52.5032L136.36 44.1982L137.935 48.8438Z" fill="#000002"/>
<path d="M143.709 80.3578C143.709 80.3578 134.608 79.538 134.549 80.4232C134.489 81.2786 143.584 82.1637 143.584 82.1637L143.079 89.7499L121.764 88.3004L122.067 83.7737L135.065 84.641C128.81 83.5479 128.816 78.4152 131.733 77.043C134.65 75.7004 143.917 77.239 143.917 77.239L143.709 80.3578Z" fill="#000002"/>
<path d="M128.103 104.764C122.454 103.011 118.753 98.6805 119.857 95.1399C120.968 91.5696 126.463 90.0963 132.113 91.8488C137.762 93.6013 141.463 97.932 140.353 101.502C139.254 105.043 133.753 106.516 128.103 104.764ZM129.095 99.3934L127.723 103.492L129.16 103.938L130.295 100.279L132.071 103.653L133.408 102.976L131.21 99.3043L135.85 100.908L136.158 99.3993L131.774 98.1043L135.469 96.334L134.751 95.0211L131.168 97.0528L132.511 93.1379L131.073 92.6924L129.844 96.6429L128.127 92.9657L126.79 93.6429L128.941 97.3617L124.556 95.8706L124.022 97.1835L128.691 98.4726L124.723 100.29L125.442 101.603L129.083 99.3934H129.095Z" fill="#000002"/>
<path d="M114.778 107.068C119.519 98.8994 135.754 113.68 135.754 113.68L134.228 116.305C132.725 115.111 123.873 108.06 122.762 111.137C121.622 114.196 131.37 117.624 133.117 118.212L130.913 122.002C130.913 122.002 110.026 115.23 114.772 107.068H114.778Z" fill="#000002"/>
</g>
<defs>
<clipPath id="clip0_1754_8333">
<rect width="143.834" height="135" fill="white" transform="translate(0.0831299)"/>
</clipPath>
</defs>
</svg>
