<svg width="390" height="307" viewBox="0 0 390 307" fill="none" xmlns="http://www.w3.org/2000/svg">
<rect width="562" height="29" transform="translate(-28.5) rotate(30)" fill="#6597B3"/>
<path d="M-18.6426 18.4946L-16.6986 15.1275L-31.0608 6.83545L-39.4608 21.3847L-34.514 24.2407L-31.406 18.8575L-22.5726 23.9575L-20.6286 20.5904L-29.462 15.4904L-28.058 13.0586L-18.6426 18.4946ZM-11.6825 37.4225L-6.38238 40.4825L-6.73663 33.1281C-4.4548 33.4478 -2.51643 32.6825 -1.24443 30.4793C0.471569 27.5071 -0.663599 24.3853 -4.67503 22.0693L-15.0258 16.0933L-23.4258 30.6425L-18.4998 33.4865L-15.7758 28.7684L-11.9099 31.0004L-11.6825 37.4225ZM-12.0438 22.3044L-7.32571 25.0284C-6.01628 25.7844 -5.70152 26.6312 -6.25352 27.5873C-6.79352 28.5226 -7.68278 29.0068 -9.13771 28.1668L-13.8558 25.4428L-12.0438 22.3044ZM7.83185 48.6891L12.9657 51.6531L14.6314 33.2159L8.93645 29.9279L-6.17698 40.6011L-1.04318 43.5651L1.16735 41.8483L8.19254 45.9043L7.83185 48.6891ZM4.48313 39.2732L9.65995 35.2507L8.78555 41.7572L4.48313 39.2732ZM35.0263 44.9909L19.0845 35.7869L17.1405 39.154L22.6485 42.334L16.1925 53.5161L21.1184 56.3601L27.5744 45.178L33.0823 48.358L35.0263 44.9909ZM48.784 52.9338L41.6947 56.5727L41.3223 48.6258L35.8559 45.4698L37.1661 58.7525L34.1901 63.9071L39.1161 66.7511L42.0921 61.5965L54.2503 56.0898L48.784 52.9338Z" fill="black"/>
<path d="M74.8882 72.4946L76.8322 69.1275L62.47 60.8355L54.07 75.3847L59.0167 78.2407L62.1247 72.8575L70.9582 77.9575L72.9022 74.5904L64.0687 69.4904L65.4727 67.0586L74.8882 72.4946ZM89.7495 76.5853L85.0935 84.6497C83.3775 87.6219 81.884 87.4247 79.9302 86.2967C77.9557 85.1567 77.0589 83.9739 78.7749 81.0017L83.4309 72.9373L78.505 70.0933L73.621 78.5526C70.369 84.1852 73.8741 87.2343 78.0102 89.6223C82.1463 92.0103 86.5394 93.5212 89.7914 87.8886L94.6754 79.4293L89.7495 76.5853ZM112.279 89.5924L96.3367 80.3884L94.3927 83.7555L99.9007 86.9355L93.4447 98.1176L98.3706 100.962L104.827 89.7795L110.335 92.9595L112.279 89.5924ZM125.189 97.0462L120.533 105.111C118.817 108.083 117.323 107.886 115.37 106.758C113.395 105.618 112.498 104.435 114.214 101.463L118.87 93.3982L113.944 90.5542L109.06 99.0135C105.808 104.646 109.313 107.695 113.45 110.083C117.586 112.471 121.979 113.982 125.231 108.35L130.115 99.8902L125.189 97.0462ZM135.535 122.419L140.835 125.479L140.481 118.124C142.763 118.444 144.701 117.679 145.973 115.475C147.689 112.503 146.554 109.381 142.543 107.065L132.192 101.089L123.792 115.639L128.718 118.483L131.442 113.764L135.308 115.996L135.535 122.419ZM135.174 107.3L139.892 110.024C141.201 110.78 141.516 111.627 140.964 112.583C140.424 113.519 139.535 114.003 138.08 113.163L133.362 110.439L135.174 107.3ZM158.561 131.251L148.938 125.695L150.342 123.263L159.175 128.363L161.119 124.996L152.286 119.896L153.462 117.859L162.877 123.295L164.821 119.928L150.48 111.648L142.08 126.197L156.629 134.597L158.561 131.251ZM181.509 129.175C176.791 126.451 170.888 125.731 167.684 131.28C164.468 136.85 168.043 141.603 172.761 144.327C177.479 147.051 183.403 147.782 186.619 142.212C189.823 136.663 186.227 131.899 181.509 129.175ZM174.681 141.001C171.833 139.357 171.136 136.821 172.672 134.16C174.196 131.521 176.741 130.856 179.589 132.5C182.457 134.156 183.134 136.681 181.61 139.32C180.074 141.981 177.549 142.657 174.681 141.001ZM204.893 147.553L206.837 144.186L192.475 135.894L184.075 150.443L189.022 153.299L192.13 147.916L200.963 153.016L202.907 149.649L194.074 144.549L195.478 142.117L204.893 147.553ZM213.909 148.269L205.509 162.818L210.456 165.674L218.856 151.125L213.909 148.269ZM224.276 173.653L229.576 176.713L229.221 169.359C231.503 169.678 233.442 168.913 234.714 166.71C236.43 163.738 235.295 160.616 231.283 158.3L220.932 152.324L212.532 166.873L217.458 169.717L220.182 164.999L224.048 167.231L224.276 173.653ZM223.914 158.535L228.632 161.259C229.942 162.015 230.257 162.862 229.705 163.818C229.165 164.753 228.275 165.237 226.82 164.397L222.102 161.673L223.914 158.535ZM247.115 182.377L237.678 176.929L244.146 165.726L239.22 162.882L230.82 177.432L245.183 185.724L247.115 182.377Z" fill="black"/>
<path d="M274.94 187.995L276.884 184.627L262.522 176.335L254.122 190.885L259.069 193.741L262.177 188.357L271.01 193.457L272.954 190.09L264.121 184.99L265.525 182.559L274.94 187.995ZM289.801 192.085L285.145 200.15C283.429 203.122 281.936 202.925 279.982 201.797C278.008 200.657 277.111 199.474 278.827 196.502L283.483 188.437L278.557 185.593L273.673 194.053C270.421 199.685 273.926 202.734 278.062 205.122C282.198 207.51 286.591 209.021 289.843 203.389L294.727 194.929L289.801 192.085ZM312.33 205.092L296.389 195.888L294.445 199.256L299.953 202.436L293.497 213.618L298.422 216.462L304.878 205.28L310.386 208.46L312.33 205.092ZM325.241 212.546L320.585 220.611C318.869 223.583 317.375 223.386 315.421 222.258C313.447 221.118 312.55 219.935 314.266 216.963L318.922 208.898L313.996 206.054L309.112 214.514C305.86 220.146 309.365 223.195 313.501 225.583C317.638 227.971 322.031 229.482 325.283 223.85L330.167 215.39L325.241 212.546ZM335.587 237.919L340.887 240.979L340.533 233.624C342.815 233.944 344.753 233.179 346.025 230.975C347.741 228.003 346.606 224.881 342.594 222.565L332.244 216.589L323.844 231.139L328.77 233.983L331.494 229.264L335.36 231.496L335.587 237.919ZM335.226 222.8L339.944 225.524C341.253 226.28 341.568 227.127 341.016 228.083C340.476 229.019 339.587 229.503 338.132 228.663L333.414 225.939L335.226 222.8ZM358.613 246.751L348.99 241.195L350.394 238.763L359.227 243.863L361.171 240.496L352.338 235.396L353.514 233.359L362.929 238.795L364.873 235.428L350.532 227.148L342.132 241.697L356.681 250.097L358.613 246.751ZM381.561 244.675C376.843 241.951 370.94 241.231 367.736 246.78C364.52 252.35 368.095 257.103 372.813 259.827C377.531 262.551 383.455 263.282 386.671 257.712C389.875 252.163 386.279 247.399 381.561 244.675ZM374.733 256.501C371.885 254.857 371.188 252.321 372.724 249.66C374.248 247.021 376.793 246.356 379.641 248C382.509 249.656 383.185 252.181 381.661 254.82C380.125 257.481 377.601 258.157 374.733 256.501ZM404.945 263.053L406.889 259.686L392.527 251.394L384.127 265.943L389.074 268.799L392.182 263.416L401.015 268.516L402.959 265.149L394.126 260.049L395.53 257.617L404.945 263.053ZM413.961 263.769L405.561 278.318L410.508 281.174L418.908 266.625L413.961 263.769ZM424.328 289.153L429.628 292.213L429.273 284.859C431.555 285.178 433.494 284.413 434.766 282.21C436.482 279.238 435.346 276.116 431.335 273.8L420.984 267.824L412.584 282.373L417.51 285.217L420.234 280.499L424.1 282.731L424.328 289.153ZM423.966 274.035L428.684 276.759C429.994 277.515 430.308 278.362 429.756 279.318C429.216 280.253 428.327 280.737 426.872 279.897L422.154 277.173L423.966 274.035ZM447.166 297.877L437.73 292.429L444.198 281.226L439.272 278.382L430.872 292.932L445.234 301.224L447.166 297.877Z" fill="black"/>
</svg>
