<svg width="390" height="262" viewBox="0 0 390 262" fill="none" xmlns="http://www.w3.org/2000/svg">
<rect width="562" height="29" transform="translate(-36 234.838) rotate(-24.6997)" fill="#EA664D"/>
<path d="M-15.2098 237.481L-16.8344 233.948L-31.9012 240.878L-24.8811 256.141L-19.6917 253.754L-22.2891 248.107L-13.0223 243.845L-14.6469 240.313L-23.9137 244.575L-25.0871 242.024L-15.2098 237.481ZM4.25996 242.738L9.82005 240.181L3.61314 236.22C5.19268 234.543 5.68816 232.518 4.62512 230.207C3.19102 227.089 -0.0127884 226.211 -4.22101 228.147L-15.0795 233.141L-8.05944 248.404L-2.89183 246.027L-5.16835 241.078L-1.11276 239.213L4.25996 242.738ZM-8.28727 234.297L-3.33771 232.02C-1.96404 231.388 -1.09103 231.621 -0.629706 232.624C-0.178415 233.605 -0.297075 234.611 -1.82337 235.313L-6.77294 237.589L-8.28727 234.297ZM24.7316 233.322L30.1172 230.845L16.0326 218.832L10.0582 221.579L10.0355 240.082L15.4212 237.605L15.2975 234.808L22.6673 231.419L24.7316 233.322ZM15.1119 230.614L14.8205 224.065L19.6254 228.538L15.1119 230.614ZM37.428 208.991L20.7041 216.683L22.3288 220.215L28.1069 217.558L33.5024 229.288L38.67 226.911L33.2745 215.181L39.0527 212.523L37.428 208.991ZM51.8605 202.353L50.7338 210.241L44.0328 205.953L38.2983 208.591L49.8958 215.197L52.383 220.604L57.5506 218.227L55.0635 212.82L57.5951 199.715L51.8605 202.353Z" fill="black"/>
<path d="M82.9093 192.351L81.2847 188.819L66.2179 195.749L73.238 211.012L78.4274 208.625L75.83 202.978L85.0968 198.716L83.4722 195.183L74.2054 199.445L73.032 196.894L82.9093 192.351ZM94.8357 182.586L98.7268 191.046C100.161 194.164 99.137 195.269 97.0874 196.212C95.016 197.165 93.5324 197.213 92.0983 194.095L88.2072 185.635L83.0396 188.012L87.1213 196.886C89.839 202.795 94.3529 201.696 98.692 199.701C103.031 197.705 106.803 194.993 104.085 189.084L100.003 180.21L94.8357 182.586ZM118.47 171.716L101.746 179.408L103.371 182.94L109.149 180.283L114.544 192.013L119.712 189.637L114.316 177.906L120.095 175.248L118.47 171.716ZM132.014 165.487L135.905 173.947C137.339 177.065 136.315 178.17 134.265 179.112C132.194 180.065 130.71 180.113 129.276 176.995L125.385 168.535L120.218 170.912L124.299 179.787C127.017 185.695 131.531 184.597 135.87 182.601C140.209 180.605 143.981 177.893 141.263 171.984L137.181 163.11L132.014 165.487ZM158.7 171.704L164.26 169.147L158.053 165.186C159.632 163.509 160.128 161.485 159.065 159.173C157.631 156.055 154.427 155.178 150.219 157.113L139.36 162.108L146.38 177.371L151.548 174.994L149.271 170.044L153.327 168.179L158.7 171.704ZM146.152 163.263L151.102 160.987C152.476 160.355 153.349 160.587 153.81 161.59C154.261 162.572 154.143 163.577 152.616 164.279L147.667 166.556L146.152 163.263ZM179.214 158.016L169.118 162.659L167.945 160.108L177.212 155.846L175.587 152.314L166.32 156.576L165.338 154.439L175.215 149.896L173.59 146.364L158.545 153.284L165.565 168.547L180.828 161.527L179.214 158.016ZM190.78 138.088C185.83 140.364 181.832 144.766 184.509 150.588C187.197 156.431 193.141 156.26 198.091 153.983C203.04 151.707 207.061 147.295 204.373 141.451C201.695 135.63 195.73 135.811 190.78 138.088ZM196.486 150.494C193.499 151.868 191.026 150.972 189.743 148.181C188.469 145.411 189.397 142.95 192.385 141.576C195.394 140.192 197.845 141.099 199.118 143.868C200.402 146.659 199.495 149.11 196.486 150.494ZM219.292 129.623L217.668 126.091L202.601 133.021L209.621 148.284L214.81 145.897L212.213 140.249L221.48 135.987L219.855 132.455L210.588 136.717L209.415 134.166L219.292 129.623ZM225.087 122.678L232.107 137.941L237.296 135.555L230.276 120.292L225.087 122.678ZM251.794 128.887L257.354 126.329L251.147 122.369C252.726 120.691 253.222 118.667 252.159 116.356C250.725 113.238 247.521 112.36 243.313 114.296L232.454 119.29L239.474 134.553L244.642 132.176L242.365 127.226L246.421 125.361L251.794 128.887ZM239.246 120.445L244.196 118.169C245.57 117.537 246.443 117.77 246.904 118.773C247.355 119.754 247.237 120.759 245.71 121.461L240.761 123.738L239.246 120.445ZM272.111 115.288L262.212 119.842L256.807 108.089L251.639 110.466L258.659 125.729L273.726 118.799L272.111 115.288Z" fill="black"/>
<path d="M292.775 95.8255L291.151 92.2932L276.084 99.223L283.104 114.486L288.293 112.099L285.696 106.452L294.963 102.19L293.338 98.6574L284.071 102.92L282.898 100.368L292.775 95.8255ZM304.702 86.0605L308.593 94.5205C310.027 97.6386 309.003 98.7435 306.953 99.6862C304.882 100.639 303.398 100.687 301.964 97.5693L298.073 89.1092L292.906 91.486L296.987 100.36C299.705 106.269 304.219 105.171 308.558 103.175C312.897 101.179 316.669 98.467 313.951 92.558L309.869 83.6837L304.702 86.0605ZM328.336 75.1901L311.612 82.8821L313.237 86.4144L319.015 83.7568L324.41 95.4875L329.578 93.1107L324.182 81.38L329.961 78.7224L328.336 75.1901ZM341.88 68.9608L345.771 77.4208C347.205 80.5388 346.181 81.6438 344.131 82.5865C342.06 83.5392 340.576 83.5876 339.142 80.4696L335.251 72.0095L330.083 74.3863L334.165 83.2606C336.883 89.1696 341.397 88.0709 345.736 86.0752C350.075 84.0795 353.847 81.3673 351.129 75.4583L347.047 66.584L341.88 68.9608ZM368.566 75.1786L374.126 72.6213L367.919 68.6605C369.498 66.983 369.994 64.9588 368.931 62.6475C367.497 59.5295 364.293 58.652 360.085 60.5875L349.226 65.5818L356.246 80.8448L361.414 78.468L359.137 73.5184L363.193 71.6531L368.566 75.1786ZM356.018 66.7373L360.968 64.4608C362.342 63.829 363.215 64.0615 363.676 65.0645C364.127 66.0457 364.009 67.0512 362.482 67.7532L357.533 70.0298L356.018 66.7373ZM389.08 61.4902L378.984 66.1334L377.811 63.5823L387.078 59.3202L385.453 55.7879L376.186 60.0501L375.204 57.9132L385.081 53.3702L383.456 49.838L368.411 56.7578L375.431 72.0207L390.694 65.0006L389.08 61.4902ZM400.646 41.5618C395.696 43.8384 391.698 48.2399 394.375 54.0616C397.063 59.9052 403.007 59.7337 407.957 57.4571C412.906 55.1806 416.927 50.769 414.239 44.9255C411.561 39.1038 405.595 39.2853 400.646 41.5618ZM406.352 53.9685C403.365 55.3424 400.892 54.4457 399.608 51.6548C398.335 48.8856 399.263 46.4245 402.25 45.0505C405.259 43.6666 407.711 44.5733 408.984 47.3424C410.268 50.1334 409.361 52.5845 406.352 53.9685ZM429.158 33.0972L427.534 29.5649L412.467 36.4947L419.487 51.7577L424.676 49.3708L422.079 43.7235L431.346 39.4614L429.721 35.9291L420.454 40.1913L419.281 37.6402L429.158 33.0972ZM434.953 26.1526L441.973 41.4156L447.162 39.0288L440.142 23.7658L434.953 26.1526ZM461.659 32.3608L467.22 29.8035L461.013 25.8427C462.592 24.1652 463.088 22.141 462.025 19.8297C460.591 16.7117 457.387 15.8342 453.179 17.7697L442.32 22.764L449.34 38.027L454.508 35.6502L452.231 30.7006L456.287 28.8353L461.659 32.3608ZM449.112 23.9195L454.062 21.643C455.435 21.0112 456.309 21.2436 456.77 22.2466C457.221 23.2278 457.102 24.2334 455.576 24.9354L450.627 27.2119L449.112 23.9195ZM481.977 18.7626L472.078 23.3156L466.673 11.5631L461.505 13.9399L468.525 29.2029L483.592 22.2731L481.977 18.7626Z" fill="black"/>
</svg>
