<svg width="166" height="29" viewBox="0 0 166 29" fill="none" xmlns="http://www.w3.org/2000/svg">
<path d="M10.7353 17.9772H27.4153V11.0972H10.7353V7.05717H28.5353V0.17717H0.895294V28.1772H10.7353V17.9772ZM1.45529 0.73717H27.9753V6.49717H10.1753V11.6572H26.8553V17.4172H10.1753V27.6172H1.45529V0.73717ZM58.1547 17.8972C61.7147 16.3372 63.5947 13.4572 63.5947 9.49717C63.5947 3.65717 59.1147 0.17717 51.5947 0.17717H31.7947V28.1772H41.6747V19.2172H48.5147L54.0747 28.1772H64.7547L58.1547 17.8972ZM48.7947 18.6972H41.1147V27.6172H32.3547V0.73717H51.5947C58.8747 0.73717 63.0347 3.93717 63.0347 9.49717C63.0347 13.3772 61.1947 16.0572 57.6347 17.4972L57.3147 17.6172L63.7147 27.6172H54.3547L48.7947 18.6972ZM50.2347 12.9772C53.4747 12.9772 54.1547 11.0972 54.1547 9.49717C54.1547 7.49717 52.8347 6.49717 50.2347 6.49717H41.1147V12.9772H50.2347ZM41.6747 7.05717H50.2347C52.5147 7.05717 53.5947 7.85717 53.5947 9.49717C53.5947 11.4572 52.5147 12.4172 50.2347 12.4172H41.6747V7.05717ZM83.07 7.37717L78.91 17.5772H87.83L83.67 7.37717H83.07ZM79.75 17.0172L83.39 8.09717L87.03 17.0172H79.75ZM88.91 0.17717H77.83L64.87 28.1772H75.19L76.91 23.8972H89.83L91.55 28.1772H101.87L88.91 0.17717ZM90.19 23.3372H76.55L74.83 27.6172H65.75L78.19 0.73717H88.59L100.99 27.6172H91.95L90.19 23.3372ZM117.68 7.05717H128.04V0.17717H97.44V7.05717H107.8V28.1772H117.68V7.05717ZM108.36 6.49717H98V0.73717H127.48V6.49717H117.12V27.6172H108.36V6.49717ZM152.277 18.2572L165.237 0.17717H154.237L147.357 10.8572L140.437 0.17717H129.437L142.437 18.2572V28.1772H152.277V18.2572ZM142.997 18.0572L130.557 0.73717H140.157L147.357 11.8972L154.557 0.73717H164.157L151.717 18.0572V27.6172H142.997V18.0572Z" fill="black" fill-opacity="0.5"/>
</svg>
