<svg width="390" height="551" viewBox="0 0 390 551" fill="none" xmlns="http://www.w3.org/2000/svg">
<g clip-path="url(#clip0_1687_4054)">
<rect x="64.8917" width="323" height="103" rx="51.5" transform="rotate(24.9273 64.8917 0)" fill="#EA664D"/>
<path d="M103.809 68.9615C101.802 68.1619 101.361 66.5908 102.095 64.7477C102.823 62.9195 104.225 62.0828 106.231 62.8823C107.911 63.5516 108.391 64.6384 108.191 66.0916L111.802 67.5308C112.609 64.0802 110.271 61.7361 107.179 60.5042C103.79 59.1538 100.109 59.3577 98.5278 63.3263C96.9405 67.3097 99.4724 69.9893 102.861 71.3396C105.953 72.5716 109.263 72.4781 111.05 69.4184L107.438 67.9792C106.584 69.1718 105.489 69.6308 103.809 68.9615ZM119.652 68.3508C118.136 67.7467 116.865 68.1702 116.387 68.462L117.779 64.9691L114.539 63.678L110.393 74.0824L113.633 75.3735L115.368 71.0186C115.724 70.1267 116.406 69.6237 117.506 70.062C118.621 70.5062 118.705 71.3321 118.356 72.209L116.621 76.564L119.861 77.8552L121.892 72.757C122.698 70.7356 121.837 69.2214 119.652 68.3508ZM128.675 71.9461C126.103 70.9214 124.241 70.9714 123.188 72.7911L126.146 73.9698C126.446 73.5207 126.802 73.3182 127.946 73.7743C129.329 74.3251 129.273 74.854 128.971 75.612L128.929 75.7161C123.652 73.2689 122.168 74.2275 121.457 76.0111C120.835 77.5718 121.779 78.8779 124.023 79.7722C125.376 80.3112 126.606 80.1639 127.289 79.8333L126.951 80.6805L130.191 81.9716L132.211 76.9032C133.271 74.2426 131.231 72.9648 128.675 71.9461ZM127.851 78.4212C127.219 78.7548 126.325 78.7946 125.492 78.463C124.764 78.1727 124.401 77.787 124.638 77.1924C125.017 76.2412 126.271 76.6377 128.213 77.5146L127.851 78.4212ZM140.398 78.977L141.126 77.1488L138.808 76.2249L139.625 74.1737L136.385 72.8826L135.567 74.9337L134.096 74.3474L133.367 76.1756L134.839 76.7619L133.672 79.69C132.73 82.0533 133.071 83.274 136.058 84.4645C136.668 84.7073 137.384 84.9411 137.964 85.0859L138.84 82.8861C137.196 82.3862 136.468 82.096 136.912 80.9812L138.079 78.0531L140.398 78.977ZM150.651 80.7029C148.079 79.6782 146.216 79.7282 145.164 81.5479L148.122 82.7266C148.421 82.2775 148.778 82.075 149.922 82.5311C151.304 83.0819 151.249 83.6108 150.947 84.3689L150.905 84.4729C145.628 82.0257 144.144 82.9843 143.433 84.768C142.811 86.3286 143.755 87.6347 145.999 88.529C147.352 89.068 148.582 88.9208 149.265 88.5901L148.927 89.4373L152.167 90.7284L154.187 85.66C155.247 82.9994 153.207 81.7216 150.651 80.7029ZM149.827 87.178C149.195 87.5116 148.3 87.5514 147.468 87.2198C146.74 86.9296 146.377 86.5438 146.614 85.9493C146.993 84.998 148.247 85.3945 150.188 86.2714L149.827 87.178ZM162.617 85.4711C161.086 84.8611 159.83 85.2906 159.352 85.5824L159.754 84.5717L156.514 83.2805L153.357 91.2027L156.598 92.4939L158.333 88.1389C158.688 87.2471 159.356 86.7381 160.471 87.1823C161.586 87.6265 161.67 88.4524 161.321 89.3293L159.585 93.6843L162.825 94.9755L164.857 89.8773C165.662 87.8559 164.802 86.3418 162.617 85.4711ZM174.876 87.7208L173.507 91.1542C173.141 90.1296 172.349 89.3493 171.279 88.9228C168.827 87.9456 166.362 88.6857 165.29 91.376C164.218 94.0662 165.498 96.2988 167.951 97.2761C169.021 97.7025 170.132 97.6803 171.109 97.1739L170.73 98.1252L173.97 99.4163L178.116 89.0119L174.876 87.7208ZM169.639 95.5031C168.212 94.9345 167.955 93.6781 168.381 92.6079C168.808 91.5377 169.858 90.8025 171.285 91.371C172.816 91.9811 173.05 93.1247 172.588 94.284C172.126 95.4434 171.17 96.1131 169.639 95.5031ZM188.19 95.6615C187.12 95.2351 186.009 95.2573 185.038 95.7488L186.406 92.3154L183.166 91.0242L179.02 101.429L182.26 102.72L182.639 101.769C183 102.808 183.792 103.588 184.862 104.015C187.314 104.992 189.794 104.258 190.866 101.568C191.938 98.8773 190.643 96.6387 188.19 95.6615ZM184.87 101.572C183.339 100.962 183.091 99.8129 183.553 98.6536C184.015 97.4942 184.986 96.8304 186.517 97.4404C187.944 98.009 188.186 99.2595 187.76 100.33C187.333 101.4 186.297 102.141 184.87 101.572ZM199.56 100.192C197.836 99.5052 196.598 100.062 196.093 100.464L196.579 99.2454L193.339 97.9542L190.182 105.876L193.422 107.168L194.767 103.794C195.258 102.56 196.122 101.733 197.787 102.396C198.5 102.68 198.958 103.087 199.294 103.41L199.562 103.517L200.652 100.782C200.42 100.586 200.066 100.394 199.56 100.192ZM206.339 102.893C203.886 101.916 200.707 101.941 199.487 105.003C198.267 108.065 200.558 110.269 203.01 111.246C205.448 112.218 208.627 112.193 209.847 109.131C211.067 106.069 208.776 103.865 206.339 102.893ZM203.851 109.136C202.335 108.532 202.167 107.311 202.594 106.241C203.02 105.17 203.982 104.4 205.498 105.004C206.999 105.602 207.167 106.823 206.74 107.893C206.314 108.963 205.352 109.734 203.851 109.136ZM216.796 107.06C214.224 106.035 212.362 106.085 211.309 107.905L214.267 109.084C214.566 108.635 214.923 108.432 216.067 108.888C217.45 109.439 217.394 109.968 217.092 110.726L217.05 110.83C211.773 108.383 210.289 109.342 209.578 111.125C208.956 112.686 209.9 113.992 212.144 114.886C213.497 115.425 214.727 115.278 215.41 114.947L215.072 115.794L218.312 117.086L220.332 112.017C221.392 109.357 219.352 108.079 216.796 107.06ZM215.972 113.535C215.34 113.869 214.446 113.909 213.613 113.577C212.885 113.287 212.522 112.901 212.759 112.306C213.138 111.355 214.392 111.752 216.334 112.629L215.972 113.535ZM230.367 109.833L228.999 113.266C228.632 112.241 227.84 111.461 226.77 111.035C224.318 110.057 221.853 110.798 220.781 113.488C219.709 116.178 220.989 118.411 223.442 119.388C224.512 119.814 225.623 119.792 226.6 119.286L226.221 120.237L229.461 121.528L233.607 111.124L230.367 109.833ZM225.13 117.615C223.703 117.046 223.446 115.79 223.872 114.72C224.299 113.65 225.35 112.914 226.776 113.483C228.307 114.093 228.541 115.236 228.079 116.396C227.617 117.555 226.661 118.225 225.13 117.615ZM236.278 122.057C234.776 121.459 234.608 120.238 235.035 119.168C235.461 118.097 236.423 117.327 237.924 117.925C239.083 118.387 239.477 119.215 239.383 120.056L242.385 121.253C242.985 118.581 241.009 116.709 238.765 115.814C236.327 114.843 233.148 114.868 231.928 117.93C230.708 120.992 232.999 123.196 235.436 124.168C237.681 125.062 240.402 125.061 241.811 122.694L238.808 121.498C238.298 122.173 237.437 122.519 236.278 122.057ZM249.034 119.906C246.462 118.881 244.599 118.931 243.547 120.751L246.505 121.93C246.804 121.481 247.161 121.278 248.305 121.734C249.688 122.285 249.632 122.814 249.33 123.572L249.288 123.676C244.011 121.229 242.527 122.188 241.816 123.971C241.194 125.532 242.138 126.838 244.382 127.732C245.735 128.271 246.965 128.124 247.648 127.793L247.31 128.641L250.55 129.932L252.57 124.863C253.63 122.203 251.59 120.925 249.034 119.906ZM248.21 126.381C247.578 126.715 246.684 126.755 245.851 126.423C245.123 126.133 244.76 125.747 244.997 125.152C245.376 124.201 246.63 124.598 248.572 125.475L248.21 126.381ZM258.882 127.396C257.595 126.693 256.774 126.332 256.976 125.826C257.135 125.425 257.608 125.407 258.678 125.833C259.704 126.242 260.076 126.735 259.868 127.255L263.094 128.54C263.698 127.024 262.828 125.403 259.424 124.047C256.437 122.856 254.506 123.12 253.813 124.859C253.15 126.524 254.229 127.402 256.314 128.611C258.133 129.664 259.079 130.058 258.836 130.667C258.652 131.128 258.067 131.084 257.101 130.699C256.001 130.261 255.4 129.78 255.708 129.007L252.319 127.657C251.567 129.545 252.885 131.12 256.23 132.453C259.336 133.691 261.496 133.759 262.308 131.723C263.131 129.657 261.177 128.638 258.882 127.396ZM270.917 130.986L271.646 129.158L269.327 128.234L270.144 126.183L266.904 124.891L266.087 126.943L264.615 126.356L263.887 128.184L265.358 128.771L264.192 131.699C263.25 134.062 263.59 135.283 266.578 136.473C267.187 136.716 267.904 136.95 268.483 137.095L269.36 134.895C267.716 134.395 266.988 134.105 267.432 132.99L268.599 130.062L270.917 130.986ZM276.678 134.487C275.39 133.784 274.57 133.423 274.771 132.918C274.931 132.516 275.403 132.498 276.473 132.924C277.499 133.333 277.871 133.826 277.664 134.346L280.889 135.631C281.493 134.115 280.624 132.494 277.22 131.138C274.232 129.947 272.301 130.211 271.608 131.95C270.945 133.615 272.025 134.493 274.109 135.702C275.929 136.755 276.874 137.149 276.631 137.758C276.448 138.219 275.862 138.175 274.896 137.79C273.796 137.352 273.196 136.871 273.504 136.098L270.115 134.748C269.363 136.636 270.681 138.212 274.025 139.544C277.132 140.782 279.292 140.85 280.103 138.814C280.926 136.748 278.973 135.729 276.678 134.487Z" fill="black"/>
</g>
<rect x="65.013" y="0.332078" width="322.5" height="102.5" rx="51.25" transform="rotate(24.9273 65.013 0.332078)" stroke="black" stroke-width="0.5"/>
<g clip-path="url(#clip1_1687_4054)">
<rect x="94.0001" y="296.221" width="320" height="103" rx="51.5" transform="rotate(-36.1974 94.0001 296.221)" fill="#6597B3"/>
<path d="M223.365 265.45L217.236 270.515L224.37 279.149L227.293 276.733L225.071 274.045L227.933 271.68C230.313 269.713 231.152 267.588 229.358 265.417C227.9 263.653 225.746 263.483 223.365 265.45ZM225.957 269.992L223.441 272.071L221.81 270.098L224.326 268.019C225.189 267.305 225.825 267.195 226.385 267.873C226.936 268.539 226.869 269.238 225.957 269.992ZM232.888 260.756C230.754 262.519 229.904 264.177 230.994 265.974L233.449 263.946C233.199 263.468 233.192 263.058 234.142 262.273C235.289 261.325 235.726 261.628 236.246 262.257L236.317 262.344C231.636 265.797 231.764 267.559 232.987 269.039C234.057 270.334 235.656 270.134 237.518 268.595C238.641 267.667 239.102 266.518 239.14 265.76L239.721 266.463L242.41 264.241L238.935 260.035C237.11 257.828 235.01 259.003 232.888 260.756ZM238.172 264.588C238.161 265.303 237.766 266.107 237.076 266.678C236.471 267.177 235.959 267.31 235.551 266.817C234.899 266.027 235.849 265.118 237.55 263.836L238.172 264.588ZM243.247 252.487L244.951 257.638L240.127 255.065L237.352 257.358L245.858 261.247L246.472 264.351L249.198 262.099L246.01 250.204L243.247 252.487ZM255.711 241.896C254.49 242.905 254.227 244.119 254.198 244.787C253.263 244.459 252.258 244.75 251.123 245.688C249.902 246.697 249.793 247.845 249.856 248.374L249.194 247.573L246.505 249.794L251.937 256.368L254.626 254.146L251.64 250.533C251.028 249.793 250.693 249.136 251.593 248.392C252.494 247.648 253.049 248.144 253.65 248.871L256.637 252.485L259.325 250.263L256.339 246.649C255.727 245.909 255.405 245.242 256.305 244.498C257.205 243.754 257.748 244.26 258.349 244.988L261.336 248.602L264.024 246.38L260.529 242.15C259.142 240.472 257.524 240.398 255.711 241.896ZM263.365 235.571C261.33 237.253 259.948 239.951 262.048 242.492C264.148 245.033 267.046 244.195 269.155 242.452C270.943 240.974 272.109 238.994 271.04 236.846L268.647 238.824C268.701 239.34 268.65 240.108 267.799 240.811C266.714 241.708 265.797 241.553 265.076 241.007L270.762 236.308C268.419 233.097 265.228 234.032 263.365 235.571ZM263.994 239.597C263.679 238.84 263.783 237.986 264.721 237.212C265.547 236.529 266.356 236.503 267.114 237.019L263.994 239.597ZM273.146 227.488C271.876 228.538 271.649 229.846 271.676 230.406L270.983 229.567L268.294 231.789L273.726 238.363L276.415 236.141L273.429 232.527C272.817 231.787 272.691 230.957 273.617 230.193C274.542 229.428 275.306 229.751 275.908 230.479L278.894 234.092L281.583 231.87L278.087 227.64C276.701 225.963 274.959 225.99 273.146 227.488ZM283.734 221.582L282.481 220.065L280.557 221.655L279.15 219.953L276.462 222.175L277.868 223.877L276.647 224.886L277.901 226.403L279.122 225.394L281.129 227.824C282.75 229.785 283.984 230.073 286.463 228.024C286.969 227.606 287.518 227.09 287.923 226.652L286.415 224.826C285.187 226.028 284.583 226.527 283.818 225.602L281.81 223.172L283.734 221.582ZM294.737 218.364C293.491 219.394 292.34 218.955 291.606 218.067C290.872 217.179 290.658 215.965 291.904 214.936C292.866 214.141 293.781 214.194 294.474 214.68L296.965 212.621C294.909 210.812 292.319 211.645 290.456 213.184C288.434 214.856 286.929 217.656 289.028 220.197C291.128 222.738 294.161 221.787 296.184 220.116C298.047 218.577 299.353 216.189 297.954 213.817L295.462 215.876C295.809 216.648 295.699 217.569 294.737 218.364ZM299.273 205.898C297.238 207.58 295.733 210.38 297.833 212.921C299.932 215.462 302.966 214.511 305.001 212.83C307.024 211.158 308.529 208.358 306.429 205.817C304.33 203.276 301.296 204.227 299.273 205.898ZM303.554 211.078C302.296 212.118 301.144 211.679 300.41 210.791C299.677 209.903 299.462 208.689 300.72 207.65C301.966 206.62 303.118 207.059 303.852 207.947C304.585 208.835 304.8 210.049 303.554 211.078ZM302.362 199.381L309.884 208.483L312.573 206.261L305.051 197.159L302.362 199.381ZM306.036 196.345L313.558 205.447L316.247 203.226L308.725 194.123L306.036 196.345ZM315.591 192.414C313.556 194.096 312.174 196.794 314.274 199.335C316.373 201.876 319.271 201.037 321.38 199.295C323.169 197.817 324.334 195.836 323.266 193.689L320.873 195.666C320.926 196.183 320.876 196.951 320.025 197.654C318.94 198.551 318.022 198.396 317.302 197.85L322.987 193.151C320.645 189.94 317.453 190.875 315.591 192.414ZM316.22 196.44C315.905 195.683 316.009 194.829 316.946 194.054C317.773 193.371 318.582 193.346 319.34 193.861L316.22 196.44ZM328.703 190.296C327.457 191.326 326.306 190.887 325.572 189.999C324.838 189.111 324.624 187.897 325.869 186.867C326.831 186.072 327.747 186.125 328.439 186.612L330.931 184.553C328.875 182.744 326.285 183.577 324.422 185.116C322.399 186.788 320.894 189.588 322.994 192.129C325.094 194.669 328.127 193.719 330.15 192.048C332.013 190.509 333.319 188.121 331.919 185.749L329.428 187.808C329.775 188.58 329.665 189.501 328.703 190.296ZM336.044 178.355L334.791 176.838L332.867 178.428L331.46 176.726L328.771 178.948L330.178 180.65L328.957 181.659L330.211 183.176L331.432 182.167L333.439 184.597C335.06 186.558 336.294 186.846 338.773 184.797C339.279 184.379 339.828 183.863 340.233 183.425L338.725 181.599C337.497 182.801 336.893 183.3 336.128 182.375L334.12 179.945L336.044 178.355ZM336.596 174.516C337.41 173.844 337.613 172.908 336.94 172.094C336.267 171.28 335.3 171.29 334.486 171.963C333.672 172.636 333.48 173.584 334.153 174.398C334.825 175.212 335.782 175.189 336.596 174.516ZM341.092 182.694L343.781 180.473L338.348 173.899L335.66 176.121L341.092 182.694ZM343.248 169.559C341.213 171.241 339.708 174.041 341.808 176.582C343.907 179.122 346.941 178.172 348.976 176.49C350.999 174.819 352.504 172.019 350.404 169.478C348.305 166.937 345.271 167.887 343.248 169.559ZM347.529 174.739C346.271 175.779 345.119 175.34 344.386 174.452C343.652 173.564 343.437 172.35 344.696 171.31C345.941 170.281 347.093 170.72 347.827 171.608C348.56 172.496 348.775 173.71 347.529 174.739ZM353.279 161.27C352.009 162.319 351.782 163.628 351.809 164.187L351.116 163.348L348.427 165.57L353.859 172.144L356.548 169.922L353.562 166.308C352.95 165.568 352.825 164.738 353.75 163.974C354.675 163.209 355.439 163.532 356.041 164.26L359.027 167.873L361.716 165.652L358.22 161.421C356.834 159.744 355.092 159.771 353.279 161.27ZM363.49 157.129C362.255 157.92 361.544 158.466 361.198 158.047C360.923 157.714 361.133 157.291 362.021 156.557C362.872 155.854 363.483 155.764 363.84 156.196L366.516 153.984C365.477 152.726 363.637 152.71 360.813 155.044C358.334 157.093 357.638 158.913 358.83 160.356C359.972 161.738 361.26 161.212 363.322 159.965C365.119 158.875 365.919 158.235 366.337 158.74C366.653 159.123 366.333 159.615 365.532 160.277C364.619 161.032 363.909 161.328 363.379 160.687L360.567 163.01C361.861 164.577 363.877 164.177 366.652 161.884C369.229 159.754 370.327 157.892 368.931 156.202C367.514 154.488 365.682 155.712 363.49 157.129Z" fill="black"/>
</g>
<rect x="94.3495" y="296.275" width="319.5" height="102.5" rx="51.25" transform="rotate(-36.1974 94.3495 296.275)" stroke="black" stroke-width="0.5"/>
<g clip-path="url(#clip2_1687_4054)">
<rect x="61.222" y="115.238" width="320" height="103" rx="51.5" transform="rotate(74.0323 61.222 115.238)" fill="#95C4D4"/>
<path d="M37.579 324.532L34.0217 318.198L41.5408 313.975L39.6838 310.669L29.9187 316.154L35.333 325.793L37.579 324.532ZM44.7328 323.807C45.2499 324.728 46.1343 325.094 47.055 324.577C47.9757 324.06 48.1376 323.106 47.6204 322.186C47.1033 321.265 46.2049 320.907 45.2842 321.424C44.3635 321.941 44.2156 322.887 44.7328 323.807ZM35.8853 326.777L37.5934 329.818L45.0288 325.641L43.3207 322.6L35.8853 326.777ZM49.002 332.715L43.5368 333.473L47.0197 329.186L45.2646 326.061L39.7723 333.697L41.3786 336.557L50.765 335.854L49.002 332.715ZM53.4607 340.196C52.1678 337.894 49.7582 336.055 46.8845 337.669C44.0107 339.283 44.32 342.284 45.6599 344.669C46.796 346.692 48.5373 348.191 50.8405 347.522L49.3204 344.815C48.8027 344.776 48.0559 344.59 47.5152 343.627C46.8257 342.4 47.1418 341.525 47.8072 340.912L51.4193 347.343C54.9965 345.61 54.6438 342.303 53.4607 340.196ZM49.387 340.098C50.1881 339.924 51.0098 340.178 51.6053 341.238C52.1303 342.173 52.0112 342.974 51.3693 343.628L49.387 340.098ZM61.8827 355.648L61.1294 356.071C61.4185 355.083 61.224 354.018 60.6598 353.013C59.367 350.712 57.2498 349.589 54.7248 351.007C52.1998 352.425 52.1966 354.739 53.4895 357.041C54.0536 358.045 54.8201 358.789 55.7865 359.072L55.1309 359.44C53.8614 360.153 53.183 359.305 52.6032 358.273C52.1487 357.464 51.8903 356.709 52.2165 356.343L50.6181 353.497C49.1507 354.413 49.1102 356.399 50.7478 359.315C52.1033 361.728 53.8955 364.135 56.839 362.482L63.5909 358.689L61.8827 355.648ZM55.7775 356.802C55.0488 355.504 55.3501 354.473 56.3546 353.908C57.359 353.344 58.3968 353.624 59.1255 354.921C59.9012 356.302 59.6601 357.245 58.572 357.856C57.4839 358.467 56.5532 358.183 55.7775 356.802ZM66.7263 363.814C65.3708 361.401 63.8907 360.268 61.9283 361.022L63.4875 363.798C64.0027 363.637 64.4071 363.704 65.0104 364.778C65.7391 366.075 65.3632 366.451 64.6518 366.851L64.5541 366.906C61.9889 361.685 60.2319 361.498 58.5579 362.438C57.0931 363.261 57.0058 364.87 58.189 366.976C58.902 368.245 59.9509 368.904 60.6899 369.076L59.8948 369.523L61.6029 372.564L66.3599 369.892C68.857 368.49 68.074 366.213 66.7263 363.814ZM62.0152 368.332C61.3137 368.194 60.5932 367.663 60.1544 366.881C59.7705 366.198 59.7307 365.67 60.2887 365.356C61.1815 364.855 61.9077 365.952 62.8661 367.854L62.0152 368.332ZM72.5255 367.899L62.2303 373.681L63.9385 376.722L74.2337 370.94L72.5255 367.899ZM74.8593 372.054L64.5641 377.836L66.2722 380.877L76.5674 375.095L74.8593 372.054ZM77.0281 382.155C75.7353 379.854 73.3257 378.014 70.4519 379.628C67.5782 381.242 67.8875 384.243 69.2273 386.629C70.3635 388.651 72.1048 390.151 74.4079 389.481L72.8879 386.775C72.3702 386.735 71.6234 386.549 71.0827 385.587C70.3932 384.359 70.7093 383.484 71.3746 382.872L74.9868 389.303C78.5639 387.569 78.2113 384.262 77.0281 382.155ZM72.9545 382.058C73.7555 381.883 74.5773 382.137 75.1728 383.198C75.6977 384.132 75.5787 384.933 74.9368 385.587L72.9545 382.058ZM83.3046 393.33C82.3956 391.712 81.0824 391.367 80.4374 391.362L81.5813 390.719L79.8732 387.678L72.4378 391.854L74.1459 394.896L77.3126 393.117C78.4705 392.467 79.662 392.366 80.5395 393.929C80.9156 394.598 81.0164 395.202 81.0745 395.665L81.2155 395.916L83.7823 394.475C83.725 394.176 83.571 393.804 83.3046 393.33ZM87.6131 401.458L82.2411 402.218L85.6307 397.929L83.8678 394.79L78.528 402.469L75.3642 402.521L77.0958 405.604L89.3682 404.583L87.6131 401.458Z" fill="black"/>
</g>
<rect x="61.0505" y="115.547" width="319.5" height="102.5" rx="51.25" transform="rotate(74.0323 61.0505 115.547)" stroke="black" stroke-width="0.5"/>
<g clip-path="url(#clip3_1687_4054)">
<rect x="94.0001" y="477.201" width="320" height="103" rx="51.5" transform="rotate(-53.4184 94.0001 477.201)" fill="#F88296"/>
<path d="M211.959 381.015L214.618 377.921L209.756 377.244C210.248 375.789 209.986 374.425 208.7 373.319C206.964 371.828 204.779 372.186 202.766 374.527L197.572 380.57L206.066 387.871L208.538 384.995L205.783 382.627L207.723 380.371L211.959 381.015ZM202.01 379.384L204.377 376.629C205.034 375.865 205.628 375.763 206.186 376.243C206.732 376.713 206.94 377.355 206.209 378.204L203.842 380.959L202.01 379.384ZM211.726 367.859C210.005 369.861 209.101 372.754 211.6 374.903C214.1 377.051 216.814 375.734 218.598 373.659C220.11 371.9 220.923 369.751 219.506 367.815L217.483 370.169C217.623 370.669 217.703 371.435 216.984 372.272C216.066 373.34 215.136 373.342 214.333 372.926L219.141 367.332C216.288 364.564 213.301 366.026 211.726 367.859ZM213.028 371.72C212.59 371.027 212.547 370.168 213.34 369.246C214.039 368.433 214.832 368.271 215.666 368.65L213.028 371.72ZM223.679 353.953C222.646 355.154 222.592 356.395 222.676 357.058C221.7 356.893 220.758 357.35 219.799 358.467C218.766 359.668 218.853 360.819 219.005 361.329L218.217 360.651L215.943 363.296L222.41 368.855L224.684 366.21L221.129 363.154C220.401 362.528 219.959 361.938 220.72 361.052C221.482 360.166 222.113 360.561 222.829 361.176L226.384 364.232L228.658 361.587L225.102 358.531C224.374 357.905 223.943 357.303 224.704 356.417C225.466 355.531 226.086 355.938 226.802 356.553L230.358 359.609L232.631 356.964L228.469 353.387C226.819 351.968 225.212 352.169 223.679 353.953ZM227.645 348.7C228.333 347.899 228.375 346.943 227.574 346.255C226.773 345.566 225.822 345.74 225.133 346.541C224.445 347.342 224.416 348.308 225.217 348.997C226.018 349.685 226.957 349.501 227.645 348.7ZM233.461 355.999L235.735 353.353L229.267 347.795L226.994 350.44L233.461 355.999ZM234.154 341.765C233.08 343.015 233.078 344.343 233.199 344.89L232.374 344.18L230.1 346.826L236.567 352.384L238.841 349.739L235.286 346.684C234.558 346.058 234.293 345.261 235.076 344.351C235.858 343.441 236.666 343.629 237.382 344.245L240.937 347.3L243.211 344.655L239.049 341.078C237.399 339.66 235.687 339.982 234.154 341.765ZM240.264 330.902L243.066 333.311C241.978 333.325 240.983 333.82 240.232 334.694C238.511 336.696 238.411 339.268 240.607 341.155C242.803 343.043 245.331 342.557 247.051 340.555C247.802 339.682 248.142 338.623 247.981 337.535L248.757 338.203L251.031 335.557L242.537 328.257L240.264 330.902ZM245.923 338.383C244.922 339.547 243.65 339.383 242.776 338.632C241.903 337.881 241.549 336.648 242.55 335.483C243.624 334.233 244.781 334.384 245.728 335.198C246.674 336.011 246.997 337.133 245.923 338.383ZM248.555 325.011C246.834 327.013 245.929 329.907 248.429 332.055C250.929 334.204 253.643 332.887 255.426 330.812C256.939 329.052 257.752 326.903 256.335 324.968L254.312 327.322C254.452 327.822 254.532 328.587 253.812 329.425C252.895 330.492 251.964 330.495 251.162 330.079L255.969 324.485C253.117 321.717 250.13 323.179 248.555 325.011ZM249.856 328.873C249.418 328.18 249.376 327.32 250.169 326.398C250.867 325.585 251.661 325.423 252.495 325.803L249.856 328.873ZM256.909 315.292C255.699 316.699 255.824 318.051 256.04 318.659L255.045 317.804L252.772 320.449L259.239 326.008L261.513 323.363L258.758 320.995C257.751 320.129 257.249 319.044 258.417 317.685C258.918 317.103 259.451 316.801 259.866 316.589L260.054 316.37L257.821 314.451C257.561 314.607 257.264 314.879 256.909 315.292Z" fill="black"/>
</g>
<rect x="94.3498" y="477.149" width="319.5" height="102.5" rx="51.25" transform="rotate(-53.4184 94.3498 477.149)" stroke="black" stroke-width="0.5"/>
<g clip-path="url(#clip4_1687_4054)">
<rect x="25.5126" y="17.4375" width="318" height="103" rx="51.5" transform="rotate(46.1347 25.5126 17.4375)" fill="#62AA70"/>
<path d="M25.1571 138.758C23.1441 137.975 22.6897 136.407 23.4092 134.559C24.1229 132.725 25.5174 131.877 27.5303 132.66C29.2152 133.316 29.7038 134.398 29.5154 135.853L33.1387 137.263C33.9174 133.806 31.5602 131.481 28.4587 130.274C25.0591 128.951 21.3799 129.185 19.8306 133.166C18.2755 137.162 20.829 139.821 24.2287 141.144C27.3301 142.351 30.639 142.231 32.4018 139.157L28.7785 137.747C27.934 138.946 26.842 139.414 25.1571 138.758ZM39.5038 137.44C36.9242 136.436 35.0619 136.501 34.0242 138.329L36.9915 139.484C37.2873 139.032 37.642 138.827 38.7901 139.274C40.1768 139.813 40.1253 140.343 39.8294 141.103L39.7888 141.207C34.4922 138.803 33.0157 139.773 32.3194 141.563C31.7101 143.128 32.6642 144.427 34.9157 145.303C36.2726 145.831 37.5012 145.674 38.1815 145.338L37.8507 146.188L41.1013 147.453L43.0799 142.368C44.1186 139.699 42.0685 138.438 39.5038 137.44ZM38.7327 143.921C38.103 144.26 37.2091 144.307 36.3741 143.982C35.6435 143.698 35.2774 143.315 35.5095 142.718C35.8808 141.764 37.1383 142.15 39.0867 143.012L38.7327 143.921ZM46.5776 136.913L42.2953 147.917L45.5458 149.182L49.8281 138.178L46.5776 136.913ZM54.667 143.34C52.2067 142.383 49.1771 142.492 47.9817 145.563C46.7864 148.635 48.9308 150.757 51.4805 151.749C53.6426 152.591 55.9399 152.643 57.294 150.664L54.4013 149.538C53.9762 149.836 53.2811 150.166 52.2523 149.766C50.9401 149.255 50.6288 148.379 50.7541 147.483L57.628 150.158C59.2907 146.547 56.9185 144.216 54.667 143.34ZM51.4578 145.851C51.9658 145.208 52.762 144.882 53.8953 145.323C54.8943 145.712 55.3108 146.407 55.2303 147.319L51.4578 145.851ZM66.4917 147.942C64.9559 147.344 63.7032 147.784 63.2276 148.08L63.6221 147.066L60.3716 145.801L57.2788 153.748L60.5294 155.013L62.2295 150.644C62.5777 149.75 63.2414 149.235 64.3597 149.67C65.478 150.106 65.5689 150.931 65.2266 151.81L63.5265 156.179L66.777 157.444L68.7673 152.33C69.5564 150.302 68.6836 148.795 66.4917 147.942ZM78.7683 150.093L77.4279 153.537C77.0528 152.515 76.2552 151.741 75.1816 151.324C72.7214 150.366 70.2623 151.126 69.2121 153.825C68.1618 156.524 69.4603 158.746 71.9206 159.703C72.9942 160.121 74.1051 160.09 75.0779 159.576L74.7065 160.53L77.957 161.795L82.0188 151.357L78.7683 150.093ZM73.5945 157.917C72.163 157.36 71.8957 156.105 72.3135 155.032C72.7313 153.958 73.7761 153.215 75.2076 153.772C76.7434 154.369 76.9859 155.511 76.5333 156.674C76.0807 157.837 75.1303 158.515 73.5945 157.917ZM86.726 155.816C84.1465 154.812 82.2841 154.877 81.2465 156.705L84.2137 157.86C84.5096 157.409 84.8642 157.203 86.0123 157.65C87.399 158.19 87.3476 158.719 87.0516 159.48L87.011 159.584C81.7145 157.179 80.2379 158.15 79.5416 159.939C78.9324 161.505 79.8864 162.803 82.138 163.68C83.4948 164.208 84.7235 164.05 85.4037 163.714L85.073 164.564L88.3235 165.829L90.3022 160.745C91.3408 158.076 89.2907 156.814 86.726 155.816ZM85.9549 162.298C85.3252 162.636 84.4313 162.683 83.5963 162.358C82.8657 162.074 82.4996 161.691 82.7317 161.095C83.1031 160.141 84.3606 160.527 86.3089 161.388L85.9549 162.298ZM98.8497 160.534C97.12 159.861 95.8863 160.428 95.385 160.834L95.8608 159.611L92.6103 158.346L89.5175 166.294L92.7681 167.559L94.0852 164.174C94.5669 162.936 95.4237 162.102 97.0937 162.752C97.8094 163.031 98.2707 163.433 98.6095 163.754L98.8779 163.859L99.9456 161.115C99.712 160.921 99.3566 160.731 98.8497 160.534ZM106.539 163.08C107.523 163.463 108.439 163.184 108.822 162.2C109.204 161.216 108.724 160.376 107.74 159.993C106.756 159.61 105.835 159.904 105.452 160.888C105.069 161.873 105.555 162.697 106.539 163.08ZM101.589 170.991L104.839 172.256L107.932 164.309L104.682 163.044L101.589 170.991ZM115.243 166.913C113.707 166.316 112.454 166.755 111.979 167.051L112.373 166.037L109.123 164.772L106.03 172.72L109.281 173.985L110.981 169.616C111.329 168.721 111.993 168.207 113.111 168.642C114.229 169.077 114.32 169.902 113.978 170.782L112.278 175.151L115.528 176.416L117.518 171.301C118.308 169.274 117.435 167.766 115.243 166.913ZM126.036 171.354L122.294 175.409L122.263 169.886L118.923 168.586L119.528 177.972L122.585 179.162L129.39 172.659L126.036 171.354ZM131.992 172.985C132.976 173.368 133.892 173.089 134.275 172.105C134.658 171.121 134.177 170.281 133.193 169.899C132.209 169.516 131.288 169.809 130.905 170.794C130.522 171.778 131.008 172.602 131.992 172.985ZM127.042 180.896L130.293 182.161L133.385 174.214L130.135 172.949L127.042 180.896ZM140.471 179.083L141.185 177.249L138.859 176.344L139.66 174.286L136.409 173.021L135.608 175.079L134.132 174.505L133.418 176.339L134.895 176.913L133.751 179.85C132.829 182.221 133.179 183.439 136.176 184.605C136.787 184.843 137.506 185.071 138.086 185.212L138.945 183.005C137.297 182.518 136.567 182.234 137.002 181.115L138.145 178.178L140.471 179.083ZM146.927 179.243C144.467 178.286 141.437 178.395 140.242 181.466C139.047 184.538 141.191 186.66 143.741 187.652C145.903 188.494 148.2 188.546 149.554 186.567L146.662 185.441C146.237 185.739 145.541 186.07 144.513 185.669C143.2 185.159 142.889 184.282 143.014 183.386L149.888 186.061C151.551 182.451 149.179 180.12 146.927 179.243ZM143.718 181.755C144.226 181.111 145.022 180.786 146.156 181.227C147.155 181.615 147.571 182.31 147.491 183.223L143.718 181.755ZM156.511 186.527C155.218 185.835 154.394 185.48 154.591 184.973C154.748 184.57 155.22 184.548 156.294 184.966C157.323 185.366 157.699 185.856 157.496 186.378L160.731 187.637C161.323 186.116 160.44 184.502 157.026 183.173C154.029 182.007 152.1 182.287 151.421 184.031C150.771 185.701 151.858 186.57 153.952 187.763C155.78 188.801 156.729 189.187 156.491 189.798C156.311 190.261 155.725 190.221 154.756 189.844C153.653 189.415 153.048 188.939 153.35 188.164L149.95 186.841C149.213 188.735 150.544 190.3 153.899 191.605C157.015 192.818 159.176 192.869 159.971 190.826C160.777 188.754 158.816 187.75 156.511 186.527Z" fill="black"/>
</g>
<rect x="25.5056" y="17.791" width="317.5" height="102.5" rx="51.25" transform="rotate(46.1347 25.5056 17.791)" stroke="black" stroke-width="0.5"/>
<g clip-path="url(#clip5_1687_4054)">
<rect x="384.906" y="466.592" width="318" height="103" rx="51.5" transform="rotate(164.709 384.906 466.592)" fill="#62AA70"/>
<path d="M101.258 515.706C99.3551 516.728 97.8682 516.055 96.93 514.307C95.9994 512.573 96.2607 510.962 98.1639 509.94C99.757 509.085 100.898 509.417 101.881 510.506L105.307 508.667C103.185 505.829 99.8858 506.111 96.9534 507.685C93.739 509.41 91.5264 512.358 93.5465 516.123C95.5742 519.901 99.2546 519.687 102.469 517.962C105.401 516.388 107.46 513.795 106.268 510.458L102.842 512.296C103.205 513.717 102.851 514.851 101.258 515.706ZM111.289 503.278L113.514 507.422C113.96 508.254 113.92 509.093 112.863 509.66C111.805 510.228 111.126 509.775 110.68 508.943L108.456 504.798L105.382 506.448L107.985 511.298C109.014 513.215 110.727 513.53 112.813 512.411C114.251 511.639 114.723 510.387 114.815 509.847L115.322 510.792L118.409 509.135L114.377 501.621L111.289 503.278ZM121.826 501.128C120.459 501.661 119.655 502.057 119.398 501.577C119.193 501.197 119.483 500.823 120.498 500.279C121.471 499.757 122.087 499.789 122.352 500.282L125.412 498.64C124.64 497.202 122.839 496.825 119.611 498.558C116.777 500.078 115.737 501.726 116.622 503.376C117.469 504.955 118.836 504.693 121.103 503.876C123.08 503.16 123.99 502.69 124.3 503.268C124.534 503.705 124.124 504.125 123.208 504.617C122.164 505.177 121.41 505.328 121.017 504.594L117.802 506.319C118.763 508.11 120.818 508.115 123.99 506.413C126.936 504.831 128.379 503.222 127.342 501.29C126.291 499.331 124.253 500.17 121.826 501.128ZM132.318 494.226L131.388 492.492L129.188 493.672L128.144 491.726L125.071 493.376L126.115 495.321L124.719 496.07L125.65 497.804L127.046 497.055L128.536 499.833C129.739 502.074 130.892 502.599 133.726 501.079C134.304 500.768 134.944 500.37 135.428 500.02L134.308 497.934C132.868 498.87 132.177 499.241 131.609 498.183L130.119 495.406L132.318 494.226ZM136.775 489.346C134.449 490.594 132.423 493.044 133.981 495.948C135.54 498.852 138.701 498.518 141.027 497.269C143.339 496.028 145.366 493.579 143.807 490.675C142.249 487.77 139.087 488.105 136.775 489.346ZM139.953 495.267C138.515 496.039 137.472 495.382 136.928 494.367C136.383 493.352 136.412 492.12 137.85 491.348C139.274 490.584 140.316 491.241 140.861 492.256C141.406 493.271 141.377 494.503 139.953 495.267ZM153.218 480.522C151.822 481.271 151.325 482.409 151.165 483.058C150.313 482.553 149.271 482.64 147.974 483.336C146.578 484.085 146.245 485.19 146.203 485.721L145.711 484.805L142.638 486.454L146.67 493.969L149.744 492.319L147.527 488.188C147.073 487.342 146.873 486.632 147.903 486.08C148.932 485.528 149.378 486.123 149.825 486.955L152.042 491.086L155.115 489.437L152.898 485.306C152.444 484.46 152.259 483.742 153.288 483.19C154.317 482.638 154.75 483.241 155.196 484.073L157.413 488.203L160.486 486.554L157.891 481.718C156.862 479.801 155.29 479.41 153.218 480.522ZM166.757 473.256C165.742 473.801 165.044 474.666 164.795 475.725L164.311 474.823L161.238 476.472L166.534 486.341L169.607 484.692L167.86 481.435C168.887 481.827 169.994 481.724 171.009 481.179C173.335 479.931 174.369 477.56 173 475.008C171.63 472.457 169.083 472.008 166.757 473.256ZM169.145 479.601C167.693 480.38 166.653 479.83 166.063 478.731C165.473 477.631 165.59 476.461 167.042 475.682C168.395 474.955 169.508 475.575 170.053 476.59C170.598 477.605 170.499 478.875 169.145 479.601ZM175.881 468.359C173.442 469.668 172.282 471.126 172.998 473.103L175.803 471.597C175.652 471.079 175.726 470.676 176.812 470.093C178.123 469.39 178.492 469.773 178.878 470.492L178.931 470.59C173.662 473.055 173.441 474.808 174.349 476.5C175.143 477.98 176.75 478.098 178.879 476.956C180.162 476.267 180.84 475.231 181.027 474.496L181.458 475.299L184.531 473.65L181.951 468.842C180.597 466.319 178.306 467.058 175.881 468.359ZM180.308 473.156C180.156 473.855 179.611 474.565 178.822 474.989C178.131 475.36 177.602 475.389 177.3 474.825C176.815 473.923 177.926 473.218 179.846 472.296L180.308 473.156ZM187.344 462.208C185.709 463.085 185.339 464.392 185.321 465.036L184.701 463.88L181.628 465.53L185.66 473.044L188.734 471.395L187.016 468.194C186.388 467.024 186.311 465.831 187.89 464.984C188.567 464.62 189.172 464.531 189.636 464.482L189.89 464.346L188.498 461.752C188.199 461.803 187.824 461.95 187.344 462.208ZM196.696 459.677L195.765 457.943L193.566 459.123L192.522 457.177L189.449 458.827L190.493 460.772L189.097 461.521L190.028 463.255L191.423 462.506L192.914 465.284C194.117 467.525 195.27 468.05 198.104 466.529C198.682 466.219 199.322 465.821 199.806 465.471L198.686 463.384C197.245 464.321 196.555 464.692 195.987 463.634L194.497 460.857L196.696 459.677ZM202.933 454.096L203.59 459.481L199.366 456.01L196.194 457.712L203.769 463.199L203.76 466.363L206.876 464.691L206.091 452.401L202.933 454.096ZM215.976 446.842C214.961 447.387 214.263 448.251 214.015 449.311L213.531 448.409L210.457 450.058L215.753 459.927L218.827 458.277L217.079 455.021C218.107 455.413 219.213 455.31 220.228 454.765C222.555 453.517 223.589 451.146 222.219 448.594C220.85 446.042 218.303 445.593 215.976 446.842ZM218.365 453.187C216.913 453.966 215.873 453.416 215.283 452.317C214.693 451.217 214.809 450.047 216.261 449.267C217.615 448.541 218.728 449.16 219.273 450.175C219.817 451.19 219.718 452.46 218.365 453.187ZM225.101 441.945C222.662 443.254 221.501 444.712 222.217 446.689L225.023 445.183C224.872 444.665 224.946 444.262 226.031 443.679C227.343 442.975 227.712 443.359 228.097 444.078L228.15 444.176C222.881 446.641 222.66 448.394 223.568 450.085C224.362 451.566 225.969 451.684 228.098 450.542C229.381 449.853 230.06 448.817 230.246 448.081L230.677 448.885L233.751 447.236L231.171 442.428C229.817 439.905 227.526 440.644 225.101 441.945ZM229.527 446.742C229.376 447.441 228.831 448.151 228.041 448.575C227.351 448.945 226.822 448.975 226.519 448.411C226.035 447.509 227.145 446.804 229.066 445.882L229.527 446.742ZM237.219 435.696L237.628 436.457C236.646 436.149 235.577 436.323 234.562 436.868C232.236 438.116 231.072 440.211 232.442 442.763C233.811 445.315 236.125 445.362 238.451 444.114C239.466 443.569 240.224 442.817 240.526 441.857L240.881 442.519C241.57 443.802 240.709 444.464 239.665 445.024C238.848 445.463 238.089 445.707 237.728 445.373L234.852 446.917C235.74 448.402 237.725 448.48 240.672 446.899C243.111 445.59 245.551 443.844 243.955 440.87L240.293 434.046L237.219 435.696ZM238.256 441.822C236.944 442.526 235.919 442.204 235.374 441.189C234.829 440.174 235.129 439.142 236.44 438.438C237.835 437.689 238.774 437.949 239.364 439.048C239.954 440.148 239.651 441.073 238.256 441.822ZM245.812 430.83C243.486 432.078 241.6 434.452 243.159 437.356C244.717 440.261 247.724 440.009 250.135 438.715C252.179 437.618 253.711 435.906 253.086 433.591L250.351 435.058C250.302 435.575 250.101 436.318 249.128 436.84C247.888 437.506 247.019 437.173 246.42 436.496L252.919 433.008C251.254 429.399 247.941 429.688 245.812 430.83ZM245.636 434.901C245.477 434.097 245.747 433.28 246.818 432.705C247.763 432.198 248.561 432.333 249.203 432.987L245.636 434.901ZM257.575 428.276C256.209 428.81 255.404 429.205 255.147 428.726C254.943 428.345 255.232 427.972 256.248 427.427C257.22 426.905 257.837 426.937 258.102 427.431L261.161 425.789C260.389 424.351 258.589 423.973 255.36 425.706C252.527 427.227 251.486 428.875 252.371 430.524C253.219 432.103 254.586 431.842 256.853 431.024C258.829 430.309 259.739 429.839 260.049 430.417C260.284 430.854 259.874 431.274 258.957 431.765C257.914 432.325 257.159 432.476 256.766 431.743L253.552 433.468C254.513 435.258 256.567 435.263 259.739 433.561C262.686 431.98 264.128 430.37 263.092 428.439C262.04 426.479 260.003 427.318 257.575 428.276Z" fill="black"/>
</g>
<rect x="384.599" y="466.417" width="317.5" height="102.5" rx="51.25" transform="rotate(164.709 384.599 466.417)" stroke="black" stroke-width="0.5"/>
<rect x="-77.3419" y="162.525" width="316.5" height="101.5" rx="50.75" transform="rotate(9.28185 -77.3419 162.525)" fill="#E8A237"/>
<path d="M30.9543 231.239L34.8876 232.324L33.4242 227.638C34.9501 227.461 36.0721 226.642 36.5229 225.007C37.1309 222.801 35.8744 220.978 32.8974 220.157L25.216 218.04L22.2394 228.837L25.8951 229.845L26.8603 226.343L29.7293 227.134L30.9543 231.239ZM28.1827 221.546L31.6841 222.511C32.6559 222.779 33.0011 223.273 32.8055 223.982C32.6142 224.676 32.1218 225.138 31.0421 224.841L27.5407 223.875L28.1827 221.546ZM44.2867 227.662C42.4867 226.967 41.1618 226.535 41.3659 225.795C41.536 225.178 42.3667 225.174 43.8475 225.582C45.2512 225.969 46.0256 226.531 45.8215 227.272L49.5389 228.297C50.0534 226.43 49.151 224.406 44.5699 223.143C40.3744 221.986 38.2827 222.77 37.6789 224.961C37.0836 227.12 38.0645 228.137 41.2405 229.561C44.209 230.894 45.2707 231.136 45.0708 231.861C44.905 232.463 43.9817 232.441 42.5317 232.041C41.0201 231.624 39.8627 231.007 40.1391 230.004L36.3138 228.949C35.6887 231.217 37.0894 233.18 41.6551 234.438C45.8969 235.608 48.396 235.151 49.1104 232.56C49.863 229.83 47.5668 228.948 44.2867 227.662ZM61.0808 227.927L55.5518 235.099L54.4791 226.107L50.6847 225.061L52.6903 237.231L56.9166 238.397L64.8907 228.977L61.0808 227.927ZM73.3264 231.303L65.6604 229.189L62.6838 239.986L66.3395 240.994L67.2665 237.632L70.845 238.618C73.8219 239.439 76.0434 238.906 76.7918 236.191C77.3999 233.986 76.3034 232.123 73.3264 231.303ZM71.0934 236.031L67.9468 235.164L68.6272 232.696L71.7738 233.563C72.8535 233.861 73.3083 234.318 73.0745 235.167C72.8448 236 72.2349 236.346 71.0934 236.031ZM87.1153 244.315C85.033 243.741 84.4211 242.228 84.9483 240.315C85.4714 238.418 86.7721 237.432 88.8544 238.006C90.5974 238.487 91.1938 239.514 91.1547 240.981L94.9029 242.014C95.3251 238.496 92.7431 236.423 89.5348 235.539C86.018 234.569 82.3818 235.176 81.2464 239.295C80.1068 243.429 82.9181 245.814 86.4349 246.783C89.6433 247.668 92.9226 247.211 94.3629 243.973L90.6147 242.94C89.8969 244.219 88.8583 244.796 87.1153 244.315ZM101.623 241.643C99.078 240.941 95.9209 241.315 95.045 244.493C94.169 247.67 96.6882 249.61 99.2333 250.311C101.763 251.009 104.92 250.634 105.796 247.457C106.672 244.279 104.153 242.34 101.623 241.643ZM99.8371 248.121C98.2638 247.687 97.9625 246.492 98.2687 245.382C98.5749 244.271 99.4459 243.399 101.019 243.833C102.577 244.262 102.878 245.457 102.572 246.568C102.266 247.679 101.395 248.55 99.8371 248.121ZM108.733 240.433L105.595 251.816L108.958 252.743L112.096 241.36L108.733 240.433ZM113.327 241.699L110.189 253.083L113.552 254.01L116.69 242.626L113.327 241.699ZM122.03 247.268C119.485 246.567 116.482 246.984 115.606 250.161C114.73 253.339 117.08 255.231 119.717 255.958C121.954 256.575 124.245 256.393 125.39 254.286L122.397 253.461C122.005 253.801 121.347 254.2 120.283 253.907C118.925 253.533 118.526 252.692 118.56 251.789L125.671 253.749C126.956 249.987 124.359 247.91 122.03 247.268ZM119.093 250.094C119.533 249.402 120.292 248.997 121.464 249.32C122.498 249.605 122.983 250.253 122.996 251.169L119.093 250.094ZM131.288 256.791C129.731 256.362 129.429 255.167 129.736 254.056C130.042 252.946 130.913 252.074 132.471 252.503C133.674 252.835 134.156 253.615 134.155 254.461L137.271 255.32C137.573 252.599 135.404 250.955 133.074 250.313C130.545 249.616 127.388 249.99 126.512 253.168C125.636 256.345 128.155 258.284 130.685 258.982C133.014 259.624 135.719 259.324 136.858 256.816L133.742 255.958C133.31 256.685 132.492 257.123 131.288 256.791ZM145.28 255.952L145.803 254.055L143.397 253.391L143.984 251.263L140.621 250.336L140.035 252.464L138.508 252.043L137.985 253.94L139.512 254.361L138.674 257.4C137.998 259.853 138.47 261.028 141.571 261.883C142.203 262.057 142.941 262.211 143.533 262.291L144.162 260.008C142.473 259.692 141.718 259.484 142.036 258.327L142.874 255.288L145.28 255.952ZM148.741 254.201C149.759 254.481 150.642 254.11 150.922 253.092C151.203 252.074 150.64 251.288 149.621 251.008C148.603 250.727 147.717 251.113 147.436 252.131C147.156 253.149 147.723 253.92 148.741 254.201ZM144.623 262.575L147.986 263.502L150.252 255.281L146.89 254.354L144.623 262.575ZM156.618 256.804C154.073 256.102 150.916 256.476 150.04 259.654C149.164 262.831 151.684 264.771 154.229 265.472C156.758 266.17 159.915 265.795 160.791 262.618C161.667 259.44 159.148 257.501 156.618 256.804ZM154.832 263.282C153.259 262.848 152.958 261.653 153.264 260.543C153.57 259.432 154.441 258.56 156.015 258.994C157.572 259.423 157.874 260.618 157.568 261.729C157.261 262.84 156.39 263.711 154.832 263.282ZM169.163 260.262C167.575 259.824 166.373 260.389 165.93 260.732L166.219 259.683L162.857 258.756L160.59 266.977L163.953 267.904L165.199 263.385C165.454 262.459 166.062 261.88 167.219 262.199C168.375 262.518 168.55 263.329 168.299 264.239L167.053 268.759L170.416 269.686L171.874 264.395C172.453 262.297 171.431 260.887 169.163 260.262ZM178.414 266.248C177.057 265.691 176.202 265.422 176.346 264.898C176.461 264.481 176.929 264.411 178.039 264.717C179.104 265.01 179.528 265.459 179.379 265.999L182.726 266.922C183.16 265.349 182.117 263.833 178.585 262.859C175.484 262.004 173.594 262.479 173.097 264.284C172.62 266.011 173.79 266.765 175.995 267.738C177.919 268.584 178.902 268.872 178.728 269.504C178.596 269.982 178.009 270.003 177.007 269.727C175.865 269.412 175.215 269.001 175.436 268.199L171.92 267.229C171.38 269.188 172.863 270.609 176.334 271.566C179.557 272.455 181.712 272.285 182.295 270.172C182.886 268.028 180.832 267.23 178.414 266.248Z" fill="black"/>
<rect x="-77.3419" y="162.525" width="316.5" height="101.5" rx="50.75" transform="rotate(9.28185 -77.3419 162.525)" stroke="black" stroke-width="0.5"/>
<g clip-path="url(#clip6_1687_4054)">
<rect x="236" y="484.202" width="320" height="102" rx="51" transform="rotate(-67.6513 236 484.202)" fill="#BAA2F2"/>
<path d="M301.548 422.835L307.498 427.9L299.805 426.558L298.386 429.587L304.343 434.637L296.643 433.311L294.973 436.875L306.663 438.321L308.462 434.482L303.142 429.959L310.015 431.163L311.814 427.324L303.224 419.256L301.548 422.835ZM307.304 416.316C306.13 418.823 306.071 420.685 307.825 421.843L309.176 418.959C308.745 418.634 308.564 418.266 309.086 417.151C309.717 415.803 310.242 415.89 310.981 416.236L311.083 416.283C308.33 421.408 309.199 422.946 310.938 423.76C312.46 424.472 313.819 423.607 314.843 421.419C315.461 420.101 315.386 418.864 315.096 418.163L315.922 418.55L317.401 415.391L312.46 413.077C309.867 411.863 308.471 413.824 307.304 416.316ZM313.72 417.518C314.016 418.169 314.003 419.064 313.623 419.876C313.29 420.586 312.884 420.925 312.304 420.654C311.377 420.22 311.846 418.991 312.836 417.104L313.72 417.518ZM310.382 408.763C310.829 407.807 310.612 406.875 309.656 406.427C308.7 405.979 307.83 406.402 307.382 407.359C306.934 408.315 307.166 409.254 308.122 409.702C309.079 410.149 309.934 409.72 310.382 408.763ZM317.945 414.231L319.424 411.072L311.701 407.455L310.222 410.614L317.945 414.231ZM317.032 400.71L315.25 399.876L314.192 402.136L312.192 401.2L310.713 404.359L312.712 405.295L312.041 406.729L313.823 407.564L314.495 406.13L317.349 407.466C319.653 408.545 320.892 408.277 322.256 405.365C322.534 404.771 322.809 404.069 322.988 403.499L320.843 402.495C320.248 404.106 319.915 404.816 318.828 404.307L315.974 402.971L317.032 400.71ZM315.888 397.004C316.336 396.048 316.119 395.116 315.162 394.668C314.206 394.22 313.337 394.643 312.889 395.6C312.441 396.556 312.673 397.495 313.629 397.943C314.585 398.391 315.44 397.961 315.888 397.004ZM323.451 402.472L324.93 399.313L317.207 395.696L315.728 398.855L323.451 402.472ZM320.294 388.576C319.595 390.068 319.95 391.348 320.214 391.842L319.228 391.38L317.749 394.539L325.472 398.156L326.951 394.997L322.706 393.009C321.837 392.602 321.368 391.905 321.877 390.818C322.386 389.732 323.215 389.696 324.07 390.096L328.315 392.085L329.795 388.926L324.825 386.598C322.854 385.676 321.292 386.446 320.294 388.576ZM325.68 377.603L326.462 377.97C325.49 378.31 324.737 379.088 324.249 380.131C323.129 382.522 323.448 384.897 326.071 386.125C328.693 387.354 330.577 386.01 331.697 383.619C332.185 382.576 332.344 381.519 332.012 380.569L332.693 380.888C334.012 381.505 333.716 382.55 333.214 383.623C332.821 384.463 332.358 385.112 331.87 385.06L330.486 388.016C332.084 388.677 333.723 387.554 335.141 384.525C336.315 382.018 337.23 379.16 334.172 377.729L327.159 374.445L325.68 377.603ZM330.171 381.897C329.54 383.245 328.525 383.6 327.482 383.112C326.439 382.623 326.062 381.616 326.693 380.269C327.365 378.834 328.272 378.482 329.402 379.011C330.533 379.54 330.843 380.463 330.171 381.897ZM332.064 363.442C331.277 365.123 331.76 366.392 332.132 366.919L330.944 366.363L329.465 369.521L337.188 373.138L338.667 369.979L335.378 368.439C334.175 367.876 333.4 366.965 334.16 365.342C334.486 364.647 334.918 364.213 335.261 363.897L335.383 363.636L332.717 362.387C332.508 362.608 332.295 362.949 332.064 363.442ZM335.158 356.834C334.039 359.225 333.877 362.4 336.862 363.798C339.847 365.196 342.182 363.038 343.302 360.647C344.415 358.271 344.576 355.096 341.591 353.698C338.607 352.3 336.271 354.458 335.158 356.834ZM341.244 359.684C340.552 361.162 339.323 361.258 338.28 360.769C337.237 360.281 336.524 359.276 337.216 357.798C337.901 356.334 339.13 356.238 340.173 356.727C341.217 357.215 341.93 358.22 341.244 359.684ZM340.161 346.151C339.042 348.541 338.88 351.716 341.865 353.114C344.85 354.512 347.185 352.355 348.305 349.964C349.417 347.588 349.579 344.413 346.594 343.015C343.609 341.617 341.274 343.774 340.161 346.151ZM346.247 349C345.555 350.478 344.326 350.574 343.283 350.086C342.24 349.597 341.527 348.592 342.219 347.114C342.904 345.651 344.133 345.555 345.176 346.043C346.219 346.532 346.932 347.537 346.247 349ZM348.075 329.251C347.403 330.685 347.685 331.895 347.944 332.511C346.959 332.615 346.175 333.308 345.551 334.641C344.879 336.076 345.272 337.161 345.556 337.612L344.614 337.17L343.135 340.329L350.858 343.946L352.337 340.787L348.092 338.799C347.222 338.392 346.638 337.942 347.133 336.884C347.629 335.826 348.343 336.037 349.198 336.437L353.443 338.425L354.922 335.266L350.677 333.278C349.807 332.871 349.23 332.406 349.725 331.349C350.221 330.291 350.928 330.516 351.783 330.916L356.028 332.905L357.508 329.746L352.537 327.418C350.567 326.496 349.073 327.121 348.075 329.251ZM355.462 321.287C354.685 322.531 354.276 323.329 353.783 323.098C353.392 322.915 353.401 322.442 353.89 321.399C354.358 320.399 354.872 320.056 355.379 320.294L356.851 317.15C355.373 316.457 353.704 317.23 352.15 320.549C350.786 323.461 350.937 325.404 352.632 326.198C354.255 326.958 355.195 325.932 356.524 323.922C357.682 322.167 358.131 321.247 358.725 321.525C359.174 321.735 359.096 322.317 358.655 323.259C358.153 324.331 357.638 324.903 356.884 324.55L355.337 327.854C357.177 328.715 358.828 327.492 360.355 324.232C361.773 321.203 361.968 319.051 359.983 318.121C357.969 317.178 356.836 319.068 355.462 321.287ZM358.731 306.495C357.557 309.002 357.498 310.865 359.253 312.022L360.603 309.139C360.172 308.813 359.991 308.446 360.513 307.33C361.145 305.982 361.669 306.069 362.408 306.415L362.51 306.463C359.757 311.587 360.627 313.125 362.365 313.939C363.887 314.652 365.246 313.786 366.271 311.598C366.888 310.28 366.813 309.043 366.523 308.342L367.349 308.729L368.829 305.57L363.887 303.256C361.294 302.042 359.898 304.003 358.731 306.495ZM365.147 307.698C365.443 308.349 365.43 309.244 365.05 310.055C364.717 310.765 364.311 311.105 363.731 310.833C362.804 310.399 363.274 309.17 364.263 307.284L365.147 307.698ZM364.194 294.83C363.495 296.322 363.85 297.602 364.113 298.096L363.128 297.634L361.649 300.793L369.372 304.41L370.851 301.251L366.606 299.263C365.736 298.856 365.267 298.159 365.776 297.072C366.285 295.986 367.115 295.95 367.969 296.35L372.215 298.339L373.694 295.18L368.724 292.852C366.753 291.93 365.191 292.7 364.194 294.83ZM367.16 282.724L370.507 284.292C369.463 284.598 368.637 285.342 368.148 286.385C367.029 288.776 367.623 291.28 370.246 292.508C372.868 293.737 375.172 292.589 376.292 290.199C376.78 289.155 376.823 288.045 376.375 287.04L377.303 287.474L378.782 284.315L368.639 279.565L367.16 282.724ZM374.621 288.409C373.97 289.8 372.7 289.983 371.657 289.494C370.614 289.006 369.941 287.914 370.593 286.523C371.292 285.03 372.447 284.865 373.577 285.394C374.707 285.923 375.32 286.917 374.621 288.409ZM331.266 402.874C330.092 405.38 330.033 407.243 331.788 408.4L333.138 405.517C332.707 405.191 332.526 404.824 333.049 403.708C333.68 402.361 334.204 402.447 334.943 402.793L335.045 402.841C332.292 407.965 333.162 409.503 334.901 410.317C336.422 411.03 337.781 410.165 338.806 407.977C339.423 406.658 339.349 405.422 339.059 404.72L339.884 405.107L341.364 401.948L336.423 399.635C333.829 398.42 332.433 400.381 331.266 402.874ZM337.682 404.076C337.978 404.727 337.965 405.622 337.585 406.433C337.253 407.143 336.846 407.483 336.267 407.212C335.339 406.777 335.809 405.548 336.798 403.662L337.682 404.076ZM336.688 391.295C336.2 392.338 336.157 393.449 336.59 394.447L335.663 394.013L334.184 397.171L344.327 401.921L345.806 398.762L342.459 397.195C343.518 396.896 344.343 396.152 344.832 395.108C345.951 392.718 345.364 390.199 342.741 388.971C340.119 387.742 337.808 388.904 336.688 391.295ZM342.394 394.956C341.695 396.449 340.533 396.629 339.403 396.1C338.273 395.57 337.667 394.562 338.366 393.07C339.017 391.679 340.28 391.51 341.323 391.999C342.367 392.488 343.046 393.565 342.394 394.956ZM341.784 380.413C341.296 381.457 341.253 382.567 341.686 383.565L340.759 383.131L339.28 386.29L349.423 391.04L350.902 387.881L347.555 386.313C348.613 386.014 349.439 385.27 349.927 384.227C351.047 381.836 350.46 379.317 347.837 378.089C345.214 376.861 342.904 378.023 341.784 380.413ZM347.49 384.075C346.791 385.567 345.629 385.747 344.499 385.218C343.368 384.689 342.763 383.681 343.462 382.188C344.113 380.797 345.376 380.629 346.419 381.117C347.462 381.606 348.141 382.684 347.49 384.075ZM346.975 369.329C346.188 371.01 346.671 372.279 347.043 372.806L345.854 372.249L344.375 375.408L352.098 379.025L353.578 375.866L350.288 374.326C349.086 373.763 348.311 372.852 349.071 371.229C349.396 370.534 349.829 370.1 350.172 369.784L350.294 369.523L347.628 368.274C347.419 368.494 347.205 368.836 346.975 369.329ZM350.069 362.721C348.95 365.112 348.788 368.287 351.773 369.685C354.758 371.082 357.093 368.925 358.213 366.534C359.325 364.158 359.487 360.983 356.502 359.585C353.517 358.187 351.182 360.345 350.069 362.721ZM356.155 365.571C355.463 367.049 354.234 367.145 353.191 366.656C352.148 366.168 351.435 365.162 352.127 363.684C352.812 362.221 354.041 362.125 355.084 362.614C356.127 363.102 356.84 364.107 356.155 365.571ZM355.736 351.148L359.532 355.152L354.019 354.814L352.499 358.059L361.905 358.082L363.296 355.112L357.263 347.887L355.736 351.148ZM359.13 343.371C357.956 345.878 357.897 347.741 359.652 348.898L361.002 346.015C360.571 345.689 360.39 345.322 360.912 344.206C361.544 342.858 362.068 342.945 362.807 343.291L362.909 343.339C360.156 348.463 361.026 350.001 362.764 350.815C364.286 351.528 365.645 350.662 366.67 348.474C367.287 347.156 367.212 345.919 366.922 345.218L367.748 345.605L369.228 342.446L364.286 340.132C361.693 338.918 360.297 340.879 359.13 343.371ZM365.546 344.574C365.842 345.225 365.829 346.12 365.449 346.931C365.116 347.641 364.71 347.981 364.13 347.709C363.203 347.275 363.673 346.046 364.662 344.16L365.546 344.574ZM359.077 336.278L369.771 341.286L371.25 338.127L360.557 333.119L359.077 336.278ZM369.206 329.664C368.429 330.908 368.02 331.706 367.528 331.475C367.137 331.292 367.146 330.819 367.634 329.776C368.103 328.776 368.616 328.434 369.124 328.671L370.596 325.527C369.118 324.835 367.449 325.608 365.895 328.926C364.531 331.838 364.681 333.782 366.376 334.575C367.999 335.335 368.939 334.309 370.269 332.299C371.426 330.545 371.875 329.624 372.469 329.902C372.918 330.113 372.84 330.694 372.399 331.636C371.897 332.708 371.382 333.28 370.629 332.927L369.082 336.231C370.922 337.093 372.572 335.869 374.099 332.609C375.517 329.581 375.713 327.428 373.727 326.499C371.713 325.555 370.581 327.446 369.206 329.664Z" fill="black"/>
</g>
<rect x="236.326" y="484.066" width="319.5" height="101.5" rx="50.75" transform="rotate(-67.6513 236.326 484.066)" stroke="black" stroke-width="0.5"/>
<defs>
<clipPath id="clip0_1687_4054">
<rect x="64.8917" width="323" height="103" rx="51.5" transform="rotate(24.9273 64.8917 0)" fill="white"/>
</clipPath>
<clipPath id="clip1_1687_4054">
<rect x="94.0001" y="296.221" width="320" height="103" rx="51.5" transform="rotate(-36.1974 94.0001 296.221)" fill="white"/>
</clipPath>
<clipPath id="clip2_1687_4054">
<rect x="61.222" y="115.238" width="320" height="103" rx="51.5" transform="rotate(74.0323 61.222 115.238)" fill="white"/>
</clipPath>
<clipPath id="clip3_1687_4054">
<rect x="94.0001" y="477.201" width="320" height="103" rx="51.5" transform="rotate(-53.4184 94.0001 477.201)" fill="white"/>
</clipPath>
<clipPath id="clip4_1687_4054">
<rect x="25.5126" y="17.4375" width="318" height="103" rx="51.5" transform="rotate(46.1347 25.5126 17.4375)" fill="white"/>
</clipPath>
<clipPath id="clip5_1687_4054">
<rect x="384.906" y="466.592" width="318" height="103" rx="51.5" transform="rotate(164.709 384.906 466.592)" fill="white"/>
</clipPath>
<clipPath id="clip6_1687_4054">
<rect x="236" y="484.202" width="320" height="102" rx="51" transform="rotate(-67.6513 236 484.202)" fill="white"/>
</clipPath>
</defs>
</svg>
