<svg width="390" height="454" viewBox="0 0 390 454" fill="none" xmlns="http://www.w3.org/2000/svg">
<path d="M89.2732 113.201L105.337 108.709L103.484 102.083L87.4206 106.575L86.3327 102.684L103.475 97.8909L101.623 91.265L75.0036 98.7078L82.5432 125.674L92.0198 123.024L89.2732 113.201ZM75.6937 99.0963L101.234 91.9551L102.785 97.5024L85.6426 102.295L87.0321 107.265L103.096 102.773L104.647 108.321L88.5831 112.812L91.3297 122.635L82.9318 124.983L75.6937 99.0963ZM134.92 100.355C137.928 97.8938 138.963 94.6139 137.897 90.8002C136.324 85.1759 131.073 83.0308 123.83 85.0557L104.762 90.3874L112.301 117.353L121.816 114.693L119.404 106.064L125.991 104.222L133.758 111.354L144.044 108.478L134.92 100.355ZM126.121 103.646L118.724 105.714L121.126 114.304L112.69 116.663L105.452 90.7759L123.981 85.5951C130.992 83.6347 135.86 85.5964 137.357 90.951C138.402 94.6877 137.352 97.7642 134.311 100.11L134.035 100.311L142.891 108.219L133.877 110.739L126.121 103.646ZM125.967 97.7492C129.088 96.8767 129.236 94.8831 128.805 93.3422C128.267 91.416 126.726 90.8084 124.222 91.5085L115.439 93.9643L117.184 100.205L125.967 97.7492ZM116.129 94.3528L124.373 92.0478C126.569 91.4339 127.824 91.9135 128.266 93.4929C128.794 95.3805 128.012 96.5959 125.816 97.2099L117.573 99.5148L116.129 94.3528ZM156.082 83.5143L154.822 94.4577L163.413 92.0558L156.66 83.3527L156.082 83.5143ZM155.48 93.6922L156.584 84.1215L162.491 91.7319L155.48 93.6922ZM159.767 75.0077L149.097 77.9912L144.155 108.447L154.094 105.668L154.598 101.083L167.04 97.6038L169.849 101.263L179.788 98.4837L159.767 75.0077ZM167.236 96.9676L154.1 100.64L153.596 105.226L144.852 107.671L149.594 78.4336L159.61 75.6332L178.79 98.1813L170.084 100.616L167.236 96.9676ZM189.327 73.8865L199.305 71.0969L197.452 64.471L167.982 72.7108L169.835 79.3367L179.812 76.547L185.499 96.8869L195.014 94.2264L189.327 73.8865ZM180.201 75.8569L170.223 78.6465L168.672 73.0993L197.063 65.1611L198.614 70.7083L188.637 73.498L194.324 93.8379L185.888 96.1968L180.201 75.8569ZM225.662 75.3569L233.275 54.4549L222.681 57.4169L218.931 69.555L209.391 61.1329L198.797 64.0949L216.185 78.0065L218.856 87.5601L228.333 84.9105L225.662 75.3569ZM216.671 77.6631L200.026 64.3327L209.272 61.7476L219.211 70.5566L223.14 57.8701L232.385 55.285L225.069 75.3151L227.643 84.522L219.245 86.87L216.671 77.6631Z" fill="black" fill-opacity="0.5"/>
<path d="M257.809 66.0776L273.873 61.5861L272.021 54.9602L255.957 59.4517L254.869 55.561L272.011 50.7679L270.159 44.142L243.54 51.5847L251.079 78.5505L260.556 75.9009L257.809 66.0776ZM244.23 51.9733L269.77 44.8321L271.321 50.3793L254.179 55.1724L255.568 60.1418L271.632 55.6503L273.183 61.1976L257.119 65.6891L259.866 75.5123L251.468 77.8604L244.23 51.9733ZM303.456 53.2317C306.464 50.7707 307.499 47.4909 306.433 43.6772C304.86 38.0529 299.609 35.9077 292.366 37.9327L273.298 43.2643L280.837 70.2301L290.352 67.5697L287.94 58.9406L294.527 57.0988L302.294 64.2307L312.58 61.3548L303.456 53.2317ZM294.657 56.5226L287.26 58.5906L289.662 67.1812L281.226 69.54L273.988 43.6528L292.517 38.472C299.528 36.5117 304.396 38.4733 305.893 43.8279C306.938 47.5646 305.888 50.6411 302.847 52.9865L302.571 53.1883L311.428 61.0956L302.413 63.616L294.657 56.5226ZM294.503 50.6261C297.624 49.7537 297.772 47.76 297.341 46.2191C296.803 44.293 295.262 43.6854 292.758 44.3855L283.975 46.8412L285.72 53.0819L294.503 50.6261ZM284.665 47.2298L292.909 44.9248C295.105 44.3108 296.361 44.7905 296.802 46.3699C297.33 48.2575 296.548 49.4729 294.353 50.0868L286.109 52.3918L284.665 47.2298ZM324.618 36.3913L323.358 47.3347L331.949 44.9328L325.196 36.2297L324.618 36.3913ZM324.016 46.5692L325.12 36.9985L331.027 44.6089L324.016 46.5692ZM328.303 27.8846L317.633 30.8682L312.691 61.3238L322.63 58.5449L323.134 53.9598L335.577 50.4808L338.386 54.1395L348.324 51.3606L328.303 27.8846ZM335.773 49.8445L322.636 53.5174L322.132 58.1025L313.388 60.5475L318.13 31.3106L328.146 28.5101L347.326 51.0583L338.62 53.4925L335.773 49.8445ZM357.863 26.7635L367.841 23.9738L365.988 17.3479L336.518 25.5877L338.371 32.2136L348.348 29.4239L354.035 49.7638L363.55 47.1034L357.863 26.7635ZM348.737 28.7338L338.759 31.5235L337.208 25.9762L365.6 18.038L367.151 23.5853L357.173 26.375L362.86 46.7149L354.424 49.0737L348.737 28.7338ZM394.198 28.2338L401.811 7.33186L391.217 10.2939L387.467 22.432L377.927 14.0099L367.333 16.9719L384.721 30.8835L387.393 40.4371L396.869 37.7874L394.198 28.2338ZM385.207 30.5401L368.563 17.2096L377.808 14.6246L387.747 23.4336L391.676 10.747L400.921 8.16199L393.605 28.192L396.179 37.3989L387.781 39.747L385.207 30.5401Z" fill="black" fill-opacity="0.5"/>
<path d="M-79.263 160.324L-63.1991 155.832L-65.0517 149.206L-81.1156 153.698L-82.2034 149.807L-65.0609 145.014L-66.9135 138.388L-93.5326 145.831L-85.9929 172.797L-76.5164 170.147L-79.263 160.324ZM-92.8425 146.219L-67.302 139.078L-65.751 144.625L-82.8935 149.419L-81.5041 154.388L-65.4402 149.896L-63.8892 155.444L-79.9531 159.935L-77.2065 169.758L-85.6044 172.106L-92.8425 146.219ZM-33.6166 147.478C-30.6082 145.017 -29.5731 141.737 -30.6395 137.923C-32.212 132.299 -37.4636 130.154 -44.7059 132.179L-63.7745 137.51L-56.2348 164.476L-46.7198 161.816L-49.1325 153.187L-42.5451 151.345L-34.7778 158.477L-24.4923 155.601L-33.6166 147.478ZM-42.4155 150.769L-49.8118 152.837L-47.4099 161.427L-55.8463 163.786L-63.0844 137.899L-44.5551 132.718C-37.544 130.758 -32.6759 132.719 -31.1788 138.074C-30.134 141.811 -31.1844 144.887 -34.2251 147.233L-34.501 147.434L-25.6446 155.342L-34.6589 157.862L-42.4155 150.769ZM-42.5689 144.872C-39.4486 144 -39.2999 142.006 -39.7308 140.465C-40.2693 138.539 -41.8098 137.931 -44.3138 138.632L-53.097 141.087L-51.3521 147.328L-42.5689 144.872ZM-52.4068 141.476L-44.163 139.171C-41.9672 138.557 -40.7117 139.037 -40.2701 140.616C-39.7423 142.504 -40.5239 143.719 -42.7197 144.333L-50.9635 146.638L-52.4068 141.476ZM-12.4544 130.637L-13.7141 141.581L-5.12358 139.179L-11.8765 130.476L-12.4544 130.637ZM-13.0559 140.815L-11.9523 131.245L-6.04482 138.855L-13.0559 140.815ZM-8.76884 122.131L-19.4396 125.114L-24.3812 155.57L-14.4424 152.791L-13.9384 148.206L-1.49564 144.727L1.31332 148.386L11.2521 145.607L-8.76884 122.131ZM-1.29973 144.091L-14.4359 147.764L-14.9399 152.349L-23.6845 154.794L-18.9421 125.557L-8.92623 122.756L10.2539 145.304L1.54776 147.739L-1.29973 144.091ZM20.7911 121.01L30.7684 118.22L28.9158 111.594L-0.553913 119.834L1.29869 126.46L11.276 123.67L16.9631 144.01L26.4782 141.349L20.7911 121.01ZM11.6646 122.98L1.68722 125.77L0.136196 120.222L28.5273 112.284L30.0783 117.831L20.101 120.621L25.7881 140.961L17.3516 143.32L11.6646 122.98ZM57.1257 122.48L64.7385 101.578L54.1448 104.54L50.3948 116.678L40.8545 108.256L30.2608 111.218L47.6491 125.13L50.3203 134.683L59.7969 132.034L57.1257 122.48ZM48.1346 124.786L31.4902 111.456L40.7356 108.871L50.6748 117.68L54.6038 104.993L63.8492 102.408L56.5325 122.438L59.1068 131.645L50.7088 133.993L48.1346 124.786Z" fill="black" fill-opacity="0.5"/>
<path d="M100.313 152.686L116.377 148.195L114.525 141.569L98.4608 146.061L97.373 142.17L114.515 137.377L112.663 130.751L86.0438 138.194L93.5835 165.159L103.06 162.51L100.313 152.686ZM86.7339 138.582L112.274 131.441L113.825 136.988L96.6828 141.781L98.0723 146.751L114.136 142.259L115.687 147.806L99.6233 152.298L102.37 162.121L93.972 164.469L86.7339 138.582ZM145.96 139.841C148.968 137.38 150.003 134.1 148.937 130.286C147.364 124.662 142.113 122.517 134.871 124.542L115.802 129.873L123.342 156.839L132.857 154.179L130.444 145.55L137.031 143.708L144.799 150.84L155.084 147.964L145.96 139.841ZM137.161 143.131L129.765 145.2L132.167 153.79L123.73 156.149L116.492 130.262L135.021 125.081C142.032 123.121 146.9 125.082 148.398 130.437C149.442 134.174 148.392 137.25 145.351 139.595L145.075 139.797L153.932 147.704L144.917 150.225L137.161 143.131ZM137.007 137.235C140.128 136.363 140.276 134.369 139.846 132.828C139.307 130.902 137.767 130.294 135.263 130.994L126.479 133.45L128.224 139.691L137.007 137.235ZM127.17 133.839L135.413 131.534C137.609 130.92 138.865 131.399 139.306 132.979C139.834 134.866 139.052 136.082 136.857 136.696L128.613 139.001L127.17 133.839ZM167.122 123L165.862 133.944L174.453 131.542L167.7 122.839L167.122 123ZM166.52 133.178L167.624 123.607L173.532 131.218L166.52 133.178ZM170.808 114.494L160.137 117.477L155.195 147.933L165.134 145.154L165.638 140.569L178.081 137.09L180.89 140.748L190.829 137.97L170.808 114.494ZM178.277 136.453L165.14 140.126L164.636 144.711L155.892 147.156L160.634 117.919L170.65 115.119L189.83 137.667L181.124 140.101L178.277 136.453ZM200.367 113.372L210.345 110.583L208.492 103.957L179.022 112.197L180.875 118.822L190.852 116.033L196.539 136.373L206.055 133.712L200.367 113.372ZM191.241 115.343L181.264 118.132L179.713 112.585L208.104 104.647L209.655 110.194L199.677 112.984L205.364 133.324L196.928 135.683L191.241 115.343ZM236.702 114.843L244.315 93.9407L233.721 96.9028L229.971 109.041L220.431 100.619L209.837 103.581L227.226 117.492L229.897 127.046L239.373 124.396L236.702 114.843ZM227.711 117.149L211.067 103.818L220.312 101.233L230.251 110.042L234.18 97.3559L243.426 94.7709L236.109 114.801L238.683 124.008L230.285 126.356L227.711 117.149Z" fill="black" fill-opacity="0.5"/>
<path d="M268.85 105.563L284.913 101.072L283.061 94.4461L266.997 98.9376L265.909 95.0468L283.052 90.2537L281.199 83.6278L254.58 91.0706L262.12 118.036L271.596 115.387L268.85 105.563ZM255.27 91.4591L280.81 84.3179L282.361 89.8652L265.219 94.6583L266.608 99.6277L282.672 95.1362L284.223 100.683L268.159 105.175L270.906 114.998L262.508 117.346L255.27 91.4591ZM314.496 92.7176C317.504 90.2566 318.539 86.9767 317.473 83.163C315.9 77.5387 310.649 75.3936 303.407 77.4185L284.338 82.7502L291.878 109.716L301.393 107.056L298.98 98.4265L305.567 96.5846L313.335 103.717L323.62 100.841L314.496 92.7176ZM305.697 96.0084L298.301 98.0765L300.703 106.667L292.266 109.026L285.028 83.1387L303.557 77.9578C310.569 75.9975 315.437 77.9592 316.934 83.3138C317.978 87.0505 316.928 90.1269 313.887 92.4724L313.611 92.6741L322.468 100.581L313.454 103.102L305.697 96.0084ZM305.544 90.112C308.664 89.2395 308.813 87.2458 308.382 85.7049C307.843 83.7788 306.303 83.1712 303.799 83.8713L295.016 86.3271L296.76 92.5677L305.544 90.112ZM295.706 86.7156L303.949 84.4106C306.145 83.7967 307.401 84.2763 307.842 85.8557C308.37 87.7433 307.589 88.9587 305.393 89.5726L297.149 91.8776L295.706 86.7156ZM335.658 75.8771L334.398 86.8205L342.989 84.4186L336.236 75.7155L335.658 75.8771ZM335.057 86.055L336.16 76.4843L342.068 84.0947L335.057 86.055ZM339.344 67.3705L328.673 70.354L323.731 100.81L333.67 98.0307L334.174 93.4456L346.617 89.9666L349.426 93.6254L359.365 90.8465L339.344 67.3705ZM346.813 89.3304L333.677 93.0033L333.173 97.5883L324.428 100.033L329.17 70.7964L339.186 67.996L358.366 90.5441L349.66 92.9783L346.813 89.3304ZM368.904 66.2493L378.881 63.4597L377.028 56.8338L347.559 65.0736L349.411 71.6994L359.389 68.9098L365.076 89.2497L374.591 86.5892L368.904 66.2493ZM359.777 68.2197L349.8 71.0093L348.249 65.4621L376.64 57.5239L378.191 63.0711L368.213 65.8608L373.901 86.2007L365.464 88.5596L359.777 68.2197ZM405.238 67.7197L412.851 46.8177L402.257 49.7797L398.507 61.9178L388.967 53.4957L378.373 56.4577L395.762 70.3693L398.433 79.9229L407.909 77.2733L405.238 67.7197ZM396.247 70.0259L379.603 56.6954L388.848 54.1104L398.787 62.9194L402.716 50.2329L411.962 47.6478L404.645 67.6779L407.219 76.8847L398.821 79.2328L396.247 70.0259Z" fill="black" fill-opacity="0.5"/>
<path d="M-68.2227 199.81L-52.1588 195.318L-54.0114 188.692L-70.0753 193.184L-71.1632 189.293L-54.0206 184.5L-55.8733 177.874L-82.4923 185.317L-74.9526 212.282L-65.4761 209.633L-68.2227 199.81ZM-81.8022 185.705L-56.2618 178.564L-54.7108 184.111L-71.8533 188.904L-70.4638 193.874L-54.3999 189.382L-52.8489 194.93L-68.9128 199.421L-66.1662 209.244L-74.5641 211.592L-81.8022 185.705ZM-22.5764 186.964C-19.5679 184.503 -18.5329 181.223 -19.5992 177.409C-21.1718 171.785 -26.4234 169.64 -33.6656 171.665L-52.7343 176.996L-45.1946 203.962L-35.6795 201.302L-38.0922 192.673L-31.5049 190.831L-23.7375 197.963L-13.452 195.087L-22.5764 186.964ZM-31.3752 190.255L-38.7716 192.323L-36.3696 200.913L-44.8061 203.272L-52.0442 177.385L-33.5148 172.204C-26.5037 170.244 -21.6357 172.205 -20.1385 177.56C-19.0937 181.297 -20.1441 184.373 -23.1849 186.718L-23.4607 186.92L-14.6044 194.827L-23.6187 197.348L-31.3752 190.255ZM-31.5287 184.358C-28.4083 183.486 -28.2597 181.492 -28.6905 179.951C-29.2291 178.025 -30.7696 177.417 -33.2736 178.117L-42.0567 180.573L-40.3118 186.814L-31.5287 184.358ZM-41.3666 180.962L-33.1228 178.657C-30.927 178.043 -29.6715 178.522 -29.2298 180.102C-28.7021 181.989 -29.4837 183.205 -31.6795 183.819L-39.9233 186.124L-41.3666 180.962ZM-1.41411 170.123L-2.67385 181.067L5.91667 178.665L-0.836269 169.962L-1.41411 170.123ZM-2.01567 180.301L-0.912049 170.73L4.99543 178.341L-2.01567 180.301ZM2.27141 161.617L-8.39934 164.6L-13.341 195.056L-3.40214 192.277L-2.89817 187.692L9.54461 184.213L12.3536 187.871L22.2924 185.093L2.27141 161.617ZM9.74052 183.576L-3.39566 187.249L-3.89964 191.834L-12.6443 194.279L-7.90184 165.043L2.11402 162.242L21.2941 184.79L12.588 187.224L9.74052 183.576ZM31.8314 160.495L41.8087 157.706L39.9561 151.08L10.4863 159.32L12.3389 165.946L22.3163 163.156L28.0034 183.496L37.5184 180.835L31.8314 160.495ZM22.7048 162.466L12.7275 165.255L11.1764 159.708L39.5676 151.77L41.1186 157.317L31.1412 160.107L36.8283 180.447L28.3919 182.806L22.7048 162.466ZM68.1659 161.966L75.7787 141.064L65.185 144.026L61.435 156.164L51.8948 147.742L41.3011 150.704L58.6894 164.615L61.3606 174.169L70.8371 171.519L68.1659 161.966ZM59.1748 164.272L42.5305 150.942L51.7759 148.357L61.7151 157.166L65.644 144.479L74.8894 141.894L67.5727 161.924L70.147 171.131L61.7491 173.479L59.1748 164.272Z" fill="black" fill-opacity="0.5"/>
<path d="M111.354 192.172L127.418 187.68L125.565 181.054L109.501 185.546L108.413 181.655L125.556 176.862L123.703 170.236L97.0841 177.679L104.624 204.645L114.1 201.995L111.354 192.172ZM97.7742 178.067L123.315 170.926L124.866 176.474L107.723 181.267L109.113 186.236L125.176 181.745L126.727 187.292L110.664 191.783L113.41 201.607L105.012 203.955L97.7742 178.067ZM157 179.326C160.008 176.865 161.044 173.585 159.977 169.771C158.405 164.147 153.153 162.002 145.911 164.027L126.842 169.359L134.382 196.324L143.897 193.664L141.484 185.035L148.072 183.193L155.839 190.325L166.124 187.449L157 179.326ZM148.201 182.617L140.805 184.685L143.207 193.275L134.77 195.634L127.532 169.747L146.062 164.566C153.073 162.606 157.941 164.568 159.438 169.922C160.483 173.659 159.432 176.735 156.392 179.081L156.116 179.283L164.972 187.19L155.958 189.71L148.201 182.617ZM148.048 176.72C151.168 175.848 151.317 173.854 150.886 172.313C150.347 170.387 148.807 169.78 146.303 170.48L137.52 172.935L139.265 179.176L148.048 176.72ZM138.21 173.324L146.454 171.019C148.649 170.405 149.905 170.885 150.347 172.464C150.874 174.352 150.093 175.567 147.897 176.181L139.653 178.486L138.21 173.324ZM178.162 162.485L176.903 173.429L185.493 171.027L178.74 162.324L178.162 162.485ZM177.561 172.663L178.664 163.093L184.572 170.703L177.561 172.663ZM181.848 153.979L171.177 156.962L166.235 187.418L176.174 184.639L176.678 180.054L189.121 176.575L191.93 180.234L201.869 177.455L181.848 153.979ZM189.317 175.939L176.181 179.612L175.677 184.197L166.932 186.642L171.675 157.405L181.69 154.604L200.87 177.153L192.164 179.587L189.317 175.939ZM211.408 152.858L221.385 150.068L219.532 143.442L190.063 151.682L191.915 158.308L201.893 155.518L207.58 175.858L217.095 173.198L211.408 152.858ZM202.281 154.828L192.304 157.618L190.753 152.07L219.144 144.132L220.695 149.68L210.718 152.469L216.405 172.809L207.968 175.168L202.281 154.828ZM247.742 154.328L255.355 133.426L244.761 136.388L241.011 148.526L231.471 140.104L220.877 143.066L238.266 156.978L240.937 166.531L250.413 163.882L247.742 154.328ZM238.751 156.634L222.107 143.304L231.352 140.719L241.291 149.528L245.22 136.841L254.466 134.256L247.149 154.286L249.723 163.493L241.325 165.841L238.751 156.634Z" fill="black" fill-opacity="0.5"/>
<path d="M279.89 145.049L295.954 140.557L294.101 133.931L278.037 138.423L276.949 134.532L294.092 129.739L292.239 123.113L265.62 130.556L273.16 157.522L282.636 154.872L279.89 145.049ZM266.31 130.944L291.851 123.803L293.402 129.351L276.259 134.144L277.649 139.113L293.713 134.622L295.264 140.169L279.2 144.66L281.946 154.484L273.548 156.832L266.31 130.944ZM325.536 132.203C328.545 129.742 329.58 126.462 328.513 122.648C326.941 117.024 321.689 114.879 314.447 116.904L295.378 122.236L302.918 149.201L312.433 146.541L310.02 137.912L316.608 136.07L324.375 143.202L334.661 140.326L325.536 132.203ZM316.737 135.494L309.341 137.562L311.743 146.152L303.306 148.511L296.068 122.624L314.598 117.443C321.609 115.483 326.477 117.445 327.974 122.799C329.019 126.536 327.968 129.612 324.928 131.958L324.652 132.159L333.508 140.067L324.494 142.587L316.737 135.494ZM316.584 129.597C319.704 128.725 319.853 126.731 319.422 125.19C318.883 123.264 317.343 122.657 314.839 123.357L306.056 125.812L307.801 132.053L316.584 129.597ZM306.746 126.201L314.99 123.896C317.186 123.282 318.441 123.762 318.883 125.341C319.41 127.229 318.629 128.444 316.433 129.058L308.189 131.363L306.746 126.201ZM346.698 115.362L345.439 126.306L354.029 123.904L347.276 115.201L346.698 115.362ZM346.097 125.54L347.2 115.97L353.108 123.58L346.097 125.54ZM350.384 106.856L339.713 109.839L334.772 140.295L344.71 137.516L345.214 132.931L357.657 129.452L360.466 133.111L370.405 130.332L350.384 106.856ZM357.853 128.816L344.717 132.489L344.213 137.074L335.468 139.519L340.211 110.282L350.227 107.481L369.407 130.029L360.701 132.464L357.853 128.816ZM379.944 105.735L389.921 102.945L388.069 96.3191L358.599 104.559L360.451 111.185L370.429 108.395L376.116 128.735L385.631 126.075L379.944 105.735ZM370.817 107.705L360.84 110.495L359.289 104.947L387.68 97.0092L389.231 102.556L379.254 105.346L384.941 125.686L376.504 128.045L370.817 107.705ZM416.278 107.205L423.891 86.303L413.298 89.2651L409.548 101.403L400.007 92.981L389.414 95.9431L406.802 109.855L409.473 119.408L418.95 116.759L416.278 107.205ZM407.287 109.511L390.643 96.1808L399.888 93.5958L409.828 102.405L413.757 89.7182L423.002 87.1332L415.685 107.163L418.26 116.37L409.862 118.718L407.287 109.511Z" fill="black" fill-opacity="0.5"/>
<path d="M-57.1824 239.295L-41.1185 234.803L-42.9712 228.178L-59.0351 232.669L-60.1229 228.778L-42.9804 223.985L-44.833 217.359L-71.4521 224.802L-63.9124 251.768L-54.4358 249.118L-57.1824 239.295ZM-70.762 225.191L-45.2215 218.049L-43.6705 223.597L-60.813 228.39L-59.4236 233.359L-43.3597 228.868L-41.8087 234.415L-57.8726 238.906L-55.126 248.73L-63.5239 251.078L-70.762 225.191ZM-11.5361 226.449C-8.52768 223.988 -7.49263 220.708 -8.55896 216.894C-10.1315 211.27 -15.3831 209.125 -22.6254 211.15L-41.694 216.482L-34.1543 243.447L-24.6393 240.787L-27.052 232.158L-20.4646 230.316L-12.6973 237.448L-2.41176 234.572L-11.5361 226.449ZM-20.335 229.74L-27.7313 231.808L-25.3294 240.398L-33.7658 242.757L-41.0039 216.87L-22.4746 211.689C-15.4635 209.729 -10.5954 211.691 -9.09827 217.045C-8.05349 220.782 -9.10387 223.858 -12.1446 226.204L-12.4205 226.406L-3.56414 234.313L-12.5784 236.833L-20.335 229.74ZM-20.4884 223.843C-17.3681 222.971 -17.2194 220.977 -17.6503 219.436C-18.1888 217.51 -19.7293 216.903 -22.2333 217.603L-31.0164 220.059L-29.2716 226.299L-20.4884 223.843ZM-30.3263 220.447L-22.0825 218.142C-19.8867 217.528 -18.6312 218.008 -18.1896 219.587C-17.6618 221.475 -18.4434 222.69 -20.6392 223.304L-28.883 225.609L-30.3263 220.447ZM9.62614 209.609L8.3664 220.552L16.9569 218.15L10.204 209.447L9.62614 209.609ZM9.02458 219.786L10.1282 210.216L16.0357 217.826L9.02458 219.786ZM13.3117 201.102L2.64092 204.085L-2.30071 234.541L7.63811 231.762L8.14209 227.177L20.5849 223.698L23.3938 227.357L33.3326 224.578L13.3117 201.102ZM20.7808 223.062L7.64459 226.735L7.14061 231.32L-1.604 233.765L3.13841 204.528L13.1543 201.727L32.3344 224.276L23.6283 226.71L20.7808 223.062ZM42.8716 199.981L52.8489 197.191L50.9963 190.565L21.5266 198.805L23.3792 205.431L33.3565 202.641L39.0436 222.981L48.5587 220.321L42.8716 199.981ZM33.7451 201.951L23.7677 204.741L22.2167 199.194L50.6078 191.255L52.1588 196.803L42.1815 199.592L47.8686 219.932L39.4321 222.291L33.7451 201.951ZM79.2062 201.451L86.819 180.549L76.2253 183.511L72.4753 195.649L62.935 187.227L52.3413 190.189L69.7296 204.101L72.4008 213.654L81.8774 211.005L79.2062 201.451ZM70.2151 203.757L53.5707 190.427L62.8162 187.842L72.7553 196.651L76.6843 183.964L85.9297 181.379L78.613 201.409L81.1873 210.616L72.7893 212.964L70.2151 203.757Z" fill="black" fill-opacity="0.5"/>
<path d="M122.394 231.658L138.458 227.166L136.605 220.54L120.541 225.032L119.453 221.141L136.596 216.348L134.743 209.722L108.124 217.165L115.664 244.131L125.141 241.481L122.394 231.658ZM108.814 217.553L134.355 210.412L135.906 215.959L118.763 220.753L120.153 225.722L136.217 221.23L137.768 226.778L121.704 231.269L124.45 241.092L116.052 243.44L108.814 217.553ZM168.04 218.812C171.049 216.351 172.084 213.071 171.017 209.257C169.445 203.633 164.193 201.488 156.951 203.513L137.882 208.844L145.422 235.81L154.937 233.15L152.524 224.521L159.112 222.679L166.879 229.811L177.165 226.935L168.04 218.812ZM159.241 222.103L151.845 224.171L154.247 232.761L145.811 235.12L138.572 209.233L157.102 204.052C164.113 202.092 168.981 204.053 170.478 209.408C171.523 213.145 170.472 216.221 167.432 218.567L167.156 218.768L176.012 226.676L166.998 229.196L159.241 222.103ZM159.088 216.206C162.208 215.334 162.357 213.34 161.926 211.799C161.388 209.873 159.847 209.265 157.343 209.966L148.56 212.421L150.305 218.662L159.088 216.206ZM149.25 212.81L157.494 210.505C159.69 209.891 160.945 210.371 161.387 211.95C161.915 213.838 161.133 215.053 158.937 215.667L150.693 217.972L149.25 212.81ZM189.202 201.971L187.943 212.915L196.533 210.513L189.78 201.81L189.202 201.971ZM188.601 212.149L189.705 202.579L195.612 210.189L188.601 212.149ZM192.888 193.465L182.217 196.448L177.276 226.904L187.214 224.125L187.718 219.54L200.161 216.061L202.97 219.72L212.909 216.941L192.888 193.465ZM200.357 215.425L187.221 219.097L186.717 223.683L177.972 226.128L182.715 196.891L192.731 194.09L211.911 216.638L203.205 219.073L200.357 215.425ZM222.448 192.344L232.425 189.554L230.573 182.928L201.103 191.168L202.956 197.794L212.933 195.004L218.62 215.344L228.135 212.683L222.448 192.344ZM213.321 194.314L203.344 197.104L201.793 191.556L230.184 183.618L231.735 189.165L221.758 191.955L227.445 212.295L219.008 214.654L213.321 194.314ZM258.783 193.814L266.395 172.912L255.802 175.874L252.052 188.012L242.511 179.59L231.918 182.552L249.306 196.464L251.977 206.017L261.454 203.368L258.783 193.814ZM249.791 196.12L233.147 182.79L242.393 180.205L252.332 189.014L256.261 176.327L265.506 173.742L258.189 193.772L260.764 202.979L252.366 205.327L249.791 196.12Z" fill="black" fill-opacity="0.5"/>
<path d="M290.93 184.535L306.994 180.043L305.141 173.417L289.077 177.909L287.99 174.018L305.132 169.225L303.279 162.599L276.66 170.042L284.2 197.008L293.677 194.358L290.93 184.535ZM277.351 170.43L302.891 163.289L304.442 168.836L287.299 173.629L288.689 178.599L304.753 174.107L306.304 179.655L290.24 184.146L292.987 193.969L284.589 196.317L277.351 170.43ZM336.576 171.689C339.585 169.228 340.62 165.948 339.554 162.134C337.981 156.51 332.729 154.365 325.487 156.39L306.418 161.721L313.958 188.687L323.473 186.027L321.061 177.398L327.648 175.556L335.415 182.688L345.701 179.812L336.576 171.689ZM327.778 174.98L320.381 177.048L322.783 185.638L314.347 187.997L307.109 162.11L325.638 156.929C332.649 154.969 337.517 156.93 339.014 162.285C340.059 166.022 339.009 169.098 335.968 171.444L335.692 171.645L344.548 179.553L335.534 182.073L327.778 174.98ZM327.624 169.083C330.744 168.211 330.893 166.217 330.462 164.676C329.924 162.75 328.383 162.142 325.879 162.842L317.096 165.298L318.841 171.539L327.624 169.083ZM317.786 165.687L326.03 163.382C328.226 162.768 329.481 163.248 329.923 164.827C330.451 166.715 329.669 167.93 327.473 168.544L319.229 170.849L317.786 165.687ZM357.739 154.848L356.479 165.792L365.069 163.39L358.316 154.687L357.739 154.848ZM357.137 165.026L358.241 155.456L364.148 163.066L357.137 165.026ZM361.424 146.342L350.753 149.325L345.812 179.781L355.751 177.002L356.255 172.417L368.697 168.938L371.506 172.597L381.445 169.818L361.424 146.342ZM368.893 168.302L355.757 171.974L355.253 176.56L346.508 179.005L351.251 149.768L361.267 146.967L380.447 169.515L371.741 171.95L368.893 168.302ZM390.984 145.221L400.961 142.431L399.109 135.805L369.639 144.045L371.492 150.671L381.469 147.881L387.156 168.221L396.671 165.56L390.984 145.221ZM381.858 147.191L371.88 149.981L370.329 144.433L398.72 136.495L400.271 142.042L390.294 144.832L395.981 165.172L387.545 167.531L381.858 147.191ZM427.319 146.691L434.931 125.789L424.338 128.751L420.588 140.889L411.048 132.467L400.454 135.429L417.842 149.341L420.513 158.894L429.99 156.244L427.319 146.691ZM418.328 148.997L401.683 135.667L410.929 133.082L420.868 141.891L424.797 129.204L434.042 126.619L426.725 146.649L429.3 155.856L420.902 158.204L418.328 148.997Z" fill="black" fill-opacity="0.5"/>
<path d="M-46.1422 278.781L-30.0783 274.289L-31.9309 267.663L-47.9948 272.155L-49.0827 268.264L-31.9402 263.471L-33.7928 256.845L-60.4119 264.288L-52.8722 291.254L-43.3956 288.604L-46.1422 278.781ZM-59.7217 264.676L-34.1813 257.535L-32.6303 263.082L-49.7728 267.876L-48.3834 272.845L-32.3195 268.353L-30.7684 273.901L-46.8323 278.392L-44.0857 288.215L-52.4837 290.564L-59.7217 264.676ZM-0.495895 265.935C2.51254 263.474 3.54759 260.194 2.48127 256.38C0.908703 250.756 -4.3429 248.611 -11.5851 250.636L-30.6538 255.967L-23.1141 282.933L-13.599 280.273L-16.0117 271.644L-9.42439 269.802L-1.65705 276.934L8.62846 274.058L-0.495895 265.935ZM-9.29475 269.226L-16.6911 271.294L-14.2892 279.884L-22.7256 282.243L-29.9637 256.356L-11.4343 251.175C-4.42324 249.215 0.444785 251.176 1.94195 256.531C2.98673 260.268 1.93635 263.344 -1.1044 265.69L-1.38027 265.891L7.47608 273.799L-1.53819 276.319L-9.29475 269.226ZM-9.44819 263.329C-6.32786 262.457 -6.17922 260.463 -6.61005 258.922C-7.1486 256.996 -8.68912 256.388 -11.1931 257.089L-19.9762 259.544L-18.2313 265.785L-9.44819 263.329ZM-19.2861 259.933L-11.0423 257.628C-8.84651 257.014 -7.59098 257.494 -7.14937 259.073C-6.62159 260.961 -7.4032 262.176 -9.59898 262.79L-17.8428 265.095L-19.2861 259.933ZM20.6664 249.094L19.4066 260.038L27.9971 257.636L21.2442 248.933L20.6664 249.094ZM20.0648 259.272L21.1684 249.702L27.0759 257.312L20.0648 259.272ZM24.3519 240.588L13.6811 243.571L8.73952 274.027L18.6783 271.248L19.1823 266.663L31.6251 263.184L34.4341 266.843L44.3729 264.064L24.3519 240.588ZM31.821 262.548L18.6848 266.221L18.1808 270.806L9.43622 273.251L14.1786 244.014L24.1945 241.213L43.3746 263.761L34.6685 266.196L31.821 262.548ZM53.9118 239.467L63.8892 236.677L62.0366 230.051L32.5668 238.291L34.4194 244.917L44.3968 242.127L50.0838 262.467L59.5989 259.807L53.9118 239.467ZM44.7853 241.437L34.8079 244.227L33.2569 238.679L61.648 230.741L63.1991 236.288L53.2217 239.078L58.9088 259.418L50.4724 261.777L44.7853 241.437ZM90.2464 240.937L97.8592 220.035L87.2655 222.997L83.5155 235.135L73.9752 226.713L63.3815 229.675L80.7698 243.587L83.441 253.14L92.9176 250.491L90.2464 240.937ZM81.2553 243.243L64.611 229.913L73.8564 227.328L83.7955 236.137L87.7245 223.45L96.9699 220.865L89.6532 240.895L92.2275 250.102L83.8296 252.45L81.2553 243.243Z" fill="black" fill-opacity="0.5"/>
<path d="M133.434 271.143L149.498 266.652L147.645 260.026L131.582 264.517L130.494 260.626L147.636 255.833L145.784 249.207L119.165 256.65L126.704 283.616L136.181 280.966L133.434 271.143ZM119.855 257.039L145.395 249.898L146.946 255.445L129.804 260.238L131.193 265.207L147.257 260.716L148.808 266.263L132.744 270.755L135.491 280.578L127.093 282.926L119.855 257.039ZM179.08 258.297C182.089 255.836 183.124 252.556 182.058 248.743C180.485 243.118 175.233 240.973 167.991 242.998L148.923 248.33L156.462 275.296L165.977 272.635L163.565 264.006L170.152 262.164L177.919 269.296L188.205 266.42L179.08 258.297ZM170.282 261.588L162.885 263.656L165.287 272.247L156.851 274.605L149.613 248.718L168.142 243.537C175.153 241.577 180.021 243.539 181.518 248.893C182.563 252.63 181.513 255.707 178.472 258.052L178.196 258.254L187.052 266.161L178.038 268.681L170.282 261.588ZM170.128 255.692C173.249 254.819 173.397 252.825 172.966 251.285C172.428 249.358 170.887 248.751 168.383 249.451L159.6 251.907L161.345 258.147L170.128 255.692ZM160.29 252.295L168.534 249.99C170.73 249.376 171.985 249.856 172.427 251.435C172.955 253.323 172.173 254.538 169.977 255.152L161.734 257.457L160.29 252.295ZM200.243 241.457L198.983 252.4L207.574 249.998L200.821 241.295L200.243 241.457ZM199.641 251.635L200.745 242.064L206.652 249.674L199.641 251.635ZM203.928 232.95L193.258 235.934L188.316 266.389L198.255 263.61L198.759 259.025L211.201 255.546L214.01 259.205L223.949 256.426L203.928 232.95ZM211.397 254.91L198.261 258.583L197.757 263.168L189.013 265.613L193.755 236.376L203.771 233.576L222.951 256.124L214.245 258.558L211.397 254.91ZM233.488 231.829L243.466 229.039L241.613 222.413L212.143 230.653L213.996 237.279L223.973 234.489L229.66 254.829L239.175 252.169L233.488 231.829ZM224.362 233.799L214.384 236.589L212.833 231.042L241.224 223.103L242.775 228.651L232.798 231.44L238.485 251.78L230.049 254.139L224.362 233.799ZM269.823 233.299L277.436 212.397L266.842 215.359L263.092 227.497L253.552 219.075L242.958 222.037L260.346 235.949L263.017 245.503L272.494 242.853L269.823 233.299ZM260.832 235.606L244.187 222.275L253.433 219.69L263.372 228.499L267.301 215.812L276.546 213.227L269.23 233.257L271.804 242.464L263.406 244.812L260.832 235.606Z" fill="black" fill-opacity="0.5"/>
<path d="M301.97 224.02L318.034 219.528L316.182 212.903L300.118 217.394L299.03 213.503L316.172 208.71L314.32 202.084L287.701 209.527L295.24 236.493L304.717 233.843L301.97 224.02ZM288.391 209.916L313.931 202.774L315.482 208.322L298.34 213.115L299.729 218.084L315.793 213.593L317.344 219.14L301.28 223.631L304.027 233.455L295.629 235.803L288.391 209.916ZM347.617 211.174C350.625 208.713 351.66 205.433 350.594 201.62C349.021 195.995 343.77 193.85 336.527 195.875L317.459 201.207L324.998 228.172L334.513 225.512L332.101 216.883L338.688 215.041L346.455 222.173L356.741 219.297L347.617 211.174ZM338.818 214.465L331.421 216.533L333.823 225.124L325.387 227.482L318.149 201.595L336.678 196.414C343.689 194.454 348.557 196.416 350.054 201.77C351.099 205.507 350.049 208.583 347.008 210.929L346.732 211.131L355.589 219.038L346.574 221.558L338.818 214.465ZM338.664 208.569C341.785 207.696 341.933 205.702 341.502 204.161C340.964 202.235 339.423 201.628 336.919 202.328L328.136 204.784L329.881 211.024L338.664 208.569ZM328.826 205.172L337.07 202.867C339.266 202.253 340.522 202.733 340.963 204.312C341.491 206.2 340.709 207.415 338.514 208.029L330.27 210.334L328.826 205.172ZM368.779 194.334L367.519 205.277L376.11 202.875L369.357 194.172L368.779 194.334ZM368.177 204.512L369.281 194.941L375.188 202.551L368.177 204.512ZM372.464 185.827L361.794 188.811L356.852 219.266L366.791 216.487L367.295 211.902L379.738 208.423L382.547 212.082L392.485 209.303L372.464 185.827ZM379.933 207.787L366.797 211.46L366.293 216.045L357.549 218.49L362.291 189.253L372.307 186.453L391.487 209.001L382.781 211.435L379.933 207.787ZM402.024 184.706L412.002 181.916L410.149 175.29L380.679 183.53L382.532 190.156L392.509 187.366L398.196 207.706L407.711 205.046L402.024 184.706ZM392.898 186.676L382.92 189.466L381.369 183.919L409.761 175.98L411.312 181.528L401.334 184.317L407.021 204.657L398.585 207.016L392.898 186.676ZM438.359 186.176L445.972 165.274L435.378 168.236L431.628 180.374L422.088 171.952L411.494 174.914L428.882 188.826L431.554 198.379L441.03 195.73L438.359 186.176ZM429.368 188.482L412.723 175.152L421.969 172.567L431.908 181.376L435.837 168.689L445.082 166.104L437.766 186.134L440.34 195.341L431.942 197.689L429.368 188.482Z" fill="black" fill-opacity="0.5"/>
<path d="M-35.102 318.266L-19.0381 313.775L-20.8907 307.149L-36.9546 311.64L-38.0424 307.749L-20.8999 302.956L-22.7525 296.33L-49.3716 303.773L-41.8319 330.739L-32.3554 328.089L-35.102 318.266ZM-48.6815 304.162L-23.141 297.021L-21.59 302.568L-38.7326 307.361L-37.3431 312.33L-21.2792 307.839L-19.7282 313.386L-35.7921 317.878L-33.0455 327.701L-41.4434 330.049L-48.6815 304.162ZM10.5444 305.42C13.5528 302.959 14.5878 299.679 13.5215 295.866C11.949 290.241 6.69736 288.096 -0.544881 290.121L-19.6135 295.453L-12.0739 322.419L-2.55879 319.758L-4.97149 311.129L1.61587 309.287L9.3832 316.419L19.6687 313.543L10.5444 305.42ZM1.7455 308.711L-5.65083 310.779L-3.2489 319.37L-11.6853 321.728L-18.9234 295.841L-0.394088 290.66C6.61702 288.7 11.485 290.662 12.9822 296.016C14.027 299.753 12.9766 302.83 9.93585 305.175L9.65999 305.377L18.5163 313.284L9.50206 315.804L1.7455 308.711ZM1.59206 302.815C4.71239 301.942 4.86104 299.948 4.4302 298.408C3.89165 296.481 2.35113 295.874 -0.152834 296.574L-8.93597 299.03L-7.19108 305.27L1.59206 302.815ZM-8.24586 299.418L-0.0020394 297.113C2.19374 296.499 3.44927 296.979 3.89088 298.558C4.41866 300.446 3.63705 301.661 1.44127 302.275L-6.80255 304.58L-8.24586 299.418ZM31.7066 288.58L30.4469 299.523L39.0374 297.121L32.2845 288.418L31.7066 288.58ZM31.1051 298.758L32.2087 289.187L38.1162 296.797L31.1051 298.758ZM35.3921 280.073L24.7214 283.057L19.7798 313.512L29.7186 310.733L30.2226 306.148L42.6653 302.669L45.4743 306.328L55.4131 303.549L35.3921 280.073ZM42.8613 302.033L29.7251 305.706L29.2211 310.291L20.4765 312.736L25.2189 283.499L35.2347 280.699L54.4148 303.247L45.7087 305.681L42.8613 302.033ZM64.9521 278.952L74.9294 276.162L73.0768 269.536L43.6071 277.776L45.4597 284.402L55.437 281.612L61.1241 301.952L70.6392 299.292L64.9521 278.952ZM55.8255 280.922L45.8482 283.712L44.2972 278.165L72.6883 270.227L74.2393 275.774L64.262 278.563L69.949 298.903L61.5126 301.262L55.8255 280.922ZM101.287 280.422L108.899 259.52L98.3058 262.482L94.5557 274.62L85.0155 266.198L74.4218 269.16L91.8101 283.072L94.4813 292.626L103.958 289.976L101.287 280.422ZM92.2956 282.729L75.6512 269.398L84.8966 266.813L94.8358 275.622L98.7647 262.935L108.01 260.35L100.693 280.38L103.268 289.587L94.8698 291.935L92.2956 282.729Z" fill="black" fill-opacity="0.5"/>
<path d="M144.474 310.629L160.538 306.137L158.686 299.511L142.622 304.003L141.534 300.112L158.676 295.319L156.824 288.693L130.205 296.136L137.744 323.102L147.221 320.452L144.474 310.629ZM130.895 296.525L156.435 289.383L157.986 294.931L140.844 299.724L142.233 304.693L158.297 300.202L159.848 305.749L143.784 310.24L146.531 320.064L138.133 322.412L130.895 296.525ZM190.121 297.783C193.129 295.322 194.164 292.042 193.098 288.228C191.525 282.604 186.274 280.459 179.032 282.484L159.963 287.816L167.503 314.781L177.018 312.121L174.605 303.492L181.192 301.65L188.96 308.782L199.245 305.906L190.121 297.783ZM181.322 301.074L173.926 303.142L176.327 311.732L167.891 314.091L160.653 288.204L179.182 283.023C186.193 281.063 191.061 283.025 192.559 288.379C193.603 292.116 192.553 295.192 189.512 297.538L189.236 297.74L198.093 305.647L189.078 308.167L181.322 301.074ZM181.168 295.177C184.289 294.305 184.437 292.311 184.007 290.77C183.468 288.844 181.928 288.237 179.424 288.937L170.64 291.393L172.385 297.633L181.168 295.177ZM171.331 291.781L179.574 289.476C181.77 288.862 183.026 289.342 183.467 290.921C183.995 292.809 183.213 294.024 181.018 294.638L172.774 296.943L171.331 291.781ZM211.283 280.943L210.023 291.886L218.614 289.484L211.861 280.781L211.283 280.943ZM210.681 291.12L211.785 281.55L217.693 289.16L210.681 291.12ZM214.969 272.436L204.298 275.419L199.356 305.875L209.295 303.096L209.799 298.511L222.242 295.032L225.051 298.691L234.99 295.912L214.969 272.436ZM222.438 294.396L209.301 298.069L208.797 302.654L200.053 305.099L204.795 275.862L214.811 273.061L233.991 295.61L225.285 298.044L222.438 294.396ZM244.528 271.315L254.506 268.525L252.653 261.899L223.183 270.139L225.036 276.765L235.013 273.975L240.7 294.315L250.216 291.655L244.528 271.315ZM235.402 273.285L225.425 276.075L223.874 270.528L252.265 262.589L253.816 268.137L243.838 270.926L249.525 291.266L241.089 293.625L235.402 273.285ZM280.863 272.785L288.476 251.883L277.882 254.845L274.132 266.983L264.592 258.561L253.998 261.523L271.386 275.435L274.058 284.988L283.534 282.339L280.863 272.785ZM271.872 275.091L255.228 261.761L264.473 259.176L274.412 267.985L278.341 255.298L287.587 252.713L280.27 272.743L282.844 281.95L274.446 284.298L271.872 275.091Z" fill="black" fill-opacity="0.5"/>
<path d="M313.011 263.506L329.074 259.014L327.222 252.388L311.158 256.88L310.07 252.989L327.213 248.196L325.36 241.57L298.741 249.013L306.281 275.979L315.757 273.329L313.011 263.506ZM299.431 249.401L324.971 242.26L326.522 247.808L309.38 252.601L310.769 257.57L326.833 253.079L328.384 258.626L312.32 263.117L315.067 272.941L306.669 275.289L299.431 249.401ZM358.657 250.66C361.665 248.199 362.7 244.919 361.634 241.105C360.061 235.481 354.81 233.336 347.568 235.361L328.499 240.693L336.039 267.658L345.554 264.998L343.141 256.369L349.728 254.527L357.496 261.659L367.781 258.783L358.657 250.66ZM349.858 253.951L342.462 256.019L344.864 264.609L336.427 266.968L329.189 241.081L347.718 235.9C354.73 233.94 359.598 235.902 361.095 241.256C362.14 244.993 361.089 248.069 358.048 250.415L357.773 250.616L366.629 258.524L357.615 261.044L349.858 253.951ZM349.705 248.054C352.825 247.182 352.974 245.188 352.543 243.647C352.004 241.721 350.464 241.114 347.96 241.814L339.177 244.269L340.921 250.51L349.705 248.054ZM339.867 244.658L348.11 242.353C350.306 241.739 351.562 242.219 352.003 243.798C352.531 245.686 351.75 246.901 349.554 247.515L341.31 249.82L339.867 244.658ZM379.819 233.819L378.559 244.763L387.15 242.361L380.397 233.658L379.819 233.819ZM379.218 243.997L380.321 234.427L386.229 242.037L379.218 243.997ZM383.505 225.313L372.834 228.296L367.892 258.752L377.831 255.973L378.335 251.388L390.778 247.909L393.587 251.568L403.526 248.789L383.505 225.313ZM390.974 247.273L377.838 250.946L377.334 255.531L368.589 257.976L373.331 228.739L383.347 225.938L402.527 248.486L393.821 250.921L390.974 247.273ZM413.065 224.192L423.042 221.402L421.189 214.776L391.72 223.016L393.572 229.642L403.55 226.852L409.237 247.192L418.752 244.532L413.065 224.192ZM403.938 226.162L393.961 228.952L392.41 223.404L420.801 215.466L422.352 221.014L412.374 223.803L418.062 244.143L409.625 246.502L403.938 226.162ZM449.399 225.662L457.012 204.76L446.418 207.722L442.668 219.86L433.128 211.438L422.534 214.4L439.923 228.312L442.594 237.865L452.07 235.216L449.399 225.662ZM440.408 227.968L423.764 214.638L433.009 212.053L442.948 220.862L446.877 208.175L456.123 205.59L448.806 225.62L451.38 234.827L442.982 237.175L440.408 227.968Z" fill="black" fill-opacity="0.5"/>
<path d="M-24.0617 357.752L-7.99782 353.26L-9.85043 346.635L-25.9143 351.126L-27.0022 347.235L-9.85966 342.442L-11.7123 335.816L-38.3313 343.259L-30.7917 370.225L-21.3151 367.575L-24.0617 357.752ZM-37.6412 343.648L-12.1008 336.506L-10.5498 342.054L-27.6923 346.847L-26.3028 351.816L-10.2389 347.325L-8.68793 352.872L-24.7518 357.363L-22.0052 367.187L-30.4031 369.535L-37.6412 343.648ZM21.5846 344.906C24.593 342.445 25.6281 339.165 24.5618 335.351C22.9892 329.727 17.7376 327.582 10.4954 329.607L-8.57329 334.939L-1.03361 361.904L8.48146 359.244L6.06876 350.615L12.6561 348.773L20.4235 355.905L30.709 353.029L21.5846 344.906ZM12.7858 348.197L5.38943 350.265L7.79135 358.855L-0.645084 361.214L-7.88318 335.327L10.6462 330.146C17.6573 328.186 22.5253 330.148 24.0225 335.502C25.0672 339.239 24.0169 342.315 20.9761 344.661L20.7002 344.863L29.5566 352.77L20.5423 355.29L12.7858 348.197ZM12.6323 342.3C15.7526 341.428 15.9013 339.434 15.4705 337.893C14.9319 335.967 13.3914 335.36 10.8874 336.06L2.10428 338.516L3.84918 344.756L12.6323 342.3ZM2.79439 338.904L11.0382 336.599C13.234 335.985 14.4895 336.465 14.9311 338.044C15.4589 339.932 14.6773 341.147 12.4815 341.761L4.2377 344.066L2.79439 338.904ZM42.7469 328.066L41.4871 339.009L50.0777 336.607L43.3247 327.904L42.7469 328.066ZM42.1453 338.243L43.2489 328.673L49.1564 336.283L42.1453 338.243ZM46.4324 319.559L35.7616 322.543L30.82 352.998L40.7588 350.219L41.2628 345.634L53.7056 342.155L56.5146 345.814L66.4534 343.035L46.4324 319.559ZM53.9015 341.519L40.7653 345.192L40.2613 349.777L31.5167 352.222L36.2591 322.985L46.275 320.184L65.4551 342.733L56.749 345.167L53.9015 341.519ZM75.9923 318.438L85.9697 315.648L84.1171 309.022L54.6473 317.262L56.4999 323.888L66.4773 321.098L72.1643 341.438L81.6794 338.778L75.9923 318.438ZM66.8658 320.408L56.8884 323.198L55.3374 317.651L83.7285 309.712L85.2796 315.26L75.3022 318.049L80.9893 338.389L72.5529 340.748L66.8658 320.408ZM112.327 319.908L119.94 299.006L109.346 301.968L105.596 314.106L96.0557 305.684L85.462 308.646L102.85 322.558L105.522 332.111L114.998 329.462L112.327 319.908ZM103.336 322.214L86.6915 308.884L95.9369 306.299L105.876 315.108L109.805 302.421L119.05 299.836L111.734 319.866L114.308 329.073L105.91 331.421L103.336 322.214Z" fill="black" fill-opacity="0.5"/>
<path d="M155.515 350.114L171.579 345.623L169.726 338.997L153.662 343.488L152.574 339.598L169.717 334.804L167.864 328.179L141.245 335.621L148.785 362.587L158.261 359.937L155.515 350.114ZM141.935 336.01L167.476 328.869L169.027 334.416L151.884 339.209L153.274 344.178L169.337 339.687L170.888 345.234L154.825 349.726L157.571 359.549L149.173 361.897L141.935 336.01ZM201.161 337.268C204.169 334.807 205.204 331.528 204.138 327.714C202.566 322.089 197.314 319.944 190.072 321.969L171.003 327.301L178.543 354.267L188.058 351.606L185.645 342.977L192.232 341.135L200 348.267L210.285 345.391L201.161 337.268ZM192.362 340.559L184.966 342.627L187.368 351.218L178.931 353.577L171.693 327.689L190.223 322.509C197.234 320.548 202.102 322.51 203.599 327.865C204.644 331.601 203.593 334.678 200.552 337.023L200.277 337.225L209.133 345.132L200.119 347.653L192.362 340.559ZM192.209 334.663C195.329 333.79 195.478 331.797 195.047 330.256C194.508 328.33 192.968 327.722 190.464 328.422L181.681 330.878L183.426 337.119L192.209 334.663ZM182.371 331.266L190.615 328.961C192.81 328.347 194.066 328.827 194.507 330.407C195.035 332.294 194.254 333.509 192.058 334.123L183.814 336.428L182.371 331.266ZM222.323 320.428L221.063 331.371L229.654 328.969L222.901 320.266L222.323 320.428ZM221.722 330.606L222.825 321.035L228.733 328.645L221.722 330.606ZM226.009 311.921L215.338 314.905L210.396 345.36L220.335 342.581L220.839 337.996L233.282 334.517L236.091 338.176L246.03 335.397L226.009 311.921ZM233.478 333.881L220.342 337.554L219.838 342.139L211.093 344.584L215.835 315.347L225.851 312.547L245.031 335.095L236.325 337.529L233.478 333.881ZM255.569 310.8L265.546 308.01L263.693 301.385L234.224 309.624L236.076 316.25L246.054 313.461L251.741 333.8L261.256 331.14L255.569 310.8ZM246.442 312.77L236.465 315.56L234.914 310.013L263.305 302.075L264.856 307.622L254.879 310.412L260.566 330.751L252.129 333.11L246.442 312.77ZM291.903 312.27L299.516 291.368L288.922 294.33L285.172 306.469L275.632 298.046L265.038 301.008L282.427 314.92L285.098 324.474L294.574 321.824L291.903 312.27ZM282.912 314.577L266.268 301.246L275.513 298.661L285.452 307.47L289.381 294.784L298.627 292.199L291.31 312.229L293.884 321.436L285.486 323.784L282.912 314.577Z" fill="black" fill-opacity="0.5"/>
<path d="M324.051 302.991L340.115 298.5L338.262 291.874L322.198 296.365L321.11 292.475L338.253 287.681L336.4 281.056L309.781 288.498L317.321 315.464L326.797 312.814L324.051 302.991ZM310.471 288.887L336.012 281.746L337.563 287.293L320.42 292.086L321.81 297.055L337.874 292.564L339.425 298.111L323.361 302.603L326.107 312.426L317.709 314.774L310.471 288.887ZM369.697 290.145C372.706 287.684 373.741 284.404 372.674 280.591C371.102 274.966 365.85 272.821 358.608 274.846L339.539 280.178L347.079 307.144L356.594 304.483L354.181 295.854L360.769 294.012L368.536 301.144L378.821 298.268L369.697 290.145ZM360.898 293.436L353.502 295.504L355.904 304.095L347.467 306.454L340.229 280.566L358.759 275.386C365.77 273.425 370.638 275.387 372.135 280.742C373.18 284.478 372.129 287.555 369.089 289.9L368.813 290.102L377.669 298.009L368.655 300.53L360.898 293.436ZM360.745 287.54C363.865 286.667 364.014 284.674 363.583 283.133C363.044 281.207 361.504 280.599 359 281.299L350.217 283.755L351.962 289.995L360.745 287.54ZM350.907 284.143L359.151 281.838C361.346 281.224 362.602 281.704 363.044 283.283C363.571 285.171 362.79 286.386 360.594 287L352.35 289.305L350.907 284.143ZM390.859 273.305L389.6 284.248L398.19 281.846L391.437 273.143L390.859 273.305ZM390.258 283.483L391.361 273.912L397.269 281.522L390.258 283.483ZM394.545 264.798L383.874 267.782L378.933 298.237L388.871 295.458L389.375 290.873L401.818 287.394L404.627 291.053L414.566 288.274L394.545 264.798ZM402.014 286.758L388.878 290.431L388.374 295.016L379.629 297.461L384.372 268.224L394.387 265.424L413.568 287.972L404.861 290.406L402.014 286.758ZM424.105 263.677L434.082 260.887L432.23 254.262L402.76 262.501L404.612 269.127L414.59 266.337L420.277 286.677L429.792 284.017L424.105 263.677ZM414.978 265.647L405.001 268.437L403.45 262.89L431.841 254.952L433.392 260.499L423.415 263.289L429.102 283.628L420.665 285.987L414.978 265.647ZM460.439 265.147L468.052 244.245L457.459 247.207L453.708 259.346L444.168 250.923L433.575 253.885L450.963 267.797L453.634 277.351L463.111 274.701L460.439 265.147ZM451.448 267.454L434.804 254.123L444.049 251.538L453.989 260.347L457.917 247.661L467.163 245.076L459.846 265.106L462.42 274.312L454.023 276.661L451.448 267.454Z" fill="black" fill-opacity="0.5"/>
<path d="M-13.0215 397.237L3.04243 392.746L1.18983 386.12L-14.8741 390.611L-15.9619 386.721L1.18059 381.928L-0.672017 375.302L-27.2911 382.744L-19.7514 409.71L-10.2749 407.061L-13.0215 397.237ZM-26.601 383.133L-1.06054 375.992L0.490481 381.539L-16.6521 386.332L-15.2626 391.302L0.801305 386.81L2.35233 392.357L-13.7116 396.849L-10.965 406.672L-19.3629 409.02L-26.601 383.133ZM32.6249 384.391C35.6333 381.93 36.6683 378.651 35.602 374.837C34.0295 369.213 28.7779 367.067 21.5356 369.092L2.46697 374.424L10.0066 401.39L19.5217 398.729L17.109 390.1L23.6964 388.258L31.4637 395.39L41.7492 392.514L32.6249 384.391ZM23.826 387.682L16.4297 389.75L18.8316 398.341L10.3952 400.7L3.15708 374.813L21.6864 369.632C28.6975 367.671 33.5655 369.633 35.0627 374.988C36.1075 378.724 35.0571 381.801 32.0164 384.146L31.7405 384.348L40.5968 392.255L31.5826 394.776L23.826 387.682ZM23.6726 381.786C26.7929 380.913 26.9415 378.92 26.5107 377.379C25.9722 375.453 24.4316 374.845 21.9277 375.545L13.1445 378.001L14.8894 384.242L23.6726 381.786ZM13.8346 378.389L22.0785 376.084C24.2743 375.471 25.5298 375.95 25.9714 377.53C26.4992 379.417 25.7176 380.633 23.5218 381.246L15.278 383.551L13.8346 378.389ZM53.7871 367.551L52.5274 378.494L61.1179 376.092L54.365 367.389L53.7871 367.551ZM53.1856 377.729L54.2892 368.158L60.1967 375.769L53.1856 377.729ZM57.4726 359.044L46.8019 362.028L41.8603 392.483L51.7991 389.705L52.3031 385.119L64.7458 381.64L67.5548 385.299L77.4936 382.52L57.4726 359.044ZM64.9418 381.004L51.8056 384.677L51.3016 389.262L42.557 391.707L47.2994 362.47L57.3153 359.67L76.4953 382.218L67.7892 384.652L64.9418 381.004ZM87.0326 357.923L97.0099 355.133L95.1573 348.508L65.6876 356.747L67.5402 363.373L77.5175 360.584L83.2046 380.923L92.7197 378.263L87.0326 357.923ZM77.906 359.893L67.9287 362.683L66.3777 357.136L94.7688 349.198L96.3198 354.745L86.3425 357.535L92.0296 377.875L83.5931 380.233L77.906 359.893ZM123.367 359.394L130.98 338.492L120.386 341.454L116.636 353.592L107.096 345.17L96.5023 348.132L113.891 362.043L116.562 371.597L126.038 368.947L123.367 359.394ZM114.376 361.7L97.7317 348.369L106.977 345.784L116.916 354.593L120.845 341.907L130.091 339.322L122.774 359.352L125.348 368.559L116.95 370.907L114.376 361.7Z" fill="black" fill-opacity="0.5"/>
<path d="M166.555 389.6L182.619 385.109L180.766 378.483L164.702 382.974L163.614 379.083L180.757 374.29L178.904 367.664L152.285 375.107L159.825 402.073L169.301 399.423L166.555 389.6ZM152.975 375.496L178.516 368.355L180.067 373.902L162.924 378.695L164.314 383.664L180.378 379.173L181.929 384.72L165.865 389.212L168.611 399.035L160.213 401.383L152.975 375.496ZM212.201 376.754C215.21 374.293 216.245 371.013 215.178 367.2C213.606 361.575 208.354 359.43 201.112 361.455L182.043 366.787L189.583 393.753L199.098 391.092L196.685 382.463L203.273 380.621L211.04 387.753L221.326 384.877L212.201 376.754ZM203.402 380.045L196.006 382.113L198.408 390.704L189.971 393.062L182.733 367.175L201.263 361.994C208.274 360.034 213.142 361.996 214.639 367.35C215.684 371.087 214.633 374.164 211.593 376.509L211.317 376.711L220.173 384.618L211.159 387.138L203.402 380.045ZM203.249 374.149C206.369 373.276 206.518 371.282 206.087 369.742C205.548 367.815 204.008 367.208 201.504 367.908L192.721 370.364L194.466 376.604L203.249 374.149ZM193.411 370.752L201.655 368.447C203.851 367.833 205.106 368.313 205.548 369.892C206.075 371.78 205.294 372.995 203.098 373.609L194.854 375.914L193.411 370.752ZM233.363 359.914L232.104 370.857L240.694 368.455L233.941 359.752L233.363 359.914ZM232.762 370.092L233.866 360.521L239.773 368.131L232.762 370.092ZM237.049 351.407L226.378 354.391L221.437 384.846L231.375 382.067L231.879 377.482L244.322 374.003L247.131 377.662L257.07 374.883L237.049 351.407ZM244.518 373.367L231.382 377.04L230.878 381.625L222.133 384.07L226.876 354.833L236.892 352.033L256.072 374.581L247.366 377.015L244.518 373.367ZM266.609 350.286L276.586 347.496L274.734 340.87L245.264 349.11L247.117 355.736L257.094 352.946L262.781 373.286L272.296 370.626L266.609 350.286ZM257.482 352.256L247.505 355.046L245.954 349.499L274.345 341.561L275.896 347.108L265.919 349.897L271.606 370.237L263.169 372.596L257.482 352.256ZM302.943 351.756L310.556 330.854L299.963 333.816L296.213 345.954L286.672 337.532L276.079 340.494L293.467 354.406L296.138 363.96L305.615 361.31L302.943 351.756ZM293.952 354.063L277.308 340.732L286.553 338.147L296.493 346.956L300.422 334.269L309.667 331.684L302.35 351.714L304.925 360.921L296.527 363.269L293.952 354.063Z" fill="black" fill-opacity="0.5"/>
<path d="M335.091 342.477L351.155 337.986L349.302 331.36L333.238 335.851L332.151 331.96L349.293 327.167L347.44 320.541L320.821 327.984L328.361 354.95L337.838 352.3L335.091 342.477ZM321.511 328.373L347.052 321.232L348.603 326.779L331.46 331.572L332.85 336.541L348.914 332.05L350.465 337.597L334.401 342.088L337.147 351.912L328.75 354.26L321.511 328.373ZM380.737 329.631C383.746 327.17 384.781 323.89 383.714 320.077C382.142 314.452 376.89 312.307 369.648 314.332L350.579 319.664L358.119 346.63L367.634 343.969L365.221 335.34L371.809 333.498L379.576 340.63L389.862 337.754L380.737 329.631ZM371.938 332.922L364.542 334.99L366.944 343.581L358.508 345.939L351.27 320.052L369.799 314.871C376.81 312.911 381.678 314.873 383.175 320.227C384.22 323.964 383.17 327.041 380.129 329.386L379.853 329.588L388.709 337.495L379.695 340.015L371.938 332.922ZM371.785 327.026C374.905 326.153 375.054 324.159 374.623 322.619C374.085 320.692 372.544 320.085 370.04 320.785L361.257 323.241L363.002 329.481L371.785 327.026ZM361.947 323.629L370.191 321.324C372.387 320.71 373.642 321.19 374.084 322.769C374.612 324.657 373.83 325.872 371.634 326.486L363.39 328.791L361.947 323.629ZM401.9 312.791L400.64 323.734L409.23 321.332L402.477 312.629L401.9 312.791ZM401.298 322.969L402.402 313.398L408.309 321.008L401.298 322.969ZM405.585 304.284L394.914 307.268L389.973 337.723L399.912 334.944L400.416 330.359L412.858 326.88L415.667 330.539L425.606 327.76L405.585 304.284ZM413.054 326.244L399.918 329.917L399.414 334.502L390.669 336.947L395.412 307.71L405.428 304.91L424.608 327.458L415.902 329.892L413.054 326.244ZM435.145 303.163L445.122 300.373L443.27 293.747L413.8 301.987L415.653 308.613L425.63 305.823L431.317 326.163L440.832 323.503L435.145 303.163ZM426.018 305.133L416.041 307.923L414.49 302.376L442.881 294.437L444.432 299.985L434.455 302.774L440.142 323.114L431.706 325.473L426.018 305.133ZM471.48 304.633L479.092 283.731L468.499 286.693L464.749 298.831L455.208 290.409L444.615 293.371L462.003 307.283L464.674 316.837L474.151 314.187L471.48 304.633ZM462.489 306.94L445.844 293.609L455.09 291.024L465.029 299.833L468.958 287.146L478.203 284.561L470.886 304.591L473.461 313.798L465.063 316.146L462.489 306.94Z" fill="black" fill-opacity="0.5"/>
<path d="M-1.98125 436.723L14.0827 432.232L12.23 425.606L-3.83385 430.097L-4.92172 426.206L12.2208 421.413L10.3682 414.787L-16.2509 422.23L-8.71119 449.196L0.765353 446.546L-1.98125 436.723ZM-15.5608 422.619L9.97968 415.478L11.5307 421.025L-5.61183 425.818L-4.22237 430.787L11.8415 426.296L13.3925 431.843L-2.67135 436.335L0.0752434 446.158L-8.32267 448.506L-15.5608 422.619ZM43.6651 423.877C46.6735 421.416 47.7086 418.136 46.6422 414.323C45.0697 408.698 39.8181 406.553 32.5758 408.578L13.5072 413.91L21.0469 440.876L30.5619 438.215L28.1492 429.586L34.7366 427.744L42.5039 434.876L52.7894 432L43.6651 423.877ZM34.8662 427.168L27.4699 429.236L29.8718 437.827L21.4354 440.186L14.1973 414.298L32.7266 409.118C39.7377 407.157 44.6058 409.119 46.1029 414.473C47.1477 418.21 46.0973 421.287 43.0566 423.632L42.7807 423.834L51.6371 431.741L42.6228 434.261L34.8662 427.168ZM34.7128 421.272C37.8331 420.399 37.9818 418.406 37.5509 416.865C37.0124 414.938 35.4719 414.331 32.9679 415.031L24.1848 417.487L25.9297 423.727L34.7128 421.272ZM24.8749 417.875L33.1187 415.57C35.3145 414.956 36.57 415.436 37.0116 417.015C37.5394 418.903 36.7578 420.118 34.562 420.732L26.3182 423.037L24.8749 417.875ZM64.8273 407.037L63.5676 417.98L72.1581 415.578L65.4052 406.875L64.8273 407.037ZM64.2258 417.215L65.3294 407.644L71.2369 415.254L64.2258 417.215ZM68.5129 398.53L57.8421 401.514L52.9005 431.969L62.8393 429.19L63.3433 424.605L75.7861 421.126L78.595 424.785L88.5338 422.006L68.5129 398.53ZM75.982 420.49L62.8458 424.163L62.3418 428.748L53.5972 431.193L58.3396 401.956L68.3555 399.156L87.5356 421.704L78.8295 424.138L75.982 420.49ZM98.0728 397.409L108.05 394.619L106.198 387.993L76.7278 396.233L78.5804 402.859L88.5577 400.069L94.2448 420.409L103.76 417.749L98.0728 397.409ZM88.9463 399.379L78.9689 402.169L77.4179 396.622L105.809 388.684L107.36 394.231L97.3827 397.02L103.07 417.36L94.6333 419.719L88.9463 399.379ZM134.407 398.879L142.02 377.977L131.426 380.939L127.676 393.078L118.136 384.655L107.543 387.617L124.931 401.529L127.602 411.083L137.079 408.433L134.407 398.879ZM125.416 401.186L108.772 387.855L118.017 385.27L127.957 394.079L131.885 381.393L141.131 378.807L133.814 398.838L136.388 408.044L127.991 410.392L125.416 401.186Z" fill="black" fill-opacity="0.5"/>
</svg>
