<svg width="233" height="221" viewBox="0 0 233 221" fill="none" xmlns="http://www.w3.org/2000/svg">
<path d="M91.3996 7.3561C106.584 -2.45202 126.416 -2.45204 141.6 7.35609L157.578 17.6762C161.124 19.9668 164.99 21.7604 169.061 23.0031L187.398 28.602C204.826 33.9232 217.191 48.8589 218.698 66.4106L220.284 84.8784C220.636 88.9776 221.591 93.0077 223.12 96.848L230.009 114.15C236.556 130.593 232.144 149.218 218.838 161.296L204.838 174.005C201.731 176.826 199.055 180.058 196.892 183.604L187.145 199.58C177.882 214.764 160.015 223.052 141.916 220.562L122.872 217.942C118.646 217.361 114.354 217.361 110.128 217.942L91.0841 220.562C72.9855 223.052 55.1182 214.764 45.8549 199.58L36.1079 183.604C33.9445 180.058 31.269 176.826 28.1616 174.005L14.1618 161.296C0.856457 149.218 -3.5564 130.593 2.99105 114.15L9.88026 96.848C11.4094 93.0077 12.3643 88.9776 12.7163 84.8784L14.3022 66.4106C15.8094 48.859 28.1739 33.9232 45.6018 28.602L63.9394 23.0031C68.0096 21.7604 71.8759 19.9668 75.4222 17.6762L91.3996 7.3561Z" fill="#FD67AE"/>
</svg>
