<svg width="16" height="16" viewBox="0 0 16 16" fill="none" xmlns="http://www.w3.org/2000/svg">
<path d="M8.00016 14.6666C11.6821 14.6666 14.6668 11.6818 14.6668 7.99992C14.6668 4.31802 11.6821 1.33325 8.00016 1.33325C4.31826 1.33325 1.3335 4.31802 1.3335 7.99992C1.3335 11.6818 4.31826 14.6666 8.00016 14.6666Z" stroke="#292D32" stroke-linecap="round" stroke-linejoin="round"/>
<path d="M10.0617 5.89063C10.364 5.89063 10.5816 6.18116 10.4965 6.47132V6.47132C10.4398 6.6643 10.2628 6.79688 10.0617 6.79688H5.93866C5.63628 6.79688 5.41874 6.50634 5.50386 6.21618V6.21618C5.56049 6.0232 5.73754 5.89063 5.93866 5.89063H10.0617ZM8.60553 12C8.40552 12 8.21607 11.9102 8.08945 11.7554L5.5317 8.62762C5.46406 8.54491 5.42596 8.442 5.42341 8.33519V8.33519C5.41699 8.06569 5.6337 7.84375 5.90328 7.84375H6.83496C7.20512 7.84375 7.52053 7.79167 7.7812 7.6875C8.04187 7.58073 8.24128 7.42188 8.37944 7.21094C8.5176 6.9974 8.58667 6.72917 8.58667 6.40625C8.58667 5.92969 8.4433 5.55599 8.15657 5.28516C7.86983 5.01172 7.42929 4.875 6.83496 4.875H5.92369C5.62998 4.875 5.4197 4.59133 5.50509 4.3103V4.3103C5.5611 4.12599 5.73106 4 5.92369 4H6.83496C7.471 4 7.99234 4.10547 8.39899 4.31641C8.80824 4.52474 9.11062 4.8112 9.30613 5.17578C9.50424 5.53776 9.60329 5.94792 9.60329 6.40625C9.60329 6.82031 9.51206 7.20182 9.32959 7.55078C9.14972 7.89714 8.86038 8.17578 8.46155 8.38672C8.06533 8.59766 7.54138 8.70313 6.8897 8.70313V8.70313C6.88032 8.70313 6.87515 8.71403 6.88109 8.72129L9.49905 11.9248C9.50578 11.933 9.50945 11.9433 9.50945 11.9539V11.9539C9.50945 11.9794 9.48882 12 9.46338 12H8.60553ZM10.0634 4C10.3649 4 10.5818 4.28969 10.497 4.57899V4.57899C10.4401 4.77267 10.2617 4.90516 10.0599 4.90358L7.00114 4.87961C6.70732 4.87731 6.49834 4.59307 6.58377 4.31194V4.31194C6.64007 4.12666 6.81094 4 7.00458 4H10.0634Z" fill="#292D32"/>
</svg>
