<svg width="24" height="24" viewBox="0 0 24 24" fill="none" xmlns="http://www.w3.org/2000/svg">
<path d="M9 22H15C20 22 22 20 22 15V9C22 4 20 2 15 2H9C4 2 2 4 2 9V15C2 20 4 22 9 22Z" stroke="black" stroke-linecap="round" stroke-linejoin="round"/>
<path d="M10.7688 13.224V10.872H8.38475V11.728H9.81675V12.776C9.64608 12.904 9.44342 13.008 9.20875 13.088C8.97942 13.1627 8.73142 13.2 8.46475 13.2C8.17675 13.2 7.91542 13.1493 7.68075 13.048C7.45142 12.9467 7.25142 12.808 7.08075 12.632C6.91542 12.4507 6.78742 12.2373 6.69675 11.992C6.60608 11.7467 6.56075 11.48 6.56075 11.192C6.56075 10.92 6.60608 10.664 6.69675 10.424C6.79275 10.184 6.92075 9.97333 7.08075 9.792C7.24608 9.61067 7.43808 9.46933 7.65675 9.368C7.88075 9.26133 8.12075 9.208 8.37675 9.208C8.55275 9.208 8.71275 9.224 8.85675 9.256C9.00608 9.28267 9.14208 9.32267 9.26475 9.376C9.38742 9.424 9.50475 9.48533 9.61675 9.56C9.72875 9.63467 9.83808 9.71733 9.94475 9.808L10.5687 9.064C10.4248 8.94133 10.2754 8.83467 10.1207 8.744C9.97142 8.648 9.81142 8.568 9.64075 8.504C9.47008 8.44 9.28342 8.392 9.08075 8.36C8.88342 8.32267 8.66208 8.304 8.41675 8.304C7.99542 8.304 7.60608 8.38133 7.24875 8.536C6.89675 8.69067 6.59275 8.90133 6.33675 9.168C6.08075 9.42933 5.88075 9.736 5.73675 10.088C5.59808 10.44 5.52875 10.8133 5.52875 11.208C5.52875 11.6187 5.59808 12 5.73675 12.352C5.87542 12.704 6.07008 13.0107 6.32075 13.272C6.57675 13.528 6.88342 13.7307 7.24075 13.88C7.59808 14.024 7.99542 14.096 8.43275 14.096C8.67808 14.096 8.91275 14.072 9.13675 14.024C9.36075 13.9813 9.56875 13.92 9.76075 13.84C9.95808 13.76 10.1394 13.6667 10.3047 13.56C10.4754 13.4533 10.6301 13.3413 10.7688 13.224ZM12.0182 8.4V14H13.0022V8.4H12.0182ZM18.5813 8.4H14.4133V14H15.3973V11.72H18.2213V10.824H15.3973V9.296H18.5813V8.4Z" fill="black"/>
</svg>
