<svg width="107" height="107" viewBox="0 0 107 107" fill="none" xmlns="http://www.w3.org/2000/svg">
<path d="M86.9642 75.9986C97.6877 68.6148 96.7273 48.609 84.8189 31.3145C72.9106 14.02 54.5638 5.98579 43.8402 13.3696C33.1166 20.7535 34.0771 40.7592 45.9854 58.0538C57.8938 75.3483 76.2406 83.3825 86.9642 75.9986Z" fill="black"/>
<path d="M50.8311 97.9829L39.0394 80.8578C37.5969 78.7629 34.7292 78.234 32.6343 79.6765C30.5393 81.119 30.0104 83.9866 31.4529 86.0816L43.2447 103.207C44.6872 105.302 47.5548 105.831 49.6498 104.388C51.7447 102.946 52.2736 100.078 50.8311 97.9829Z" fill="#65B378" stroke="black" stroke-width="1.19727" stroke-miterlimit="9.9996" stroke-linecap="round" stroke-linejoin="round"/>
<path d="M65.7311 45.0847C60.2591 37.1381 49.3811 35.1321 41.4345 40.6041C40.0921 41.5288 38.9233 42.6108 37.9288 43.804C39.5251 48.8638 42.04 54.063 45.4662 59.039C48.8924 64.015 52.8531 68.2186 57.0102 71.5145C58.4805 71.0111 59.908 70.3053 61.2505 69.3806C69.197 63.9092 71.2031 53.0312 65.7311 45.0847Z" fill="white" stroke="black" stroke-width="1.19733" stroke-miterlimit="10" stroke-linecap="round" stroke-linejoin="round"/>
<path d="M46.9757 57.9957C37.7307 44.5698 34.5241 28.6956 38.8188 19.1754L21.596 57.0501L4.60388 68.7513L21.8137 93.7438L39.2677 81.7252L78.6377 78.3681C68.5506 78.0165 55.6745 70.6283 46.9757 57.9957Z" fill="white" stroke="black" stroke-width="1.19733" stroke-miterlimit="10" stroke-linecap="round" stroke-linejoin="round"/>
<path d="M46.9763 57.9958C37.7313 44.5693 34.8219 28.1392 39.1172 18.619L21.5972 57.0503L4.60504 68.7515L6.93894 72.141C6.55547 72.3434 6.1775 72.5636 5.81115 72.8156C0.756255 76.2962 -0.519568 83.2159 2.96106 88.2708C6.44169 93.3256 13.3613 94.6015 18.4156 91.1208C18.7814 90.8688 19.1221 90.5942 19.448 90.308L21.8149 93.7452L39.2688 81.726L78.6389 78.3689C68.5505 78.0166 55.6745 70.6285 46.9763 57.9958Z" fill="#65B378" stroke="black" stroke-width="1.19733" stroke-miterlimit="10" stroke-linecap="round" stroke-linejoin="round"/>
</svg>
