<svg width="114" height="58" viewBox="0 0 114 58" fill="none" xmlns="http://www.w3.org/2000/svg">
<path d="M105.933 41.8924L106.554 45.4499C106.877 47.3032 108.328 48.7544 110.182 49.0776L113.739 49.698L110.182 50.3184C108.328 50.6416 106.877 52.0929 106.554 53.9462L105.933 57.5036L105.313 53.9462C104.99 52.0929 103.539 50.6416 101.685 50.3184L98.1278 49.698L101.685 49.0776C103.539 48.7544 104.99 47.3032 105.313 45.4499L105.933 41.8924Z" fill="black"/>
<path d="M6.69053 1L7.41467 5.1525C7.57627 6.07915 8.30191 6.80479 9.22856 6.96639L13.3811 7.69053L9.22856 8.41467C8.30191 8.57627 7.57627 9.30191 7.41467 10.2286L6.69053 14.3811L5.96638 10.2286C5.80479 9.30191 5.07915 8.57627 4.1525 8.41467L0 7.69053L4.1525 6.96638C5.07915 6.80479 5.80479 6.07915 5.96639 5.1525L6.69053 1Z" fill="black"/>
<path d="M89.7059 49.6914H29.9614C25.7312 49.6914 22.3019 46.2621 22.3019 42.0319V15.5298C22.3019 7.91535 28.4746 1.74261 36.0891 1.74261H83.5783C91.1927 1.74261 97.3655 7.91534 97.3655 15.5298V42.0319C97.3655 46.2621 93.9361 49.6914 89.7059 49.6914Z" fill="#62AA70" stroke="black" stroke-width="1.5"/>
<path d="M22.3019 14.4575C22.3019 7.43523 27.9945 1.74261 35.0167 1.74261V1.74261C42.0389 1.74261 47.7316 7.43525 47.7316 14.4575V49.6914H29.9614C25.7312 49.6914 22.3019 46.2621 22.3019 42.0319V14.4575Z" stroke="black" stroke-width="1.5"/>
<path d="M22.3019 20.1299H97.3655" stroke="black" stroke-width="1.5"/>
<rect x="65.1144" y="17.1506" width="15.4125" height="15.4125" rx="2.29787" fill="#62AA70" stroke="black" stroke-width="1.5"/>
<path d="M72.8551 25.4905L72.8551 28.5543" stroke="black" stroke-width="1.5" stroke-linecap="round"/>
<circle cx="72.9311" cy="23.2645" r="1.91489" stroke="black" stroke-width="1.5"/>
</svg>
