<svg width="25" height="24" viewBox="0 0 25 24" fill="none" xmlns="http://www.w3.org/2000/svg">
<path d="M5.25 6.75C5.25 4.40614 7.15614 2.5 9.5 2.5C11.8435 2.5 13.7495 4.40562 13.75 6.74903C13.7405 9.04858 11.9468 10.9052 9.66098 10.99H9.66097H9.66094H9.66091H9.66088H9.66085H9.66082H9.66079H9.66076H9.66073H9.66071H9.66068H9.66065H9.66062H9.66059H9.66056H9.66053H9.6605H9.66047H9.66044H9.66041H9.66038H9.66035H9.66032H9.66029H9.66026H9.66023H9.6602H9.66018H9.66015H9.66012H9.66009H9.66006H9.66003H9.66H9.65997H9.65994H9.65991H9.65988H9.65985H9.65982H9.65979H9.65977H9.65974H9.65971H9.65968H9.65965H9.65962H9.65959H9.65956H9.65953H9.6595H9.65947H9.65944H9.65941H9.65938H9.65935H9.65932H9.65929H9.65927H9.65924H9.65921H9.65918H9.65915H9.65912H9.65909H9.65906H9.65903H9.659H9.65897H9.65894H9.65891H9.65888H9.65885H9.65882H9.65879H9.65876H9.65873H9.6587H9.65867H9.65864H9.65861H9.65858H9.65855H9.65852H9.65849H9.65846H9.65842H9.65839H9.65836H9.65833H9.6583H9.65827H9.65824H9.65821H9.65818H9.65815H9.65812H9.65809H9.65805H9.65802H9.65799H9.65796H9.65793H9.6579H9.65787H9.65784H9.6578H9.65777H9.65774H9.65771H9.65768H9.65764H9.65761H9.65758H9.65755H9.65752H9.65748H9.65745H9.65742H9.65739H9.65735H9.65732H9.65729H9.65725H9.65722H9.65719H9.65716H9.65712H9.65709H9.65706H9.65702H9.65699H9.65695H9.65692H9.65689H9.65685H9.65682H9.65679H9.65675H9.65672H9.65668H9.65665H9.65661H9.65658H9.65654H9.65651H9.65647H9.65644H9.6564H9.65637H9.65633H9.6563H9.65626H9.65623H9.65619H9.65616H9.65612H9.65608H9.65605H9.65601H9.65597H9.65594H9.6559H9.65586H9.65583H9.65579H9.65575H9.65572H9.65568H9.65564H9.6556H9.65557H9.65553H9.65549H9.65545H9.65541H9.65537H9.65534H9.6553H9.65526H9.65522H9.65518H9.65514H9.6551H9.65506H9.65502H9.65498H9.65494H9.6549H9.65486H9.65482H9.65478H9.65474H9.6547H9.65466H9.65462H9.65458H9.65454H9.6545H9.65445H9.65441H9.65437H9.65433H9.65429H9.65424H9.6542H9.65416H9.65412H9.65407H9.65403H9.65399H9.65394H9.6539H9.65386H9.65381H9.65377H9.65373H9.65368H9.65364H9.65359H9.65355H9.6535H9.65346H9.65341H9.65337H9.65332H9.65327H9.65323H9.65318H9.65314H9.65309H9.65304H9.653H9.65295H9.6529H9.65285H9.65281H9.65276H9.65271H9.65266H9.65261H9.65257H9.65252H9.65247H9.65242H9.65237H9.65232H9.65227H9.65222H9.65217H9.65212H9.65207H9.65202H9.65197H9.65192H9.65187H9.65181H9.65176H9.65171H9.65166H9.65161H9.65155H9.6515H9.65145H9.6514H9.65134H9.65129H9.65124H9.65118H9.65113H9.65107H9.65102H9.65096H9.65091H9.65085H9.6508H9.65074H9.65069H9.65063H9.65057H9.65052H9.65046H9.6504H9.65035H9.65029H9.65023H9.65017H9.65012H9.65006H9.65H9.64988H9.64977H9.64965H9.64953H9.64942H9.6493H9.64918H9.64907H9.64895H9.64884H9.64872H9.64861H9.6485H9.64838H9.64827H9.64815H9.64804H9.64793H9.64781H9.6477H9.64759H9.64748H9.64736H9.64725H9.64714H9.64703H9.64692H9.6468H9.64669H9.64658H9.64647H9.64636H9.64625H9.64614H9.64603H9.64592H9.64581H9.6457H9.64559H9.64549H9.64538H9.64527H9.64516H9.64505H9.64494H9.64484H9.64473H9.64462H9.64451H9.64441H9.6443H9.64419H9.64409H9.64398H9.64388H9.64377H9.64366H9.64356H9.64345H9.64335H9.64324H9.64314H9.64303H9.64293H9.64283H9.64272H9.64262H9.64251H9.64241H9.64231H9.6422H9.6421H9.642H9.64189H9.64179H9.64169H9.64159H9.64148H9.64138H9.64128H9.64118H9.64108H9.64098H9.64088H9.64077H9.64067H9.64057H9.64047H9.64037H9.64027H9.64017H9.64007H9.63997H9.63987H9.63977H9.63967H9.63957H9.63947H9.63938H9.63928H9.63918H9.63908H9.63898H9.63888H9.63878H9.63869H9.63859H9.63849H9.63839H9.6383H9.6382H9.6381H9.638H9.63791H9.63781H9.63771H9.63762H9.63752H9.63742H9.63733H9.63723H9.63714H9.63704H9.63694H9.63685H9.63675H9.63666H9.63656H9.63647H9.63637H9.63628H9.63618H9.63609H9.63599H9.6359H9.6358H9.63571H9.63562H9.63552H9.63543H9.63533H9.63524H9.63515H9.63505H9.63496H9.63487H9.63477H9.63468H9.63459H9.63449H9.6344H9.63431H9.63422H9.63412H9.63403H9.63394H9.63385H9.63376C9.54328 10.9796 9.44918 10.9808 9.36253 10.989C7.02538 10.8911 5.25 9.03575 5.25 6.75Z" fill="#E7C288" stroke="black"/>
<path d="M4.69868 20.1757L4.69731 20.1748C3.53836 19.4022 2.95996 18.4026 2.95996 17.3809C2.95996 16.3587 3.53872 15.3494 4.707 14.5671C6.01356 13.7026 7.75177 13.2559 9.51246 13.2559C11.2738 13.2559 13.0067 13.7029 14.3026 14.5669C15.458 15.3371 16.0309 16.3364 16.04 17.3629C16.0392 18.3944 15.4603 19.3937 14.3008 20.176C13 21.0493 11.2627 21.5009 9.49996 21.5009C7.73701 21.5009 5.99957 21.0492 4.69868 20.1757Z" fill="#E7C288" stroke="black"/>
<path d="M15.3794 10.3317C16.2503 9.33399 16.7231 7.99411 16.6084 6.56023L16.6084 6.56023L16.6081 6.55705C16.5494 5.87783 16.3577 5.2439 16.0676 4.67475C16.2552 4.62228 16.4525 4.5861 16.6537 4.56818C18.3385 4.42234 19.845 5.67845 19.9917 7.38198C20.1287 9.04737 18.9535 10.4992 17.3289 10.7101H17.31C17.3075 10.7101 17.3043 10.7101 17.3005 10.71C17.2635 10.7096 17.1676 10.7085 17.0602 10.7331C16.4391 10.7554 15.8639 10.6084 15.3794 10.3317Z" fill="#E7C288" stroke="black"/>
<path d="M21.9922 16.5437L21.9921 16.5437L21.9917 16.5493C21.9288 17.3115 21.4419 18.021 20.5097 18.5319L20.509 18.5323C19.8887 18.8735 19.1467 19.0968 18.3628 19.1952C18.6968 18.6691 18.9011 18.087 18.9578 17.4767L18.9579 17.4767L18.9584 17.4706C19.0747 16.0278 18.3798 14.6884 17.1035 13.6609L17.1036 13.6609L17.1002 13.6583C16.8019 13.4223 16.4843 13.2076 16.1508 13.0138C17.866 12.9104 19.6765 13.3815 20.876 14.3495L20.8766 14.35C21.7041 15.0156 22.0624 15.7945 21.9922 16.5437Z" fill="#E7C288" stroke="black"/>
</svg>
