<svg width="14" height="19" viewBox="0 0 14 19" fill="none" xmlns="http://www.w3.org/2000/svg">
<path d="M13.9377 9.48003C13.9377 8.20402 13.9558 6.92687 13.9207 5.65086C13.9139 5.42218 13.7398 5.10318 13.5475 4.9877C10.777 3.3298 7.99296 1.69363 5.19984 0.0734672C5.03248 -0.0237199 4.71924 -0.02715 4.55301 0.0677503C3.17228 0.847533 1.80399 1.65018 0.450402 2.47799C0.269471 2.5889 0.0874096 2.87703 0.0874096 3.08512C0.0670549 7.31447 0.0670549 11.5438 0.0874096 15.7732C0.0885404 15.9836 0.254771 16.2785 0.43344 16.3883C1.7859 17.2173 3.1655 18.0005 4.52361 18.8203C4.79388 18.9838 4.98046 18.9598 5.23716 18.8077C7.99748 17.1692 10.7623 15.5388 13.5351 13.9198C13.837 13.7437 13.9524 13.5447 13.9467 13.196C13.9275 11.9566 13.9377 10.7183 13.9377 9.48003ZM11.5166 11.9177C11.5143 12.0858 11.3843 12.3247 11.2429 12.4094C9.21651 13.6236 7.18103 14.823 5.13651 16.0064C4.99629 16.0876 4.73507 16.0773 4.58694 15.9984C4.0023 15.6908 3.45046 15.3193 2.86696 15.0105C2.55259 14.8436 2.46439 14.6275 2.46665 14.2845C2.48248 12.6643 2.47344 11.043 2.47344 9.42286C2.47457 9.42286 2.47457 9.42286 2.4757 9.42286C2.4757 7.80269 2.461 6.18139 2.49266 4.56122C2.49718 4.33483 2.67585 4.03527 2.8647 3.90264C3.40636 3.52532 3.98534 3.19832 4.57224 2.89532C4.73394 2.81185 5.01778 2.80728 5.1727 2.89646C7.20365 4.065 9.22442 5.25182 11.2361 6.45465C11.3786 6.53926 11.5121 6.7748 11.5143 6.94173C11.5358 8.60077 11.5369 10.2598 11.5166 11.9177Z" fill="#484848"/>
<path d="M7.30802 6.94275C7.91413 7.29948 8.43431 7.59562 8.94205 7.91348C9.03591 7.97179 9.1275 8.11814 9.12976 8.22562C9.14559 9.02484 9.14559 9.8252 9.13202 10.6256C9.12976 10.7376 9.05513 10.8954 8.9658 10.9514C8.44449 11.2784 7.90848 11.5814 7.30688 11.9347C7.30802 10.2437 7.30802 8.65324 7.30802 6.94275Z" fill="#484848"/>
</svg>
