<svg width="362" height="84" viewBox="0 0 362 84" fill="none" xmlns="http://www.w3.org/2000/svg">
<g clip-path="url(#clip0)">
<path d="M72 1.4C72 1 72.1 0.7 72.4 0.4C72.7 0.1 73 0 73.4 0H137.2C137.6 0 137.9 0.1 138.2 0.4C138.5 0.7 138.6 1 138.6 1.4V19C138.6 20.1 138.2 21.1 137.5 22L118.4 46.8L145.7 82.2C145.9 82.6 146 83 145.8 83.3C145.6 83.7 145.3 83.8 144.9 83.8H129.6C128 83.8 126.7 83.2 125.6 81.9L99.2 47.9C98.6 47.3 98.6 46.7 99.2 46.1L123 15.2H87.5V82.5C87.5 83.5 87 83.9 85.9 83.9H73.4C73 83.9 72.7 83.8 72.4 83.5C72.1 83.2 72 82.9 72 82.5V1.4Z" fill="black"/>
<path d="M223 1.4C223 1 223.1 0.7 223.4 0.4C223.7 0.1 224.1 0 224.5 0H280.1C281.8 0 283.2 0.6 284.3 1.9L290.8 13.5C291.1 13.9 291.2 14.3 291 14.6C290.8 15 290.4 15.1 289.9 15.1H264.3V82.4C264.3 83.4 263.8 83.8 262.8 83.8H249.6C248.6 83.8 248.1 83.3 248.1 82.4V15.2H224.5C224.1 15.2 223.7 15.1 223.4 14.8C223.1 14.5 223 14.2 223 13.8V1.4V1.4Z" fill="black"/>
<path d="M334 82.9C334 83.5 333.5 84 332.9 84H319.4C318.6 84 318.2 83.5 318.2 82.6V49.9L290.2 1.7C290 1.4 289.9 1 290.1 0.6C290.3 0.2 290.5 0 290.8 0H302.3C303.5 0 305.5 0.6 306.3 1.9L326 34.3L345.6 1.9C346.4 0.6 348.4 0 349.6 0H361.1C361.5 0 361.7 0.2 361.9 0.6C362 1 362 1.4 361.8 1.7L334 50.2V82.9Z" fill="black"/>
<path d="M217 84H202.5C201.9 84 201.5 83.5 201.5 82.9V18H166.6V82.9C166.6 83.5 166.1 84 165.6 84H151C150.4 84 150 83.5 150 82.9V1.1C150 0.5 150.5 0 151 0H217C217.6 0 218 0.5 218 1.1V82.9C218 83.5 217.5 84 217 84Z" fill="black"/>
<path d="M67 1.1C67 0.5 66.5 0 65.9 0H15H1.1C0.5 0 0 0.5 0 1.1V16V82.9C0 83.5 0.5 84 1.1 84H14.9C15.5 84 16 83.5 16 82.9V16H65.9C66.5 16 67 15.5 67 14.9V1.1Z" fill="black"/>
</g>
<defs>
<clipPath id="clip0">
<rect width="362" height="84" fill="white"/>
</clipPath>
</defs>
</svg>
