<svg width="95" height="97" viewBox="0 0 95 97" fill="none" xmlns="http://www.w3.org/2000/svg">
<path d="M41.5476 2.3917C44.6499 -0.613413 49.5775 -0.613415 52.6798 2.3917L53.1835 2.8796C55.3249 4.95388 58.442 5.66535 61.2713 4.7256L61.9368 4.50455C66.0358 3.14309 70.4754 5.28108 71.9666 9.33464L72.2087 9.99277C73.238 12.7907 75.7378 14.7842 78.6946 15.1651L79.3901 15.2547C83.6739 15.8066 86.7462 19.6591 86.331 23.9583L86.2636 24.6562C85.9769 27.6237 87.3642 30.5044 89.863 32.1305L90.4507 32.513C94.0708 34.8689 95.1673 39.6729 92.9279 43.3661L92.5643 43.9658C91.0185 46.515 91.0185 49.7123 92.5643 52.2616L92.9279 52.8612C95.1673 56.5545 94.0708 61.3585 90.4507 63.7143L89.863 64.0968C87.3642 65.7229 85.9769 68.6036 86.2636 71.5711L86.331 72.2691C86.7462 76.5683 83.6739 80.4208 79.3901 80.9726L78.6946 81.0622C75.7378 81.4431 73.238 83.4366 72.2087 86.2346L71.9666 86.8927C70.4754 90.9463 66.0358 93.0843 61.9368 91.7228L61.2713 91.5018C58.442 90.562 55.3249 91.2735 53.1835 93.3478L52.6798 93.8357C49.5775 96.8408 44.6499 96.8408 41.5476 93.8357L41.0439 93.3478C38.9025 91.2735 35.7854 90.562 32.956 91.5018L32.2906 91.7228C28.1916 93.0843 23.752 90.9463 22.2608 86.8927L22.0187 86.2346C20.9893 83.4366 18.4896 81.4431 15.5327 81.0622L14.8372 80.9726C10.5535 80.4208 7.48116 76.5683 7.89638 72.2691L7.9638 71.5711C8.25041 68.6036 6.86314 65.7229 4.36437 64.0968L3.77662 63.7143C0.156522 61.3585 -0.939969 56.5545 1.29947 52.8612L1.66306 52.2616C3.20883 49.7123 3.20883 46.515 1.66306 43.9658L1.29947 43.3661C-0.939968 39.6729 0.156521 34.8689 3.77662 32.513L4.36437 32.1305C6.86314 30.5044 8.25041 27.6237 7.9638 24.6562L7.89638 23.9583C7.48116 19.6591 10.5534 15.8066 14.8372 15.2547L15.5327 15.1651C18.4896 14.7842 20.9893 12.7907 22.0187 9.99277L22.2608 9.33464C23.752 5.28108 28.1916 3.14309 32.2906 4.50455L32.956 4.7256C35.7854 5.66535 38.9025 4.95388 41.0439 2.8796L41.5476 2.3917Z" fill="#6597B3"/>
</svg>
