<svg width="89" height="100" viewBox="0 0 89 100" fill="none" xmlns="http://www.w3.org/2000/svg">
<path d="M40.0597 1.82579C42.7085 0.107008 46.1204 0.107007 48.7692 1.82579L65.8822 12.9305L84.0556 22.1984C86.8685 23.6329 88.5745 26.5878 88.4104 29.741L87.3499 50.1137L88.4104 70.4863C88.5745 73.6396 86.8685 76.5944 84.0556 78.0289L65.8822 87.2969L48.7692 98.4016C46.1204 100.12 42.7085 100.12 40.0597 98.4016L22.9467 87.2969L4.77328 78.0289C1.9604 76.5944 0.254427 73.6396 0.418557 70.4863L1.47897 50.1137L0.418558 29.741C0.254427 26.5878 1.9604 23.6329 4.77328 22.1984L22.9467 12.9305L40.0597 1.82579Z" fill="#BAA2F2"/>
</svg>
