<svg width="98" height="97" viewBox="0 0 98 97" fill="none" xmlns="http://www.w3.org/2000/svg">
<path d="M44.0335 2.46862C46.8493 0.403984 50.6788 0.403983 53.4946 2.46862L61.5684 8.38865C62.7965 9.28916 64.2561 9.82042 65.7757 9.92001L75.7659 10.5747C79.2501 10.8031 82.1836 13.2646 83.0135 16.6562L85.3931 26.3809C85.755 27.8601 86.5317 29.2053 87.6318 30.2584L94.8638 37.1815C97.3861 39.596 98.0511 43.3673 96.5067 46.4989L92.0786 55.478C91.4051 56.8438 91.1353 58.3735 91.3012 59.8873L92.3912 69.8394C92.7713 73.3103 90.8566 76.6268 87.6606 78.033L78.4968 82.065C77.1029 82.6784 75.913 83.6768 75.067 84.943L69.5049 93.2674C67.5651 96.1706 63.9665 97.4804 60.6144 96.5033L51.0028 93.7017C49.5407 93.2755 47.9874 93.2755 46.5254 93.7017L36.9137 96.5033C33.5616 97.4804 29.9631 96.1706 28.0233 93.2674L22.4612 84.943C21.6151 83.6768 20.4252 82.6784 19.0313 82.065L9.8675 78.033C6.67159 76.6268 4.75683 73.3103 5.13698 69.8394L6.22699 59.8873C6.39279 58.3735 6.12306 56.8438 5.4495 55.478L1.0214 46.4989C-0.52292 43.3674 0.142069 39.596 2.6643 37.1815L9.89638 30.2584C10.9965 29.2053 11.7731 27.8601 12.1351 26.3809L14.5146 16.6562C15.3445 13.2646 18.2781 10.8031 21.7622 10.5747L31.7524 9.92001C33.272 9.82042 34.7317 9.28916 35.9598 8.38865L44.0335 2.46862Z" fill="#62AA70"/>
</svg>
